{"glyphs":{"0":{"ha":756,"x_min":0,"x_max":0,"o":"m 346 649 b 235 442 294 649 235 558 b 331 238 235 336 283 253 b 271 417 297 274 271 339 b 381 624 271 533 331 624 b 396 621 386 624 392 622 b 346 649 381 639 363 649 z m 519 796 b 667 442 608 722 667 593 b 346 24 667 207 526 24 b 208 63 296 24 249 38 b 381 -3 257 22 317 -3 b 703 417 561 -3 703 182 b 519 796 703 588 629 731 z m 640 442 b 346 835 640 663 511 835 b 50 442 179 835 50 663 b 346 50 50 222 179 50 b 640 442 511 50 640 222 z m 436 83 b 482 111 447 90 463 99 b 436 83 468 100 451 90 z m 514 138 b 510 138 513 139 511 139 b 486 124 503 133 494 129 b 536 163 508 140 524 153 b 514 138 529 154 521 146 z m 564 203 b 561 203 564 203 563 203 l 444 135 b 581 235 524 189 563 218 b 564 203 576 224 571 213 z m 608 306 b 606 306 607 306 607 306 b 271 101 500 235 336 132 b 438 204 307 122 372 164 b 613 325 546 274 593 307 b 608 306 611 318 610 311 z m 619 357 b 513 288 583 332 546 307 b 443 247 493 275 471 263 b 432 242 439 244 435 243 b 439 251 433 244 436 249 b 624 386 475 282 561 344 b 619 357 622 376 621 367 z m 346 208 b 208 442 272 208 208 318 b 271 635 208 519 233 592 b 279 643 274 638 276 640 b 346 675 299 663 322 675 b 482 442 418 675 482 567 b 346 208 482 318 418 208 z m 356 196 b 251 135 324 178 290 158 b 319 199 294 174 313 190 b 346 194 328 196 336 194 b 356 196 349 194 351 196 z m 307 204 b 231 160 296 197 274 185 b 289 214 267 190 282 206 b 307 204 294 210 301 207 z m 211 550 b 208 540 210 547 208 544 b 185 531 204 540 197 538 b 211 550 196 539 204 544 z m 75 486 b 201 575 96 507 165 551 b 228 593 213 582 221 588 b 219 574 225 586 222 581 b 75 486 163 538 100 499 z m 204 524 b 200 503 203 517 201 510 l 117 454 z m 194 439 b 104 385 167 422 131 400 b 196 461 129 406 165 436 b 194 442 194 454 194 449 b 194 439 194 440 194 440 z m 196 425 b 196 410 196 419 196 415 b 126 372 183 407 156 390 b 147 388 133 378 140 383 b 196 425 174 407 188 418 z m 129 436 b 118 428 125 433 122 431 b 135 440 124 432 129 436 b 197 486 168 464 186 478 b 196 476 197 483 197 479 b 129 436 188 474 169 463 z m 197 396 b 201 375 199 389 200 382 b 126 332 190 372 168 360 b 197 396 150 354 179 379 z m 204 363 b 207 349 204 357 206 353 b 143 311 196 344 178 333 z m 211 336 b 217 319 213 331 214 325 b 122 265 207 315 183 303 b 211 336 142 283 176 310 z m 219 308 b 228 293 222 303 225 297 b 144 244 218 289 197 276 b 193 285 161 258 179 275 b 219 308 207 296 215 303 z m 235 279 b 243 264 238 274 239 269 b 161 215 214 246 183 228 b 235 279 206 250 226 268 z m 250 254 b 256 247 251 251 254 249 b 217 224 250 244 239 238 b 250 254 236 239 246 247 z m 276 224 b 225 196 264 219 244 208 b 264 236 249 217 258 229 b 276 224 268 232 272 228 z m 485 351 b 490 375 488 358 488 367 b 585 429 518 392 556 413 b 485 351 561 411 528 385 b 485 351 485 351 485 351 z m 556 378 b 574 390 561 382 567 386 l 472 314 b 479 333 475 319 478 326 b 556 378 489 336 508 349 z m 496 449 l 599 508 b 539 464 582 494 557 476 b 496 431 517 447 504 438 b 497 442 496 435 497 438 b 496 449 497 444 496 447 z m 494 464 b 494 474 494 468 494 471 b 611 546 561 519 597 540 b 546 499 600 535 568 514 b 494 464 519 482 504 471 z m 547 440 b 493 393 519 417 503 403 b 494 413 494 400 494 406 b 547 440 504 413 519 422 z m 493 489 b 489 510 493 496 490 503 b 590 569 522 529 565 554 b 538 526 576 557 554 539 b 493 489 515 508 501 497 z m 488 524 b 483 538 486 528 485 533 b 549 578 503 550 528 564 b 488 524 513 549 494 532 z m 471 575 b 467 586 469 579 468 582 l 540 629 b 511 607 531 621 521 614 b 471 575 490 590 478 582 z m 526 594 b 554 613 535 600 546 607 b 481 549 510 576 489 558 b 475 563 478 554 476 558 b 526 594 482 567 496 575 z m 449 619 b 438 635 444 625 442 629 b 490 667 446 638 460 647 b 535 696 504 676 522 688 b 476 644 519 681 494 660 b 449 619 463 632 453 624 z m 553 669 b 461 596 536 653 499 622 b 454 610 458 600 457 606 b 553 669 492 633 532 658 z m 392 676 b 449 708 401 681 418 689 b 406 667 424 686 411 675 b 392 676 401 671 397 674 z m 417 658 b 458 683 424 661 435 669 b 519 721 478 696 504 713 b 431 644 504 706 467 672 b 417 658 426 649 421 653 z m 600 382 b 456 278 528 332 483 299 b 465 296 460 283 463 290 b 465 296 465 296 465 296 b 600 382 515 331 569 365 z m 625 400 b 572 378 617 401 596 392 l 625 418 b 625 400 625 413 625 406 z m 626 442 b 626 432 626 439 626 435 b 550 386 618 429 599 418 b 524 369 542 381 532 375 b 626 451 588 419 615 442 b 626 442 626 449 626 446 z m 625 464 b 554 424 618 460 600 450 b 515 400 540 415 526 407 b 624 489 543 425 590 461 b 625 464 625 481 625 472 z m 621 515 b 622 500 622 511 622 506 b 583 475 618 499 610 493 b 506 425 561 460 525 436 b 544 456 515 433 531 444 b 621 515 589 488 611 506 z m 618 531 l 557 496 b 617 539 590 517 608 531 b 618 531 618 536 618 533 z m 608 574 b 614 557 611 568 613 563 b 542 517 607 554 589 547 b 544 518 543 518 543 518 b 608 574 582 549 601 565 z m 606 588 b 514 536 596 583 574 571 b 600 604 536 554 568 581 b 606 588 601 599 604 593 z m 596 614 b 518 569 589 611 571 601 b 590 631 540 589 568 611 b 596 614 592 625 594 619 z m 581 650 b 585 642 582 647 583 644 b 524 604 575 638 558 626 b 581 650 558 631 575 643 z m 576 661 l 519 628 b 568 674 551 653 564 667 b 576 661 571 669 574 665 z m 551 700 b 563 685 556 694 560 690 b 492 644 556 682 538 674 b 551 700 529 678 546 692 z m 544 711 b 485 675 535 708 518 697 b 478 671 482 674 481 672 b 533 724 515 701 529 717 b 544 711 538 719 540 715 z m 525 735 b 453 692 515 731 497 719 b 426 675 443 686 435 679 b 513 747 444 693 479 721 b 525 735 517 743 521 739 z m 506 754 b 421 703 481 739 447 718 b 489 768 468 740 483 758 b 506 754 494 764 500 758 z m 381 682 b 346 690 369 686 358 690 b 478 768 394 721 456 757 b 381 682 465 751 422 715 z m 476 778 b 367 714 457 768 413 743 b 458 789 438 763 456 781 b 476 778 464 785 471 782 z m 435 801 b 440 799 436 800 439 799 b 424 792 436 797 431 794 b 435 801 429 796 432 799 z m 399 814 b 422 806 406 811 414 808 b 150 647 356 767 226 692 b 242 706 178 665 211 688 b 399 814 364 783 394 804 z m 354 819 b 354 819 354 819 354 819 b 385 815 365 819 375 818 b 363 803 381 813 374 810 b 138 665 251 732 175 686 z m 194 763 b 213 772 196 761 199 763 b 226 781 217 775 221 778 b 158 726 194 756 174 738 b 194 763 169 739 182 751 z m 275 807 b 275 808 275 807 275 808 b 338 819 294 814 315 818 b 319 807 332 817 326 813 b 146 703 282 783 181 715 b 275 807 168 722 233 774 z m 133 692 b 133 690 133 692 133 690 b 189 714 142 689 160 697 l 117 663 b 133 692 121 672 126 682 z m 107 644 b 182 681 115 643 138 654 b 99 624 136 650 111 633 b 107 644 101 631 104 638 z m 92 604 b 281 713 99 607 128 624 b 250 694 271 706 260 700 b 86 590 146 631 103 603 b 92 604 88 594 89 600 z m 82 574 b 83 574 82 574 83 574 b 449 790 243 681 422 790 b 449 790 449 790 449 790 b 260 656 442 775 363 721 b 75 543 215 636 111 567 b 82 574 76 553 79 564 z m 72 529 b 261 646 75 532 168 586 b 251 632 258 642 256 636 b 151 569 225 614 182 588 b 69 519 104 542 81 528 b 72 529 71 522 71 526 z m 68 503 b 113 528 72 506 83 510 b 67 492 89 511 75 500 b 68 503 68 496 68 500 z m 65 474 b 146 517 75 475 107 493 b 132 507 142 513 136 510 b 65 461 96 483 75 469 b 65 474 65 465 65 469 z m 64 442 b 64 446 64 443 64 444 b 81 456 67 447 72 450 b 183 519 101 469 151 501 l 65 426 b 64 442 65 431 64 436 z m 65 414 l 149 463 b 129 449 142 457 136 453 b 67 401 92 421 74 408 b 65 414 65 406 65 410 z m 68 388 b 135 428 75 389 92 400 b 164 447 143 433 154 440 b 69 368 104 397 79 376 b 68 388 69 374 68 381 z m 72 357 b 142 396 78 358 94 367 b 74 343 103 367 83 351 b 72 357 74 347 72 351 z m 83 304 b 76 329 81 313 79 321 b 179 393 114 354 156 379 b 83 304 117 336 92 314 z m 86 294 b 117 315 89 297 97 301 b 181 356 133 325 161 343 l 92 279 b 86 294 89 285 88 290 z m 94 269 b 133 293 100 271 110 278 b 168 315 143 300 156 308 b 100 256 125 282 107 265 b 94 269 99 260 96 265 z m 113 228 b 106 244 110 233 108 239 b 188 293 131 258 163 279 b 186 293 188 293 188 293 b 113 228 139 253 119 236 z m 118 217 b 222 279 158 242 201 268 b 149 217 206 263 168 232 b 128 200 138 207 132 203 b 118 217 125 206 122 211 z m 135 190 b 221 239 146 194 174 210 b 142 181 200 222 171 201 b 135 190 139 183 136 188 z m 163 154 b 147 172 157 160 151 165 b 218 214 156 175 175 186 b 249 232 229 219 239 226 b 163 154 232 214 196 182 z m 168 147 b 278 215 211 176 258 206 b 183 132 263 199 221 164 b 168 147 178 138 174 142 z m 190 125 b 292 185 222 144 264 168 b 208 111 269 164 235 132 b 190 125 203 115 196 119 z m 238 92 b 218 104 231 96 225 100 b 453 242 274 136 368 192 b 518 279 471 250 494 264 b 600 326 553 299 582 315 b 239 93 546 282 361 167 b 238 92 239 93 238 92 z m 275 76 b 253 85 268 78 260 82 b 357 138 272 90 311 111 b 275 76 301 101 281 85 z m 453 188 b 601 285 542 243 583 269 b 592 257 599 276 596 267 b 592 257 592 257 592 257 b 289 78 490 193 329 94 b 453 188 310 97 392 149 z m 325 65 b 294 71 315 67 304 68 b 535 210 338 89 454 160 b 326 67 478 169 390 108 b 325 65 326 67 325 65 z m 543 181 b 399 74 515 157 456 113 b 397 71 397 72 397 72 b 346 64 381 67 363 64 b 342 64 344 64 343 64 z "},"1":{"ha":408,"x_min":0,"x_max":0,"o":"m 58 701 b 92 676 67 689 78 681 l 92 700 l 69 700 b 58 701 65 700 63 701 z m 296 883 b 304 857 300 876 304 867 l 304 90 b 250 36 304 61 279 36 l 146 36 b 136 39 142 36 139 38 b 182 11 144 22 161 11 l 286 11 b 339 65 315 11 339 35 l 339 832 b 296 883 339 858 321 879 z m 250 63 b 276 90 265 63 276 75 l 276 857 b 250 885 276 872 265 885 l 69 885 b 42 857 54 885 42 872 l 42 753 b 69 726 42 739 54 726 l 118 726 l 118 90 b 146 63 118 75 131 63 z m 183 78 b 257 122 213 96 242 114 b 221 78 249 111 235 94 z m 250 78 l 242 78 b 263 89 250 82 257 86 b 250 78 261 83 257 78 z m 263 100 b 243 89 260 99 254 96 b 263 114 251 100 258 108 z m 263 135 b 254 132 260 135 257 133 b 263 139 258 135 260 138 z m 263 160 b 175 110 247 154 211 132 b 263 181 201 132 235 160 z m 263 194 l 214 167 b 263 206 240 185 254 197 z m 133 119 l 133 136 b 236 196 143 140 167 153 b 133 119 211 175 172 147 z m 263 222 b 201 186 244 211 222 199 b 263 235 236 210 253 225 z m 133 149 l 133 167 b 243 229 143 171 168 185 b 133 149 218 208 175 178 z m 263 253 b 142 181 224 229 168 196 b 263 272 163 200 213 238 z m 133 185 l 133 196 b 158 207 139 197 146 200 b 133 185 146 197 138 190 z m 263 286 b 204 250 254 282 239 272 b 149 213 188 238 165 222 b 263 304 175 235 225 275 z m 133 213 l 133 229 b 182 261 139 233 153 242 b 231 292 196 269 215 282 b 133 213 172 246 146 224 z m 263 319 b 178 268 251 315 226 300 b 160 257 172 265 165 261 b 263 336 179 272 211 297 z m 133 247 l 133 261 b 196 299 140 265 156 275 b 207 306 199 301 203 303 b 133 247 165 274 144 257 z m 263 350 b 190 307 254 346 238 336 b 160 288 181 300 169 294 b 228 339 181 304 208 324 b 263 365 244 351 256 360 z m 133 278 l 133 290 b 199 331 142 293 160 306 b 207 336 201 332 204 333 b 133 278 165 304 144 289 z m 263 379 b 193 338 253 376 235 364 b 164 319 185 332 174 325 l 263 401 z m 133 306 l 133 329 b 242 397 172 356 215 382 z m 263 417 b 204 386 251 414 229 401 b 263 432 236 411 253 425 z m 133 342 l 133 356 b 208 401 144 358 167 374 b 215 406 210 403 213 404 b 133 342 188 385 154 358 z m 263 447 b 203 410 254 444 238 433 b 142 369 183 397 158 379 b 188 404 154 379 172 392 b 263 463 228 433 251 450 z m 133 375 l 133 392 b 229 447 151 397 194 424 b 182 411 214 435 196 421 b 133 375 157 393 142 382 z m 263 481 b 153 411 222 453 179 425 l 263 494 z m 133 407 l 133 418 b 200 458 143 422 161 433 z m 263 508 b 203 472 254 506 239 496 b 150 438 186 461 165 447 b 263 529 176 461 225 500 z m 133 436 l 133 457 b 217 506 158 472 190 490 b 133 436 168 467 144 447 z m 263 542 b 194 504 254 538 235 526 b 160 483 182 496 169 489 b 214 524 176 496 197 511 b 263 561 239 543 254 554 z m 133 474 l 133 488 b 183 513 143 490 161 500 b 133 474 157 493 142 482 z m 263 576 b 147 504 219 546 172 517 b 249 586 174 525 224 567 b 263 599 256 592 260 594 z m 133 504 l 133 522 b 193 554 144 525 168 539 b 133 504 160 526 143 513 z m 263 611 b 136 532 213 576 157 542 b 197 579 147 543 175 564 b 263 631 232 606 251 621 z m 133 543 l 133 560 b 215 606 149 564 183 585 b 192 588 207 599 199 593 b 133 543 161 565 143 551 z m 263 649 b 133 569 210 611 150 575 b 218 633 143 582 189 614 b 263 667 240 650 254 660 z m 169 710 b 254 763 193 725 233 751 b 133 663 232 742 175 696 l 133 685 b 169 710 139 689 149 696 z m 133 699 l 133 724 b 256 797 181 754 232 785 b 133 699 235 778 183 738 z m 244 692 b 133 608 215 669 164 631 l 133 621 b 244 692 174 649 218 678 z m 133 638 l 133 646 b 167 664 140 649 150 654 b 133 638 150 651 140 643 z m 133 583 l 133 593 b 176 617 140 596 153 603 b 133 583 156 601 142 592 z m 263 682 b 222 657 257 679 246 672 b 169 624 208 647 188 635 b 200 646 179 631 190 639 b 263 694 235 672 253 686 z m 263 708 b 200 676 251 707 226 693 b 229 697 211 685 221 692 b 263 722 246 710 256 717 z m 263 736 b 224 711 257 733 247 726 b 156 668 206 700 176 681 b 263 757 219 719 249 744 z m 263 775 b 213 749 254 774 238 764 b 263 792 239 769 254 783 z m 263 811 b 200 776 251 807 228 794 l 263 826 z m 263 857 l 263 839 l 128 761 b 175 793 142 771 160 783 b 263 857 225 826 251 844 z m 235 871 l 250 871 b 254 868 251 871 253 869 b 133 796 218 846 172 818 b 235 871 203 842 226 861 z m 172 871 l 214 871 l 74 789 b 111 818 85 799 99 808 b 172 871 150 847 168 861 z m 124 871 l 150 871 b 92 838 138 864 121 854 b 124 871 111 856 119 865 z m 72 871 l 103 871 b 60 844 86 860 69 850 z m 58 864 b 58 864 58 864 58 864 l 58 863 b 58 864 58 863 58 864 z m 56 832 b 97 856 63 835 74 840 b 56 819 86 844 71 832 z m 56 806 b 147 858 83 821 122 844 b 106 825 135 849 118 835 b 56 786 81 807 65 794 z m 56 768 l 181 839 b 56 754 143 814 94 781 z m 89 740 l 69 740 b 60 744 65 740 63 742 b 233 844 85 754 161 800 b 171 801 215 831 190 814 b 89 740 118 767 94 750 z m 111 740 l 213 799 l 133 736 l 133 740 z m 135 86 b 133 90 133 88 133 89 l 133 108 l 217 157 b 135 86 165 115 143 96 z m 258 147 b 165 78 243 133 203 104 l 146 78 b 143 78 144 78 144 78 b 258 147 189 108 238 138 z "},"2":{"ha":665,"x_min":0,"x_max":0,"o":"m 564 696 l 568 696 l 568 660 l 568 658 l 568 654 l 568 619 l 565 619 b 365 290 550 460 449 367 b 324 250 350 276 336 263 l 386 250 b 401 264 392 256 396 260 b 601 594 485 342 586 435 l 604 594 l 604 628 l 604 633 l 604 635 l 604 669 l 600 669 b 476 851 588 747 540 814 b 564 696 522 813 554 758 z m 249 594 b 301 638 275 594 297 613 b 347 675 306 658 325 675 b 353 674 349 675 350 674 b 311 700 346 689 329 700 b 265 663 289 700 269 683 b 214 619 261 638 239 619 l 108 619 b 99 622 104 619 101 621 b 104 613 100 619 101 615 b 144 594 114 601 129 594 z m 564 224 b 572 197 568 215 572 207 l 572 92 b 518 39 572 63 547 39 l 100 39 l 100 40 l 56 40 l 56 15 l 136 15 l 136 14 l 554 14 b 607 67 583 14 607 38 l 607 171 b 564 224 607 197 589 218 z m 126 65 l 518 65 b 546 92 533 65 546 78 l 546 197 b 518 224 546 211 533 224 l 263 224 b 347 310 286 251 314 278 b 542 646 436 390 535 482 l 542 654 b 542 657 542 654 542 656 l 542 658 b 542 661 542 660 542 661 l 542 669 l 540 669 b 311 885 533 790 433 885 b 81 675 192 885 92 794 b 88 656 81 668 82 661 b 108 646 93 650 100 646 l 214 646 b 240 667 226 646 238 656 b 311 726 246 701 276 726 b 383 658 349 726 381 696 b 240 425 382 557 319 499 b 235 421 239 424 236 422 b 204 393 219 410 208 400 b 46 74 124 315 46 224 l 46 67 l 126 67 z m 171 79 l 168 79 b 172 81 169 81 171 81 b 171 79 172 81 172 81 z m 199 79 b 356 171 221 92 267 118 l 238 79 z m 301 79 l 274 79 b 349 124 292 89 317 103 b 301 79 318 99 306 86 z m 333 79 b 407 129 350 89 374 106 b 513 197 442 151 488 183 l 438 143 b 349 79 382 104 358 88 z m 376 79 b 442 122 392 89 413 103 b 515 171 465 139 496 160 l 406 79 z m 425 79 l 519 135 b 463 79 507 119 483 99 z m 514 79 l 489 79 b 525 103 499 86 513 94 z m 531 92 b 528 86 531 90 529 88 b 528 85 528 85 528 85 l 531 93 z m 531 118 b 489 92 517 108 501 99 b 531 132 510 110 524 124 z m 531 151 l 451 106 l 531 172 z m 531 197 l 531 189 b 436 131 517 185 488 167 b 429 125 433 129 431 126 b 531 197 463 150 501 176 b 531 197 531 197 531 197 z m 518 210 b 519 208 518 210 518 208 b 403 136 499 201 458 175 b 314 79 369 114 331 88 l 313 79 b 483 210 328 96 382 139 z m 465 210 b 454 201 463 207 458 206 b 254 81 350 133 283 93 l 421 210 z m 401 210 b 183 82 322 163 218 101 b 199 96 188 86 192 90 b 375 210 261 131 349 190 z m 356 210 b 194 104 294 174 229 132 b 147 79 174 92 157 83 l 146 79 l 314 210 z m 275 258 b 265 256 272 258 269 258 b 285 269 272 261 279 265 b 275 258 282 265 278 263 z m 338 319 b 329 311 335 317 332 314 l 182 214 b 79 157 136 185 99 164 b 353 335 222 247 306 301 b 338 319 349 329 343 325 z m 238 210 l 156 163 l 244 224 b 242 221 244 224 243 222 l 233 210 z m 413 393 b 411 393 413 393 413 393 b 415 396 414 394 414 396 b 413 393 414 396 414 394 z m 486 494 b 378 439 474 494 435 474 b 496 514 418 465 458 490 b 486 494 493 507 490 501 z m 503 531 b 453 503 497 529 485 522 b 507 542 479 521 496 532 b 503 531 506 538 504 535 z m 522 603 l 376 518 l 524 624 b 522 603 524 617 524 608 z m 525 676 b 503 664 521 674 514 671 b 524 682 514 671 519 676 b 525 676 525 679 525 678 z m 522 697 b 400 625 483 674 428 640 b 461 672 415 639 442 658 b 517 715 492 694 508 707 b 522 697 519 710 521 704 z m 396 667 b 392 682 396 672 394 678 l 467 726 b 456 717 464 722 460 719 b 396 667 424 690 406 675 z m 396 647 b 454 679 407 650 425 660 b 396 633 426 658 407 644 b 396 647 396 639 396 643 z m 496 671 b 428 625 476 656 449 639 b 389 600 410 614 397 606 b 392 610 390 603 390 607 b 496 671 403 615 429 631 z m 513 729 b 486 711 508 726 500 721 b 403 660 464 696 422 668 b 461 708 415 671 442 693 b 506 746 488 729 500 740 b 513 729 508 740 511 735 z m 500 756 l 426 714 l 493 769 b 500 756 496 765 499 761 z m 474 796 b 488 779 478 790 483 785 b 446 754 482 776 471 769 b 393 722 429 743 408 731 b 424 749 403 731 414 740 b 474 796 454 776 467 789 z m 465 806 b 392 761 453 801 432 788 b 371 749 385 757 378 753 b 408 781 382 758 396 771 b 450 818 433 801 444 813 b 465 806 456 814 460 810 z m 442 825 l 385 793 b 439 828 403 804 421 817 b 442 825 440 826 440 826 z m 365 863 b 381 858 371 861 375 860 b 335 835 369 853 354 846 b 365 863 354 849 363 857 z m 182 826 l 192 832 b 160 807 182 824 169 814 b 151 800 157 804 154 803 b 182 826 161 810 171 818 z m 167 799 b 221 850 207 832 219 843 b 294 868 243 860 268 867 b 132 771 226 822 156 779 b 167 799 139 778 154 789 z m 122 760 b 156 771 128 758 140 763 b 113 738 135 756 121 746 b 122 760 115 744 118 753 z m 276 844 b 313 869 297 858 307 865 b 351 867 326 869 339 868 b 107 719 247 797 133 726 b 276 844 125 740 229 813 z m 103 711 b 197 757 114 710 153 729 b 157 732 182 747 168 739 b 100 696 126 714 110 703 b 103 711 100 701 101 706 z m 96 674 b 97 682 96 676 96 679 b 150 715 114 693 132 703 b 96 674 119 694 103 682 b 96 674 96 674 96 674 z m 100 664 b 100 665 100 665 100 665 b 308 800 113 683 239 758 b 394 853 365 835 388 847 b 403 850 397 853 400 851 b 281 774 383 842 347 818 b 100 664 215 731 118 665 z m 396 836 b 347 806 383 828 367 817 b 396 836 367 818 383 829 z m 126 661 l 115 661 b 129 667 119 663 124 664 b 126 661 128 665 126 663 z m 218 663 b 222 665 219 663 221 664 b 218 663 221 664 219 663 z m 228 679 b 213 671 224 676 218 674 b 229 685 218 675 224 679 b 228 679 229 682 229 681 z m 242 706 b 193 661 215 685 199 669 l 154 661 b 250 715 174 671 206 689 b 242 706 247 713 244 708 z m 138 663 b 303 769 156 683 246 736 b 417 842 381 814 410 832 b 431 833 422 839 426 836 b 138 663 325 769 174 681 z m 342 735 b 314 740 333 738 324 740 l 414 799 b 401 788 410 794 406 792 b 342 735 365 757 349 742 z m 356 728 b 396 753 364 732 375 740 b 454 789 414 765 438 781 b 417 756 443 779 429 767 b 372 715 392 733 379 722 b 356 728 367 719 361 724 z m 382 704 b 447 743 392 710 410 721 l 388 693 b 382 704 386 697 383 700 z m 383 581 b 461 626 392 583 411 596 b 506 654 475 636 492 646 b 440 607 488 642 463 624 b 374 560 410 586 389 571 b 383 581 378 567 381 574 z m 361 538 b 446 600 378 551 415 578 b 526 660 493 632 515 650 l 526 654 b 525 636 526 647 525 642 b 361 536 458 592 386 547 b 361 538 361 536 361 536 z m 353 524 b 394 543 361 525 376 532 l 335 500 b 353 524 342 508 347 515 z m 250 415 b 269 433 257 421 263 428 b 422 526 317 464 379 501 b 519 586 478 560 506 576 b 514 565 517 579 515 572 b 239 406 422 511 297 439 b 250 415 243 408 246 411 z m 213 379 b 490 540 228 388 283 418 b 174 340 432 497 285 407 b 213 379 186 354 199 367 z m 344 433 b 186 336 289 397 225 357 b 340 431 222 358 282 394 b 344 433 342 432 343 432 z m 150 314 b 185 326 156 314 168 317 b 133 292 161 310 144 299 b 150 314 139 299 144 307 z m 117 267 b 258 353 128 269 160 290 b 481 483 336 401 450 475 b 475 476 479 481 478 479 b 289 364 446 451 357 401 b 111 258 206 317 144 282 b 117 267 113 261 115 264 z m 293 356 b 463 456 371 399 429 432 b 454 444 460 451 457 447 l 104 242 b 293 356 135 267 225 317 z m 93 224 l 432 419 b 388 389 421 411 406 400 b 85 203 315 360 136 239 b 93 224 88 211 90 218 z m 78 188 b 274 304 81 189 178 246 b 394 382 328 339 367 364 b 406 385 400 383 403 385 b 399 378 403 382 400 381 b 72 164 354 343 190 239 b 78 188 74 172 75 181 z m 68 147 b 89 151 72 146 79 149 l 65 136 b 68 147 67 140 67 143 z m 64 124 b 131 164 71 125 85 135 b 244 235 161 185 211 217 l 63 110 b 64 124 64 114 64 119 z m 67 82 l 60 82 b 61 97 61 86 61 92 l 125 133 b 67 82 96 113 74 93 z m 257 210 l 279 210 b 89 93 228 183 135 124 b 257 210 118 118 188 167 z m 89 82 b 296 207 171 136 260 190 l 133 82 z "},"3":{"ha":678,"x_min":0,"x_max":0,"o":"m 226 396 b 217 397 222 396 219 397 b 261 371 226 382 243 371 b 369 356 314 369 347 364 b 226 396 357 374 325 393 z m 553 485 b 596 628 582 524 596 574 b 468 850 596 724 544 806 b 561 654 524 803 561 733 b 517 510 561 599 546 550 b 588 324 563 463 588 400 b 357 43 588 185 493 69 b 303 39 339 40 321 39 b 161 78 251 39 203 54 b 339 14 210 39 272 14 b 393 18 357 14 375 15 b 624 299 529 44 624 160 b 553 485 624 374 599 438 z m 193 594 b 226 608 203 603 214 607 b 279 611 247 608 265 610 b 293 638 286 618 292 626 b 339 675 297 658 317 675 b 344 674 340 675 343 674 b 325 694 340 683 333 692 b 303 700 317 699 310 700 b 258 663 281 700 263 683 b 206 619 253 638 231 619 l 100 619 b 90 622 97 619 93 621 b 96 613 92 619 93 615 b 136 594 106 601 121 594 z m 225 329 b 231 311 228 324 231 318 b 282 254 236 283 256 263 b 267 286 275 264 269 274 b 225 329 264 310 246 326 z m 353 69 b 561 324 475 93 561 197 b 481 507 561 403 533 464 b 535 654 517 546 535 594 b 303 885 535 781 431 885 b 72 675 183 885 85 794 b 79 656 72 668 75 661 b 100 646 85 650 93 646 l 206 646 b 232 667 218 646 229 656 b 269 718 236 689 250 707 b 335 719 289 728 313 729 b 375 654 360 708 375 683 b 226 582 375 629 375 585 b 200 554 211 581 200 569 l 200 449 b 226 422 200 435 211 422 b 403 331 378 418 400 374 b 333 229 404 283 378 242 b 250 239 306 219 275 224 b 206 307 226 254 210 279 b 179 331 203 321 192 331 l 74 331 b 53 321 65 331 58 326 b 46 301 47 315 46 308 b 147 118 51 229 89 163 b 303 65 192 83 246 65 b 353 69 319 65 336 67 z m 469 144 b 443 131 465 143 457 139 b 451 136 446 132 449 135 b 489 164 467 147 479 157 b 469 144 482 157 476 150 z m 446 144 b 383 93 400 111 386 100 b 350 83 372 90 361 86 b 321 81 340 82 331 81 b 508 192 386 122 478 178 b 446 144 496 181 467 160 z m 517 204 b 336 101 496 200 400 142 b 525 222 374 129 450 178 b 517 204 522 217 519 210 z m 532 238 b 532 238 532 238 532 238 l 411 168 b 538 258 486 218 521 244 b 532 238 536 251 535 244 z m 543 281 b 375 182 525 281 468 244 b 258 106 335 154 289 124 b 390 196 289 126 340 161 b 503 272 431 224 472 251 b 544 301 524 288 538 296 b 543 281 544 294 544 288 z m 544 351 b 444 296 526 347 483 322 b 481 322 457 306 469 314 b 542 368 515 347 533 360 b 544 351 543 363 543 357 z m 417 332 b 488 374 426 335 444 346 b 507 386 494 378 501 382 b 417 313 483 365 446 336 b 417 332 417 318 417 325 z m 414 349 b 410 364 413 354 411 358 b 510 424 442 383 486 411 b 463 386 497 413 476 397 b 414 349 438 368 422 356 z m 414 296 l 492 342 b 475 331 486 338 481 333 b 408 282 444 308 424 293 b 414 296 411 286 413 292 z m 535 399 b 540 381 536 393 539 388 l 460 333 b 535 399 506 371 526 389 z m 525 426 b 531 411 528 422 529 417 b 483 382 525 408 511 400 b 426 347 465 371 443 356 b 468 379 438 357 454 369 b 525 426 501 404 518 418 z m 518 439 b 426 385 508 433 485 421 b 508 454 446 403 476 429 b 518 439 511 450 515 444 z m 501 465 b 428 421 490 461 469 447 b 415 414 424 418 419 415 b 493 474 438 431 468 456 b 501 465 496 471 499 468 z m 483 483 b 428 450 474 479 456 469 l 476 490 b 483 483 479 488 481 486 z m 414 464 b 464 503 433 478 450 490 l 465 501 b 468 497 467 500 468 499 b 414 464 453 488 433 476 z m 493 549 b 308 443 482 544 444 524 b 439 532 336 465 399 506 b 506 575 475 554 494 567 b 493 549 503 567 497 557 z m 517 621 l 376 540 b 518 639 453 588 499 619 b 517 621 518 633 518 626 z m 519 661 b 418 608 503 657 464 635 l 518 675 b 519 661 518 671 518 667 z m 517 686 b 460 658 507 683 486 674 b 515 692 483 674 508 690 b 517 686 517 690 517 689 z m 467 725 b 407 675 447 708 422 688 b 389 660 399 668 393 664 b 386 679 389 667 388 672 z m 382 690 b 378 699 381 693 379 696 b 440 733 386 703 404 711 b 422 721 435 729 428 725 b 382 690 401 706 389 696 z m 390 646 b 483 699 407 650 449 676 b 388 629 460 681 424 654 b 390 646 389 635 389 640 z m 514 701 b 474 679 507 700 496 693 b 511 711 493 694 504 704 b 514 701 511 708 513 706 z m 500 742 b 507 725 503 738 504 731 b 408 664 471 701 433 678 b 413 668 410 665 411 667 b 500 742 469 714 492 733 z m 494 753 l 432 715 b 490 761 467 740 483 753 b 494 753 492 758 493 756 z m 485 772 b 404 724 457 754 426 736 b 421 735 410 728 415 732 b 479 779 456 758 472 771 b 485 772 481 776 482 774 z m 464 797 b 471 789 467 794 468 792 b 386 739 444 772 411 754 b 410 756 393 744 401 750 b 464 797 442 778 457 790 z m 456 807 b 385 767 447 803 429 793 b 444 817 422 796 438 810 b 456 807 449 814 451 811 z m 433 825 b 371 792 419 821 396 807 l 428 831 b 433 825 429 829 432 826 z m 379 856 b 396 849 385 854 390 851 b 132 696 378 838 318 804 b 235 760 163 715 201 739 b 379 856 333 819 369 843 z m 332 868 b 363 861 342 865 353 864 b 210 774 344 851 304 829 b 332 868 299 836 325 858 z m 290 869 b 300 869 293 869 296 869 b 285 863 294 868 290 865 b 290 869 288 865 289 867 z m 213 850 b 247 863 224 856 235 860 b 185 821 232 853 211 839 b 183 821 183 821 183 821 b 213 850 206 839 211 846 z m 175 828 b 179 831 176 829 178 829 b 150 807 172 824 163 817 b 175 828 158 814 167 822 z m 122 774 b 189 814 129 774 143 782 b 278 868 219 833 261 861 b 278 868 278 868 278 868 b 110 751 261 850 185 799 b 122 774 113 758 118 765 z m 103 735 b 167 775 110 738 126 749 b 186 789 172 779 179 783 b 207 803 193 793 200 799 b 319 868 251 832 301 864 b 321 868 319 868 321 868 b 93 706 300 847 176 761 b 103 735 96 715 99 725 z m 90 692 b 350 843 176 743 296 813 b 229 768 322 824 272 793 b 88 675 139 713 101 689 b 90 692 88 681 90 686 z m 100 661 b 94 664 99 661 97 663 b 299 782 144 692 229 742 b 240 744 279 769 260 757 b 114 661 156 689 124 669 z m 151 661 b 207 690 167 668 186 679 l 163 661 z m 203 661 l 186 661 b 215 679 193 665 203 671 b 203 661 208 669 206 664 z m 131 661 b 246 736 153 676 201 708 b 407 843 360 810 396 833 b 419 836 411 840 415 839 b 131 661 301 757 174 678 z m 331 736 b 308 740 322 738 315 739 b 424 811 353 769 399 799 b 331 736 401 793 361 761 z m 343 731 b 363 743 347 733 354 738 b 433 785 382 754 413 772 b 404 764 425 778 414 771 b 353 725 375 744 360 732 b 343 731 350 726 346 729 z m 369 710 b 364 715 368 711 367 714 b 438 758 375 722 396 735 b 415 743 431 753 422 747 b 369 710 390 725 376 715 z m 325 579 b 236 525 293 560 263 542 b 290 572 251 539 271 556 b 325 579 304 574 315 576 z m 231 567 b 265 569 243 568 254 568 l 219 543 z m 214 554 b 217 561 214 557 215 558 b 218 561 217 561 217 561 z m 214 529 l 247 547 b 214 517 231 533 221 524 z m 214 500 b 456 644 288 546 389 607 l 214 485 z m 214 449 l 214 472 b 519 653 321 540 488 642 b 314 514 506 631 382 554 b 214 449 251 475 225 458 b 214 449 214 449 214 449 z m 226 436 b 221 439 225 436 222 438 l 472 585 b 239 436 414 544 313 481 b 226 436 235 436 231 436 z m 514 604 b 511 593 514 600 513 596 b 267 442 415 528 314 464 b 514 604 431 542 492 585 z m 285 432 b 272 435 281 433 276 433 b 301 449 281 439 290 443 b 285 432 293 442 288 436 z m 306 429 b 482 533 368 467 447 514 b 474 524 479 529 476 526 b 338 422 446 499 392 458 b 306 429 328 425 317 428 z m 351 417 b 418 456 363 422 382 433 l 364 411 b 351 417 360 414 356 415 z m 385 399 b 375 406 382 400 379 403 b 407 425 381 408 390 415 b 454 457 419 435 439 446 b 385 399 411 422 393 407 z m 394 389 b 432 413 401 393 413 400 b 474 439 444 421 460 431 b 404 376 431 404 413 386 b 394 389 401 381 397 385 z m 338 215 b 389 249 358 221 376 233 b 544 342 457 294 529 339 b 547 324 546 336 547 331 b 546 315 547 321 546 318 b 346 200 526 313 465 274 b 219 121 300 171 250 139 b 332 214 247 144 296 183 b 338 215 333 214 336 214 z m 279 213 b 303 210 288 211 294 210 b 229 167 288 201 264 188 b 214 157 225 164 219 161 b 279 213 256 190 272 204 z m 253 221 b 264 217 257 219 261 218 l 186 171 b 199 179 190 174 194 176 b 253 221 231 203 247 214 z m 242 228 b 146 174 213 211 172 188 b 224 242 164 190 194 217 b 242 228 229 236 235 232 z m 207 263 b 217 250 210 258 213 254 b 189 232 211 247 203 242 b 132 196 172 222 150 207 b 207 263 178 233 199 253 z m 200 276 b 169 261 192 274 182 268 b 196 286 183 272 190 279 b 200 276 197 282 199 279 z m 182 315 b 190 306 188 313 190 310 b 192 301 190 304 192 303 l 92 243 b 182 315 110 261 147 289 z m 156 315 b 99 281 139 307 118 293 b 133 315 111 293 124 306 z m 78 315 l 114 315 b 103 310 110 314 107 313 b 68 288 93 303 78 293 b 78 315 74 303 76 311 z m 60 303 b 63 310 60 306 61 307 b 67 313 64 310 65 311 b 61 297 65 308 64 303 b 60 303 61 299 61 301 z m 65 276 b 100 296 71 278 81 283 b 68 263 83 279 74 269 b 65 276 67 267 67 272 z m 71 251 b 142 297 96 268 121 285 b 75 240 103 267 83 250 b 71 251 74 243 72 247 z m 81 226 l 181 283 b 110 228 163 267 128 240 b 88 210 99 218 92 214 b 81 226 85 215 83 221 z m 93 201 b 197 265 133 229 178 257 b 104 186 182 250 142 217 b 93 201 100 190 96 196 z m 111 175 b 174 211 122 179 142 192 b 122 161 140 183 128 169 b 111 175 118 165 115 171 z m 138 146 b 131 153 135 149 132 151 b 206 196 139 158 160 169 b 193 188 201 193 197 190 b 138 146 160 164 144 153 z m 156 129 b 147 138 153 132 150 135 l 243 193 b 160 126 218 172 185 146 b 156 129 158 128 157 128 z m 169 119 b 235 158 179 125 196 135 b 290 192 251 168 272 181 b 190 108 222 136 197 117 b 169 119 183 111 176 115 z m 203 101 b 351 192 222 110 264 136 b 510 289 404 225 469 265 b 222 93 443 243 306 150 b 203 101 215 96 210 99 z m 243 88 b 381 174 267 97 310 126 b 538 271 439 213 515 264 b 264 83 511 246 361 146 b 243 88 257 85 250 86 z m 279 81 l 340 117 b 303 79 318 100 306 88 b 279 81 294 79 288 81 z "},"4":{"ha":765,"x_min":0,"x_max":0,"o":"m 676 413 l 676 226 l 618 226 l 618 90 b 564 36 618 61 593 36 l 460 36 b 450 39 456 36 453 38 b 496 11 458 22 475 11 l 600 11 b 653 65 629 11 653 35 l 653 201 l 713 201 l 713 413 z m 336 438 l 406 549 l 406 631 l 285 438 z m 653 438 l 653 886 l 618 886 l 618 438 z m 406 201 l 406 226 l 51 226 l 51 201 z m 564 63 b 592 90 579 63 592 75 l 592 253 l 650 253 l 650 411 l 592 411 l 592 885 l 347 885 l 42 399 l 42 253 l 432 253 l 432 90 b 460 63 432 75 444 63 z m 476 78 b 551 122 490 85 513 99 b 511 78 525 94 514 83 z m 560 78 l 533 78 b 571 100 542 82 554 89 b 560 78 568 93 564 85 z m 576 90 b 575 86 576 89 575 88 l 574 85 b 576 90 575 88 576 89 z m 576 115 b 532 88 561 104 544 94 b 572 131 544 101 563 121 b 576 136 574 133 575 135 z m 576 150 b 571 146 575 149 574 149 b 483 93 528 118 501 103 b 576 163 508 111 547 140 z m 576 176 b 467 114 560 172 506 139 b 576 200 492 135 535 168 z m 576 211 b 468 142 538 183 494 156 b 576 228 535 192 564 215 z m 496 242 b 633 325 535 268 611 318 b 447 194 617 307 531 247 l 447 211 b 496 242 453 215 465 222 z m 447 225 l 447 235 b 533 286 457 239 478 253 b 447 225 483 251 458 235 z m 471 193 b 447 172 460 183 451 178 l 447 182 b 471 193 453 183 460 188 z m 447 138 l 447 154 b 526 200 458 156 482 171 b 550 217 533 206 542 211 b 447 138 522 194 479 163 z m 576 243 b 521 208 569 240 554 232 b 451 164 499 193 467 172 b 576 254 467 179 518 215 z m 628 267 l 613 267 b 632 279 618 271 624 275 b 628 267 629 274 629 269 z m 636 303 b 618 292 629 299 624 294 b 578 267 606 283 592 275 l 576 267 b 542 244 565 258 553 251 b 636 315 597 282 624 303 z m 636 335 b 589 313 626 333 611 326 b 636 344 606 324 621 335 z m 636 358 b 557 311 628 354 608 343 b 636 374 600 342 624 361 z m 636 397 l 636 394 l 476 303 b 615 397 518 332 574 369 z m 576 871 l 576 857 b 564 853 574 857 569 856 b 576 871 571 860 575 865 z m 447 419 l 447 440 b 510 478 454 443 469 453 b 543 499 519 485 532 492 z m 467 418 b 447 406 461 414 454 410 l 447 407 b 457 413 450 408 454 411 z m 478 656 b 447 629 463 644 453 636 l 447 639 b 478 656 451 642 461 646 z m 447 651 l 447 667 b 560 732 463 674 500 694 b 447 651 535 713 490 681 z m 497 586 b 558 625 515 599 540 615 b 508 586 544 614 525 599 b 447 538 475 560 457 546 l 447 556 b 497 586 454 558 467 567 z m 447 569 l 447 583 b 496 607 457 585 475 594 z m 528 517 l 447 454 l 447 468 b 528 517 471 482 501 501 z m 447 483 l 447 499 b 563 567 485 521 535 551 b 496 518 546 553 517 532 b 447 483 469 500 456 490 z m 576 514 l 576 493 l 490 443 b 490 443 490 443 490 443 z m 506 488 l 576 542 l 576 529 b 506 488 568 525 550 515 z m 511 518 b 576 567 546 542 565 556 l 576 554 b 511 518 569 550 551 542 z m 507 546 b 576 597 529 563 554 581 l 576 585 b 507 546 568 581 551 571 z m 447 513 l 447 524 b 515 564 468 536 493 550 b 447 513 476 536 457 521 z m 492 561 b 514 578 500 567 507 572 b 576 628 549 606 567 619 l 576 610 b 492 561 568 606 546 593 z m 508 606 l 576 658 l 576 644 b 508 606 567 642 547 631 z m 471 604 l 576 683 l 576 671 b 471 604 538 644 497 618 z m 447 599 l 447 610 b 507 643 454 613 471 622 z m 454 624 b 576 714 475 643 526 681 l 576 696 b 454 624 538 672 481 639 z m 535 700 b 576 736 556 717 569 728 l 576 725 b 535 700 564 718 549 708 z m 471 690 b 501 711 481 697 492 704 b 576 765 542 738 565 754 l 576 754 b 471 690 544 735 500 707 z m 447 685 l 447 697 b 557 761 479 717 526 743 b 497 719 540 749 515 732 b 447 685 471 701 456 692 z m 457 714 b 561 796 482 738 536 778 b 576 807 568 801 572 804 l 576 783 b 457 714 567 778 539 761 z m 447 718 l 447 729 b 490 754 463 739 478 747 b 447 718 469 738 456 726 z m 428 740 l 426 740 l 426 739 b 342 690 399 724 369 707 l 576 842 l 576 826 b 428 740 564 818 500 782 z m 238 411 l 432 721 b 432 722 432 721 432 722 l 432 411 z m 411 397 b 271 313 364 368 314 339 b 383 397 307 339 349 371 z m 350 397 b 213 313 324 383 279 356 b 206 307 210 311 208 308 l 322 397 z m 303 397 b 224 351 278 382 250 367 b 276 397 254 372 271 388 z m 222 397 l 253 397 b 151 338 238 388 208 371 b 222 397 183 361 208 382 z m 128 363 b 244 450 189 407 225 433 l 224 418 z m 165 421 b 58 357 128 397 78 367 b 285 514 76 381 181 451 l 261 476 b 165 421 256 475 238 465 z m 322 575 b 193 504 308 572 253 540 l 347 614 z m 350 635 b 369 650 357 640 364 644 l 363 638 b 350 635 360 638 356 638 z m 392 735 b 399 739 394 736 396 738 b 411 747 403 742 407 744 b 443 767 422 754 432 761 z m 474 788 b 525 822 493 800 510 811 b 558 842 538 831 550 838 z m 550 871 b 311 731 474 825 378 769 l 511 871 z m 468 871 l 485 871 b 436 843 472 864 456 854 b 468 871 456 857 465 865 z m 361 871 l 393 871 b 353 844 383 865 371 857 b 336 833 347 842 342 838 b 361 871 353 856 358 865 z m 319 814 b 358 838 324 815 332 819 b 390 858 367 843 381 851 b 356 833 381 850 367 842 b 314 804 338 822 325 813 z m 299 781 b 361 825 310 792 340 811 b 419 871 399 851 415 863 l 449 871 b 299 781 393 833 322 790 z m 292 769 b 371 810 301 769 335 788 b 292 757 340 789 310 769 b 279 749 286 754 283 751 z m 267 729 b 456 843 324 764 403 813 l 246 697 z m 233 676 l 235 676 b 565 868 249 683 307 715 b 521 831 558 860 543 847 b 407 756 493 814 454 788 b 211 642 349 721 281 681 z m 200 624 b 200 622 200 624 200 624 b 242 638 207 621 221 626 l 186 603 z m 175 583 l 181 588 b 190 593 183 589 188 590 b 172 581 185 589 178 585 z m 160 558 b 396 701 196 590 314 656 b 406 707 400 703 403 706 l 397 693 b 154 550 317 643 189 567 z m 146 536 b 386 675 168 542 297 621 l 385 674 b 264 589 364 654 313 621 b 179 538 236 572 206 554 b 124 501 153 521 135 510 z m 110 479 b 110 479 110 479 110 479 b 185 529 135 496 160 514 b 189 532 186 531 188 531 b 265 579 218 550 243 565 b 342 622 297 599 325 614 l 85 439 z m 56 394 l 71 418 b 315 563 153 469 281 547 l 311 556 b 139 442 286 533 218 489 l 56 393 z m 56 383 b 119 419 65 388 89 401 b 56 367 90 399 68 381 z m 56 346 b 171 413 67 350 92 365 b 219 442 188 422 204 433 b 56 322 176 410 108 361 z m 56 310 l 214 401 l 213 400 b 56 282 188 375 122 326 z m 56 267 l 56 271 b 144 322 64 274 83 286 b 257 388 183 344 232 374 b 76 267 228 364 151 313 z m 97 267 b 257 360 122 281 167 307 l 138 267 z m 199 267 l 160 267 b 218 304 171 274 189 286 b 358 390 260 332 324 372 b 199 267 249 307 211 278 b 199 267 199 267 199 267 z m 256 267 l 217 267 b 431 397 283 308 361 357 l 433 397 b 414 385 426 393 421 389 b 256 267 290 306 261 279 z m 267 267 b 576 475 286 293 435 389 l 576 449 b 279 267 456 365 325 283 z m 576 429 l 576 421 b 482 361 549 403 515 382 b 576 429 532 393 563 415 z m 422 336 b 557 424 474 368 525 403 b 422 336 526 400 471 365 z m 301 267 b 356 296 317 274 336 283 b 310 267 329 279 317 272 z m 338 267 b 571 406 390 293 504 364 b 371 267 543 378 456 319 z m 415 267 l 404 267 b 432 282 413 271 421 276 b 415 267 422 275 418 271 z m 413 282 b 576 400 475 321 549 369 l 576 397 l 594 397 b 544 365 583 390 568 381 b 413 282 508 340 451 304 z m 435 267 l 629 379 b 467 261 601 351 503 286 b 447 249 458 256 451 251 l 447 267 z m 447 122 b 481 138 454 124 465 129 b 447 107 464 124 453 114 z m 454 79 b 447 89 450 82 447 85 b 546 151 482 113 519 136 b 454 79 483 106 461 88 z "},"5":{"ha":699,"x_min":0,"x_max":0,"o":"m 351 471 b 368 469 357 471 363 471 b 317 497 353 486 335 497 b 239 421 285 497 253 465 l 228 389 l 68 442 l 68 417 l 103 417 l 264 364 l 274 396 b 351 471 289 440 321 471 z m 489 643 b 614 368 564 582 614 482 b 317 28 614 181 481 28 b 178 67 267 28 219 42 b 351 3 226 26 288 3 b 650 343 517 3 650 156 b 489 643 650 474 585 586 z m 464 700 l 383 700 b 444 675 404 694 425 685 l 500 675 b 554 728 529 675 554 699 l 554 832 b 510 883 554 858 535 879 b 518 857 515 876 518 867 l 518 753 b 464 700 518 724 494 700 z m 240 306 b 244 299 242 303 243 301 b 300 242 257 269 278 249 b 281 274 293 251 286 261 b 240 306 272 290 257 301 z m 250 700 l 243 700 l 243 697 b 250 700 246 699 247 699 z m 588 368 b 317 682 588 542 465 682 b 217 660 282 682 249 675 l 217 726 l 464 726 b 492 753 479 726 492 739 l 492 857 b 464 885 492 872 479 885 l 58 885 l 58 468 l 71 468 l 211 422 l 213 429 b 253 496 222 457 236 479 l 285 517 b 288 517 286 517 286 517 b 294 519 289 518 292 518 b 317 524 301 522 308 524 b 429 368 378 524 429 451 b 317 213 429 283 378 213 b 219 289 278 213 240 242 b 186 304 214 301 200 308 l 88 272 b 71 257 81 269 74 264 b 69 236 68 250 67 243 b 317 54 114 124 208 54 b 588 368 465 54 588 194 z m 376 76 b 324 69 360 72 342 69 b 467 154 368 96 424 129 b 376 76 394 101 379 85 z m 414 90 b 458 119 431 101 446 113 b 414 90 444 108 429 99 z m 481 138 b 421 107 472 139 447 124 b 513 174 444 126 478 150 b 481 138 503 161 492 149 z m 526 197 b 468 167 521 194 507 188 b 535 213 503 189 524 203 b 526 197 532 207 531 201 z m 546 235 b 546 235 546 235 546 235 b 411 160 533 238 486 210 b 556 261 497 218 538 247 b 546 235 553 253 550 244 z m 563 281 b 250 101 526 278 331 153 b 313 147 264 113 286 128 b 568 308 410 203 535 286 b 563 281 567 299 564 290 z m 574 368 b 574 367 574 368 574 367 b 438 289 557 361 511 335 b 572 390 467 314 521 353 b 574 368 572 382 574 375 z m 443 379 b 488 403 450 381 464 388 b 443 364 465 385 451 372 b 443 368 443 365 443 367 b 443 379 443 372 443 375 z m 489 367 l 439 328 b 442 342 440 332 440 336 b 489 367 450 344 464 351 z m 442 394 b 438 415 440 401 439 408 l 515 461 z m 538 376 b 431 296 482 338 450 311 b 435 311 432 300 433 306 b 538 376 472 336 510 361 z m 571 403 b 514 374 561 401 539 389 l 569 418 b 571 403 569 413 571 407 z m 568 429 b 547 415 565 428 560 424 b 443 351 524 400 465 361 b 544 435 461 369 518 414 b 563 450 553 442 558 447 b 568 429 565 443 567 436 z m 560 461 b 553 456 558 460 557 458 b 456 394 501 422 472 404 l 554 482 b 560 461 556 475 558 468 z m 550 492 l 451 435 b 510 485 468 450 493 471 b 542 511 528 499 536 507 b 550 492 544 504 547 499 z m 536 521 l 467 481 b 528 536 504 511 521 528 b 536 521 532 532 533 526 z m 519 550 b 467 517 511 546 496 536 b 438 497 457 511 447 504 l 511 564 b 519 550 514 558 517 554 z m 494 583 b 504 571 497 579 501 575 l 428 528 z m 479 600 b 488 592 482 597 485 594 l 425 556 b 479 600 457 579 474 592 z m 458 617 b 465 611 461 615 464 613 b 432 594 457 608 444 601 b 458 617 447 606 454 613 z m 449 624 b 351 561 415 601 381 579 l 447 625 b 449 624 447 625 447 625 z m 426 639 b 435 633 429 636 432 635 b 406 621 428 631 418 626 b 426 639 418 629 424 635 z m 414 644 b 249 553 386 635 317 594 b 329 604 278 571 307 589 b 401 650 374 632 393 644 b 414 644 406 649 410 647 z m 367 661 b 368 661 368 661 368 661 b 390 654 375 660 383 657 b 124 493 306 600 185 526 b 365 658 301 611 351 646 l 368 660 z m 329 667 b 356 664 338 667 346 665 l 168 556 z m 271 663 b 271 663 271 663 271 663 b 311 667 285 665 297 667 l 100 546 b 243 643 139 575 211 622 b 271 663 258 653 267 658 z m 233 650 b 107 576 189 625 140 596 l 203 657 l 203 636 l 213 642 b 233 650 219 646 226 649 z m 107 617 b 151 649 122 628 139 639 b 203 688 178 668 193 679 l 203 671 z m 89 636 b 196 715 113 656 154 686 b 203 719 199 717 200 718 l 203 701 z m 235 740 l 368 817 l 258 740 z m 300 740 l 278 740 b 438 833 322 767 392 807 b 392 804 422 824 406 813 b 300 740 333 768 307 751 z m 347 740 l 322 740 b 468 828 381 778 440 814 b 407 783 453 815 426 797 b 347 740 369 758 354 747 z m 376 740 b 429 774 389 747 406 758 b 463 796 440 782 453 789 l 414 740 z m 464 746 b 461 740 463 743 461 742 l 435 740 b 443 746 438 742 440 743 b 475 765 453 751 467 761 b 464 746 471 760 467 750 z m 478 778 b 439 754 471 775 461 769 l 478 797 z m 478 815 b 424 782 469 813 456 803 b 378 751 410 772 392 761 b 411 776 388 760 400 768 b 478 824 447 800 467 814 z m 478 842 b 442 824 469 839 457 833 b 478 850 460 836 471 843 z m 464 871 b 474 865 468 871 472 868 b 354 796 463 858 435 843 l 461 871 z m 440 871 l 217 740 l 203 740 l 203 731 b 189 721 197 728 193 725 b 74 651 139 688 89 657 b 329 818 92 676 250 772 b 413 871 383 851 404 864 z m 396 871 b 324 826 381 861 353 844 b 278 799 308 817 293 808 b 394 871 324 829 371 860 z m 374 871 b 224 774 342 853 290 819 b 96 690 179 743 126 707 l 357 871 z m 297 871 l 326 871 b 228 815 301 858 267 838 b 297 871 274 847 292 861 z m 275 871 b 117 775 225 839 160 800 b 249 871 154 803 207 840 z m 182 871 l 229 871 b 101 796 186 844 135 815 b 182 871 156 843 175 861 z m 139 871 l 161 871 b 160 869 161 869 161 869 b 106 838 147 863 125 849 b 139 871 125 856 135 865 z m 76 871 l 114 871 b 89 854 107 867 99 861 b 74 844 83 851 78 847 b 76 871 75 858 76 865 z m 72 833 b 94 847 76 836 82 839 b 118 863 101 851 110 857 b 72 822 107 851 90 836 z m 72 808 b 151 854 81 813 101 824 b 72 783 131 833 99 806 z m 72 769 b 157 817 82 774 103 785 b 72 756 108 782 85 764 z m 72 742 b 257 849 93 750 154 786 b 136 764 224 824 172 788 b 72 719 101 740 83 728 z m 72 707 b 324 860 151 758 268 831 l 74 686 z m 74 671 b 83 674 76 671 79 672 b 74 664 79 671 76 668 z m 74 643 b 92 650 78 644 83 646 b 74 633 83 643 78 638 z m 74 615 l 154 663 b 146 657 151 660 149 658 b 74 601 106 626 85 611 z m 74 585 l 165 639 l 74 561 z m 74 547 b 136 582 81 551 97 560 b 74 536 101 560 83 544 z m 74 519 l 226 607 l 74 501 z m 74 482 l 74 490 l 282 611 b 85 479 225 571 146 519 z m 111 469 l 103 472 b 133 488 111 476 121 482 b 111 469 121 479 115 474 z m 125 465 b 408 633 221 525 361 611 b 290 554 388 617 343 588 b 142 461 232 518 172 481 z m 207 451 b 201 442 204 447 201 443 l 182 447 b 214 467 193 454 204 461 b 207 451 211 461 208 457 z m 294 535 b 231 492 271 529 249 514 l 171 451 l 153 457 b 301 549 215 494 264 525 b 407 610 343 574 381 596 z m 335 535 b 328 536 332 536 331 536 b 357 553 336 542 346 547 b 335 535 346 546 339 539 z m 350 531 b 469 603 400 565 453 597 b 406 553 461 592 426 568 b 365 524 383 538 372 529 b 350 531 361 526 356 528 z m 376 517 l 450 558 l 389 506 b 376 517 385 510 381 513 z m 396 499 l 472 542 l 407 485 b 396 499 404 489 400 493 z m 414 474 b 471 508 422 478 439 488 b 517 538 486 518 504 531 b 431 463 504 524 475 499 b 424 457 428 460 425 458 b 414 474 421 463 417 468 z m 428 447 l 500 489 b 433 431 463 458 443 442 b 428 447 432 436 429 442 z m 300 200 b 311 199 304 199 308 199 b 268 174 300 192 286 185 b 300 200 286 186 296 194 z m 281 206 b 210 163 267 199 244 185 b 200 157 207 161 204 158 b 271 210 221 172 247 192 b 281 206 274 208 278 207 z m 251 222 b 261 215 254 221 258 218 l 213 188 b 251 222 235 206 246 215 z m 240 233 b 211 214 235 229 225 224 b 154 178 196 204 172 189 l 232 243 b 240 233 235 239 238 236 z m 215 267 b 224 254 218 261 221 257 b 149 208 211 249 189 235 b 128 194 142 204 135 199 b 215 267 147 213 181 240 z m 203 288 b 207 282 204 286 206 285 b 210 275 208 281 210 278 l 138 233 b 203 288 157 250 182 271 z m 90 256 b 85 239 88 249 86 243 b 83 242 83 240 83 240 b 83 251 82 244 82 247 b 85 253 85 251 85 251 b 92 256 88 253 89 254 b 90 256 92 256 92 256 z m 100 251 b 104 263 101 257 103 260 l 179 286 b 158 274 174 283 168 279 b 92 233 138 261 106 240 b 100 251 94 239 97 247 z m 92 222 b 151 257 100 226 117 236 b 97 211 118 231 104 218 b 92 222 96 215 94 219 z m 103 201 l 161 236 b 110 189 131 211 117 197 b 103 201 108 193 104 197 z m 118 178 b 154 200 124 181 133 188 b 204 232 169 210 189 222 l 125 167 b 118 178 122 171 121 174 z m 133 157 b 215 206 146 161 169 176 b 232 217 221 210 228 214 b 143 147 214 200 178 172 b 133 157 139 150 136 154 z m 157 132 b 149 139 154 135 151 138 l 203 171 b 157 132 175 149 163 139 z m 167 125 b 215 154 174 128 188 136 b 285 197 236 168 267 188 b 224 154 269 186 243 168 b 174 118 193 135 179 125 b 167 125 171 121 168 122 z m 193 106 b 183 111 190 107 186 110 b 306 185 221 135 269 164 b 275 164 296 178 285 171 b 193 106 219 126 200 113 z m 281 156 b 353 206 325 186 344 199 b 415 264 378 217 399 238 b 572 357 469 297 551 347 b 569 321 572 344 571 332 b 569 321 569 321 569 321 b 393 211 568 321 479 267 b 306 153 357 188 328 168 b 203 101 253 122 215 103 b 281 156 214 111 251 136 z m 225 88 b 210 94 219 90 214 92 b 249 111 219 97 232 103 b 225 88 235 100 228 93 z m 239 82 b 551 269 344 150 503 250 b 268 74 510 238 367 140 b 239 82 258 76 249 79 z m 289 71 b 400 140 310 81 344 103 b 535 224 447 172 511 214 b 381 119 510 204 431 153 b 306 69 332 88 314 75 b 289 71 300 69 294 69 z "},"6":{"ha":754,"x_min":0,"x_max":0,"o":"m 436 774 b 315 719 399 771 353 763 b 350 721 326 721 338 721 b 379 719 360 721 369 721 b 472 749 410 740 443 746 b 524 801 501 750 524 774 l 524 906 b 481 957 524 932 506 951 b 488 931 485 950 488 940 l 488 826 b 436 774 488 799 465 775 z m 385 485 b 421 476 397 485 410 481 b 350 510 401 497 376 510 b 239 372 289 510 239 447 b 314 243 239 311 271 261 b 275 347 290 268 275 306 b 385 485 275 422 325 485 z m 540 653 b 671 372 619 589 671 488 b 350 24 671 179 526 24 b 194 67 293 24 240 39 b 385 -3 249 24 314 -3 b 707 347 563 -3 707 154 b 540 653 707 479 640 593 z m 644 372 b 350 694 644 550 513 694 b 258 679 319 694 289 689 b 435 800 306 781 382 797 b 461 826 450 800 461 813 l 461 931 b 453 951 461 939 458 946 b 433 958 447 956 440 958 b 54 394 261 951 54 847 l 56 389 b 54 372 54 383 54 378 b 350 50 54 194 186 50 b 644 372 513 50 644 194 z m 378 69 l 376 68 b 375 65 375 67 375 67 b 363 65 371 65 367 65 b 388 76 371 68 378 72 b 378 69 383 74 381 71 z m 467 96 b 467 96 467 96 467 96 b 465 92 465 93 465 92 b 396 68 443 81 419 74 l 517 139 b 467 96 485 113 472 101 z m 506 115 b 506 115 506 115 506 115 b 504 115 504 115 504 115 b 533 139 514 124 524 131 b 506 115 524 131 515 122 z m 567 176 b 564 176 565 176 564 176 l 460 117 b 544 175 486 135 515 156 b 583 201 560 185 574 194 b 567 176 578 193 572 185 z m 611 260 b 610 260 611 260 611 260 b 572 246 606 261 592 256 b 618 282 596 263 610 274 b 611 260 615 274 614 267 z m 624 303 b 272 90 482 210 326 114 l 626 319 b 624 303 625 314 624 308 z m 628 332 b 626 331 628 332 628 332 b 238 101 497 249 292 124 b 301 149 253 113 281 133 b 363 196 342 178 357 189 b 439 229 390 199 417 210 l 629 339 b 628 332 629 336 628 333 z m 226 475 b 217 457 224 469 221 463 b 149 418 210 453 192 443 z m 82 400 b 181 458 103 413 142 436 b 82 400 140 432 103 410 z m 200 349 b 126 306 190 344 171 333 b 106 292 119 300 113 296 b 199 369 128 311 164 342 b 200 349 199 363 200 356 z m 142 349 b 200 396 172 372 190 386 b 199 382 200 392 200 388 z m 201 335 b 206 322 203 331 204 326 b 151 290 197 319 183 310 b 131 276 144 286 138 281 b 201 335 151 293 179 317 z m 129 372 b 208 435 171 404 194 424 b 203 415 207 428 204 421 z m 208 310 b 215 293 210 304 213 299 b 143 253 200 288 172 271 b 208 310 164 271 188 293 z m 238 254 b 250 239 242 249 246 243 b 167 189 239 233 215 219 b 238 254 188 208 215 235 z m 231 261 b 139 207 183 233 156 217 b 221 282 160 226 194 258 b 232 263 224 275 228 268 b 231 261 231 263 231 263 z m 260 229 b 274 219 264 226 268 222 l 182 167 b 250 222 204 185 236 211 b 260 229 254 225 257 228 z m 213 372 b 350 536 213 463 274 536 b 486 372 425 536 486 463 b 350 208 486 282 425 208 b 213 372 274 208 213 282 z m 333 196 b 264 151 319 188 297 174 b 321 197 297 178 314 190 b 333 196 325 196 329 196 z m 306 203 b 232 158 292 196 269 182 b 285 211 267 189 279 203 b 306 203 292 208 299 206 z m 500 375 b 499 394 500 382 500 388 b 597 454 529 414 572 439 b 500 375 576 435 538 404 z m 542 388 b 613 431 564 400 594 421 b 497 335 593 411 544 372 b 500 361 499 343 499 351 b 542 388 506 364 515 369 z m 497 408 b 493 428 496 415 494 421 b 578 481 522 447 556 467 b 497 408 532 440 508 419 z m 563 358 b 582 369 569 363 576 367 b 488 300 554 349 518 322 b 493 319 490 306 492 313 b 563 358 503 324 521 335 z m 490 438 b 486 447 489 440 488 444 b 547 481 499 451 522 465 b 490 438 531 467 510 453 z m 463 489 b 449 506 458 494 454 500 b 526 550 460 511 482 524 b 463 489 488 514 471 497 z m 503 497 b 572 539 524 511 556 531 b 481 458 558 524 519 489 b 471 478 478 465 475 472 b 503 497 476 481 486 486 z m 421 529 b 410 536 417 531 414 533 b 432 550 414 539 421 543 b 518 603 454 565 497 592 b 458 557 504 590 476 571 b 421 529 438 542 426 533 z m 514 571 b 442 513 494 554 468 532 b 431 522 438 515 435 519 z m 397 540 b 382 546 392 543 388 544 b 436 581 393 553 410 564 b 488 614 453 592 472 606 b 444 579 475 604 458 590 b 397 540 415 557 403 546 z m 340 550 l 413 592 b 361 549 381 567 367 556 b 350 550 357 550 353 550 b 340 550 346 550 343 550 z m 525 304 l 469 264 b 478 281 472 269 475 275 b 525 304 488 283 504 292 z m 629 350 b 629 350 629 350 629 350 l 507 279 l 631 368 b 629 350 631 363 631 356 z m 631 379 b 524 315 599 360 557 335 b 629 396 592 364 619 385 b 631 379 629 390 631 385 z m 629 408 b 542 357 601 393 569 374 b 625 431 594 400 617 419 b 629 408 626 424 628 415 z m 618 461 b 622 444 619 456 621 450 b 560 410 614 443 597 433 b 618 461 596 438 611 453 z m 615 474 b 526 422 607 469 586 460 b 599 486 543 438 568 460 b 608 493 603 489 606 492 b 615 474 610 486 613 479 z m 600 513 b 603 503 601 510 603 507 b 574 489 597 501 588 497 b 600 513 588 500 596 507 z m 594 522 b 510 469 565 503 533 482 b 585 540 561 511 579 531 b 594 522 588 535 592 529 z m 564 571 b 578 551 568 565 574 558 b 497 506 569 549 550 538 b 485 497 493 503 489 500 b 543 551 501 514 528 538 b 564 571 556 563 561 567 z m 549 589 b 557 579 551 586 554 582 b 494 542 539 567 515 554 b 549 589 529 569 543 582 z m 533 606 b 542 597 536 603 539 600 l 481 561 b 533 606 514 586 528 599 z m 511 624 b 522 615 515 621 519 618 b 457 578 511 611 493 600 b 511 624 493 606 507 618 z m 500 632 b 431 589 489 628 469 614 b 392 564 418 581 404 571 b 493 636 419 585 461 615 b 500 632 496 635 497 633 z m 469 650 b 469 650 469 650 469 650 b 483 643 475 647 479 646 l 439 617 b 469 650 456 631 468 642 z m 458 657 b 74 428 292 546 107 433 b 438 664 104 454 304 581 b 458 657 444 663 451 660 z m 411 671 b 411 672 411 671 411 672 b 417 671 414 672 415 671 b 410 668 415 669 413 669 b 411 671 411 669 411 671 z m 364 679 b 396 675 375 679 386 678 b 133 519 313 625 201 558 b 167 540 144 526 156 533 b 364 679 300 619 361 660 z m 394 664 b 388 657 393 661 390 660 b 349 636 376 651 364 644 b 394 664 365 646 381 656 z m 308 611 b 239 567 288 599 264 583 b 210 551 228 561 218 556 b 165 526 193 542 178 535 b 308 611 207 551 258 582 z m 306 675 b 344 679 318 678 331 679 l 211 603 b 306 675 275 643 303 664 z m 264 664 b 185 618 246 654 221 639 b 138 590 168 608 151 600 l 239 668 b 239 668 239 668 239 668 l 232 653 l 249 660 b 264 664 253 661 258 663 z m 250 692 b 190 664 239 690 217 679 b 207 675 196 667 201 671 b 261 713 232 692 249 704 b 250 692 257 706 253 699 z m 428 814 b 397 810 418 813 407 811 b 419 824 404 814 411 818 b 439 835 426 826 433 831 b 428 814 432 822 429 817 z m 447 826 b 446 822 447 825 446 824 l 443 821 b 447 829 444 824 446 826 z m 447 850 b 415 831 442 847 432 842 b 360 799 397 821 374 807 b 279 739 328 786 301 767 b 279 739 279 739 279 739 b 101 636 219 704 133 654 b 447 864 138 671 296 774 z m 447 875 b 446 874 446 875 446 875 b 239 756 431 867 386 842 b 447 900 379 849 429 885 z m 447 931 l 447 915 b 346 868 433 917 396 899 b 446 935 385 894 419 918 b 447 931 446 933 447 932 z m 435 944 b 439 942 436 944 438 943 b 160 772 328 869 207 794 l 274 850 b 365 913 307 872 340 896 b 407 942 392 931 403 938 b 435 944 417 943 425 943 z m 313 919 b 369 936 331 926 350 932 b 215 844 329 915 264 875 b 244 865 225 851 236 858 b 313 919 293 900 310 913 z m 233 874 b 264 890 236 874 242 876 b 239 872 256 885 247 878 b 206 849 225 864 215 856 b 233 874 214 858 224 867 z m 167 803 b 169 803 167 803 168 803 b 363 922 228 840 313 894 b 151 779 310 886 217 822 b 167 803 156 788 161 796 z m 139 757 b 228 799 150 757 185 774 b 125 728 168 757 139 738 b 139 757 129 738 135 747 z m 118 711 b 201 764 124 713 136 719 b 442 907 271 810 411 901 b 107 679 410 881 233 763 b 118 711 111 690 114 701 z m 103 665 b 222 735 132 682 176 708 b 97 644 149 688 114 660 b 103 665 99 651 100 658 z m 90 621 b 188 675 99 624 121 636 b 199 681 192 676 196 679 b 88 600 132 636 101 614 b 90 621 89 607 89 614 z m 83 582 b 85 582 83 582 85 582 b 235 678 142 624 206 664 l 79 558 b 83 582 81 567 82 575 z m 78 544 b 286 667 149 586 247 644 b 156 581 261 644 197 606 b 76 529 110 551 88 538 b 78 544 76 535 76 540 z m 75 513 l 350 672 b 163 547 326 646 221 583 b 72 492 108 515 83 500 b 75 513 74 499 74 506 z m 71 478 b 128 506 78 479 99 489 b 71 468 99 489 81 476 b 71 478 71 471 71 475 z m 71 451 b 185 521 79 454 101 468 b 243 558 201 532 222 546 b 392 650 313 597 365 628 b 411 658 399 653 406 657 b 69 435 165 506 92 454 b 71 451 69 440 69 446 z m 69 418 b 69 418 69 418 69 418 b 456 643 113 418 388 599 b 304 542 436 622 371 581 b 261 515 289 535 274 526 b 185 472 232 499 206 483 b 68 401 115 432 82 413 b 69 418 68 408 69 413 z m 68 372 b 69 386 68 376 69 382 b 124 411 79 388 100 397 l 68 371 b 68 372 68 371 68 372 z m 69 360 b 186 428 104 381 153 410 b 71 339 154 404 107 367 b 69 360 69 346 69 353 z m 72 328 l 176 388 b 74 311 147 365 106 333 b 72 328 74 317 72 322 z m 76 300 l 151 344 b 81 281 107 307 89 290 b 76 300 79 288 78 294 z m 85 269 b 132 297 90 271 101 278 b 169 321 143 304 157 313 b 90 254 118 279 97 263 b 85 269 89 260 86 264 z m 101 228 b 94 244 99 233 96 239 b 157 282 101 247 117 257 b 175 293 163 286 169 290 b 101 228 129 254 110 236 z m 107 218 b 199 275 140 240 176 263 b 118 199 144 226 125 207 b 107 218 114 204 110 211 z m 124 189 b 197 231 132 192 150 201 b 136 172 158 194 143 179 b 124 189 132 178 128 183 z m 153 153 b 143 164 150 156 147 160 b 161 175 147 165 151 168 b 224 213 175 183 201 200 b 153 153 176 176 160 160 z m 161 143 l 267 204 b 179 128 250 186 214 156 b 161 143 174 132 168 138 z m 189 121 b 229 146 194 124 206 131 b 285 179 244 156 265 168 b 199 113 258 160 225 133 b 189 121 194 115 192 118 z m 222 99 b 208 106 217 100 213 103 b 268 143 218 111 235 121 b 335 185 289 157 315 174 b 296 157 324 176 310 167 b 222 99 244 118 226 106 z m 247 86 b 236 90 243 88 239 89 b 332 140 253 97 289 117 l 247 86 b 247 86 247 86 247 86 z m 288 72 b 265 79 279 74 272 76 b 579 264 318 96 492 207 b 468 188 551 243 511 215 b 288 72 393 142 314 89 b 288 72 288 72 288 72 z m 325 65 b 300 69 317 67 308 68 b 464 174 322 83 394 128 b 471 178 467 175 469 176 b 603 250 535 217 585 244 b 486 176 588 236 532 203 b 325 65 371 108 328 81 z m 335 65 b 490 168 342 79 431 132 b 601 236 553 204 585 224 b 593 221 599 231 596 225 b 529 176 569 204 549 189 b 336 65 439 115 354 65 b 335 65 336 65 335 65 z "},"7":{"ha":582,"x_min":0,"x_max":0,"o":"m 254 675 b 265 700 258 682 261 692 l 64 700 b 53 701 60 700 57 701 b 99 675 63 686 79 675 z m 518 886 l 518 736 l 507 714 b 281 88 447 596 292 254 b 228 36 279 58 256 36 l 122 36 b 113 39 119 36 117 38 b 119 28 115 35 117 32 b 158 11 129 18 143 11 l 263 11 b 317 61 290 11 314 33 b 543 689 328 228 483 571 l 554 711 l 554 886 z m 228 63 b 254 89 242 63 253 74 b 483 726 265 260 424 607 l 490 742 l 492 885 l 64 885 b 36 857 49 885 36 872 l 36 753 b 64 726 36 739 49 726 l 307 726 b 96 92 243 590 106 279 b 103 72 94 83 97 76 b 122 63 108 67 115 63 z m 129 78 b 240 147 172 107 217 136 b 172 78 194 104 178 86 z m 222 78 l 199 78 b 224 93 206 82 213 86 b 236 101 228 96 232 99 b 222 78 228 89 225 82 z m 238 83 l 236 83 b 239 89 236 85 238 88 b 238 83 239 86 238 85 z m 243 117 b 218 101 239 115 231 110 b 188 82 208 96 196 88 b 246 140 199 94 222 118 b 243 117 244 132 244 125 z m 250 160 b 204 138 240 158 224 150 b 254 179 229 157 244 171 b 250 160 253 172 251 167 z m 260 199 b 126 115 208 164 154 129 b 161 139 136 122 149 131 b 264 214 214 176 246 199 b 260 199 263 208 260 203 z m 271 242 b 193 196 261 239 239 225 b 203 203 196 199 200 200 b 274 251 240 228 261 243 b 271 242 272 249 272 244 z m 279 271 b 249 251 275 268 267 263 b 154 193 226 238 185 211 l 288 294 b 279 271 285 286 282 278 z m 293 311 l 203 258 b 301 335 256 297 285 321 b 293 311 299 326 296 319 z m 310 361 b 294 356 307 360 301 358 b 314 371 303 361 308 367 b 310 361 313 368 311 364 z m 326 403 b 258 361 318 400 301 389 b 157 297 228 340 178 307 b 335 424 182 319 269 381 b 326 403 332 417 329 410 z m 342 442 b 197 360 321 436 251 394 b 353 469 236 390 301 435 b 342 442 349 461 344 451 z m 358 486 l 208 399 b 342 490 242 424 294 460 b 368 507 351 496 360 501 b 358 486 365 500 363 493 z m 393 568 b 242 475 347 539 283 499 b 401 583 283 504 347 547 b 393 568 399 578 396 574 z m 429 647 b 415 643 426 646 421 646 b 433 656 422 647 428 651 b 429 647 432 653 431 650 z m 449 689 l 344 629 l 457 707 b 449 689 454 701 451 694 z m 478 746 l 471 732 b 467 725 469 731 468 728 l 357 661 b 478 753 431 713 463 739 z m 478 771 b 385 714 464 768 436 750 b 307 663 361 697 329 675 l 478 789 z m 478 803 b 451 792 471 801 463 799 b 478 814 464 801 472 808 z m 318 711 b 315 710 317 710 315 710 b 325 731 318 717 322 724 l 326 733 b 464 815 356 746 419 786 b 318 711 444 797 403 767 z m 478 835 b 354 758 433 806 386 776 b 367 767 358 761 363 764 b 478 849 433 815 464 838 z m 469 871 l 478 871 l 478 865 b 456 857 472 864 465 861 b 469 871 463 863 468 867 z m 446 871 b 293 779 397 840 339 806 b 415 871 375 838 406 860 z m 357 871 l 389 871 b 304 817 372 860 346 843 b 224 767 278 801 249 782 b 357 871 318 833 349 858 z m 311 871 l 335 871 l 263 828 b 311 871 294 851 307 864 z m 279 871 b 229 843 265 864 249 854 b 265 871 250 857 261 865 z m 238 871 b 158 821 221 861 196 844 b 101 783 140 808 119 796 l 221 871 z m 197 871 b 85 804 174 858 136 836 b 174 871 108 824 142 847 z m 154 871 l 67 821 b 121 871 81 833 101 853 z m 61 858 b 68 871 64 864 67 868 l 97 871 b 54 844 88 865 74 857 b 61 858 57 849 60 854 z m 53 864 b 54 864 53 864 53 864 b 53 863 53 864 53 864 b 51 860 53 861 51 861 b 53 864 51 861 53 863 z m 50 831 b 90 856 64 839 78 849 b 50 817 71 838 58 825 z m 50 800 l 99 828 b 50 789 74 808 58 796 z m 50 772 b 165 842 85 793 129 821 l 50 760 z m 63 740 b 53 747 58 740 56 743 b 164 813 67 751 97 769 b 229 854 185 826 210 843 b 131 788 201 835 161 807 b 63 740 88 758 69 747 z m 81 740 b 300 869 158 789 268 856 b 110 740 278 849 192 792 z m 129 740 l 328 856 b 169 740 293 828 231 782 z m 199 740 b 308 808 219 753 254 774 b 379 854 332 824 358 840 b 221 740 339 824 269 775 z m 263 740 l 243 740 b 347 800 261 750 292 767 b 263 740 293 767 269 750 z m 283 740 b 468 853 358 790 436 839 b 361 775 444 835 394 799 b 314 740 333 756 319 746 z m 307 692 b 451 782 360 728 418 764 l 294 665 b 307 692 299 675 303 683 z m 285 643 b 390 706 299 644 329 664 b 472 760 418 726 454 751 b 272 614 444 735 344 664 b 285 643 276 624 281 633 z m 264 597 l 372 658 l 257 579 b 264 597 260 585 263 592 z m 250 563 l 439 672 b 318 592 415 651 358 617 b 242 543 279 568 256 553 b 250 563 244 549 247 556 z m 232 519 b 260 535 236 521 243 525 b 228 510 247 526 236 518 b 232 519 229 513 231 515 z m 221 490 b 421 628 240 514 329 574 b 408 600 417 619 413 610 b 389 588 404 599 400 594 b 218 486 293 525 236 492 b 221 490 219 488 219 489 z m 214 476 b 236 483 219 476 225 478 b 210 464 225 475 217 469 b 214 476 211 468 213 472 z m 203 446 b 303 500 218 450 258 474 b 290 492 299 497 294 494 b 196 428 240 460 213 440 b 203 446 199 433 200 439 z m 296 483 b 383 543 340 513 367 531 b 374 522 381 536 378 529 b 331 494 358 513 344 503 b 193 414 272 457 215 424 b 296 483 211 428 258 460 z m 188 403 b 207 410 192 403 199 406 b 182 390 197 401 189 396 b 188 403 183 394 186 399 z m 175 368 l 258 417 b 168 349 210 382 183 361 b 175 368 171 356 172 363 z m 161 325 b 288 404 206 354 251 383 b 156 308 211 351 174 324 b 161 325 157 314 158 319 z m 149 285 b 264 353 163 286 196 307 b 319 389 285 367 307 381 b 142 261 296 365 218 311 b 149 285 144 269 146 278 z m 138 247 b 196 283 143 249 157 257 b 303 349 229 306 282 339 b 131 219 279 326 193 264 b 138 247 133 228 135 238 z m 128 204 l 236 267 l 122 181 b 128 204 124 189 125 197 z m 119 165 b 168 190 126 167 140 175 b 118 154 142 172 126 161 b 119 165 118 158 118 161 z m 115 138 b 189 182 122 140 139 150 b 267 229 215 199 250 221 b 156 147 247 211 189 171 b 113 117 133 132 121 122 b 115 138 113 124 114 131 z m 113 82 b 110 90 111 83 110 88 b 111 100 110 93 111 96 b 203 150 126 101 167 126 b 154 111 186 136 168 122 b 115 81 132 94 121 85 b 113 82 115 81 114 81 z "},"8":{"ha":718,"x_min":0,"x_max":0,"o":"m 282 675 b 322 631 282 651 300 633 b 318 650 319 636 318 643 b 363 694 318 674 338 694 b 368 693 364 694 365 693 b 326 719 360 708 344 719 b 282 675 301 719 282 700 z m 235 326 b 294 242 235 288 260 254 b 271 301 279 257 271 278 b 363 393 271 351 313 393 b 396 386 374 393 385 390 b 326 418 379 406 354 418 b 235 326 276 418 235 376 z m 579 514 b 619 650 606 554 619 601 b 490 871 619 744 567 826 b 583 675 547 824 583 754 b 543 539 583 626 569 579 b 631 326 599 482 631 407 b 326 24 631 160 494 24 b 169 68 269 24 215 40 b 363 -3 222 24 289 -3 b 665 301 531 -3 665 133 b 579 514 665 381 635 457 z m 604 326 b 508 535 604 407 569 482 b 557 675 540 576 557 625 b 326 904 557 801 454 904 b 97 675 200 904 97 801 b 146 535 97 625 114 576 b 50 326 85 482 50 407 b 326 50 50 174 174 50 b 604 326 479 50 604 174 z m 392 74 b 390 72 392 74 392 72 b 349 65 376 68 363 67 b 528 176 418 113 493 158 b 394 76 436 110 404 86 l 392 75 z m 426 83 l 485 118 b 426 83 467 104 447 93 z m 514 142 b 510 143 513 143 511 143 l 461 114 b 538 171 485 132 513 153 b 514 142 531 161 522 151 z m 551 192 b 551 193 551 192 551 193 b 549 193 550 193 550 193 b 350 78 525 193 404 114 b 568 224 385 108 476 168 b 551 192 564 213 558 201 z m 574 238 b 572 238 574 238 574 238 l 303 82 b 451 178 331 104 401 147 b 581 261 528 224 565 247 b 574 238 579 253 576 244 z m 585 281 b 250 88 578 278 539 257 b 510 260 283 122 433 214 b 589 310 556 288 578 301 b 585 281 588 299 586 290 z m 589 326 b 589 322 589 325 589 324 b 243 119 475 254 317 161 l 336 194 b 442 261 382 197 421 224 b 588 347 506 303 576 344 b 589 326 589 340 589 333 z m 460 328 l 528 368 b 458 311 490 338 469 321 b 460 326 458 317 460 321 b 460 328 460 326 460 328 z m 458 344 b 456 357 457 349 457 353 b 535 401 465 363 488 375 b 511 385 526 396 518 390 b 458 344 483 365 467 353 z m 497 317 b 453 285 476 303 463 292 b 456 294 453 288 454 292 b 497 317 463 297 476 304 z m 451 371 b 447 382 450 375 449 379 b 507 419 465 393 488 407 b 451 371 475 394 460 379 z m 442 392 b 435 403 440 394 438 399 l 501 440 b 465 411 489 431 476 419 b 442 392 453 401 446 396 z m 444 326 b 326 208 444 261 392 208 b 208 326 261 208 208 261 b 326 444 208 392 261 444 b 444 326 392 444 444 392 z m 372 450 b 431 488 383 457 401 468 b 461 507 440 493 450 500 l 386 444 b 372 450 382 447 376 449 z m 399 438 b 456 469 411 443 429 453 l 408 431 b 399 438 406 433 403 435 z m 419 421 b 472 456 429 426 446 438 b 483 464 476 458 479 461 b 428 413 449 436 433 421 b 419 421 425 415 422 418 z m 215 397 b 96 325 179 374 129 343 b 174 375 115 338 142 356 b 217 400 186 382 201 392 b 215 397 217 399 215 399 z m 201 367 b 200 365 201 367 201 365 b 197 364 200 365 199 364 b 201 367 199 365 200 365 z m 196 314 b 197 299 196 310 196 304 b 128 260 183 294 157 278 b 196 314 149 278 174 297 z m 194 328 b 136 292 186 326 171 315 b 82 258 118 281 94 264 b 153 311 94 271 128 294 b 196 344 174 326 188 338 b 194 328 196 339 194 333 z m 203 283 b 204 279 203 282 203 281 b 193 274 200 278 197 276 b 203 283 197 278 200 281 z m 208 268 b 215 254 211 264 213 258 b 131 206 206 249 183 236 b 208 268 150 222 179 246 z m 224 244 b 232 235 226 242 229 238 b 156 188 206 217 176 200 b 224 244 196 221 215 236 z m 240 228 b 250 219 243 225 246 222 b 169 174 238 214 215 201 b 240 228 189 189 214 208 z m 261 213 b 281 203 268 208 274 206 b 281 201 281 203 281 203 b 176 136 224 164 193 144 b 261 213 232 183 253 203 z m 294 199 b 315 194 301 197 308 196 b 231 146 300 188 275 172 b 294 199 272 178 289 190 z m 588 357 b 529 328 579 356 558 344 b 586 368 563 350 578 361 b 588 357 586 364 588 361 z m 583 381 b 482 319 547 358 508 335 b 579 396 508 340 549 372 b 583 381 581 392 582 386 z m 572 421 b 576 407 574 415 575 411 l 485 354 b 517 378 494 361 507 369 b 572 421 550 401 565 413 z m 567 432 b 469 375 536 414 494 390 b 560 447 489 393 525 421 b 567 432 563 442 564 438 z m 554 457 b 497 425 549 454 533 446 b 549 467 528 449 542 461 b 554 457 550 464 553 460 z m 543 475 l 449 421 b 532 490 468 439 500 465 b 543 475 536 485 539 481 z m 524 499 b 467 464 514 496 497 485 b 444 449 460 458 453 453 l 517 507 b 524 499 519 504 521 501 z m 510 514 b 418 458 476 493 442 472 l 497 525 b 510 514 501 522 506 518 z m 464 521 b 500 549 479 532 490 542 b 493 539 497 546 496 542 l 489 535 b 464 521 485 532 476 528 z m 356 456 b 326 460 346 458 336 460 b 317 458 324 460 321 458 b 515 576 403 514 492 568 b 356 456 501 558 428 504 z m 522 586 b 496 578 518 586 508 583 b 528 599 511 588 521 594 b 522 586 526 594 524 590 z m 533 615 b 471 575 529 614 517 606 b 390 522 450 561 421 542 b 325 482 369 508 347 494 b 257 439 300 465 278 451 b 251 435 256 438 253 436 b 167 382 218 414 190 397 b 72 339 124 358 89 342 l 540 643 b 533 615 539 633 536 625 z m 540 656 b 540 657 540 657 540 657 b 521 654 536 658 529 657 b 542 672 531 661 538 667 b 540 656 542 667 542 661 z m 540 690 b 121 449 514 679 372 599 b 325 589 172 486 261 547 b 326 589 325 589 326 589 b 400 632 358 589 386 606 b 539 711 451 661 525 704 b 540 690 540 704 540 697 z m 242 672 l 149 619 b 246 700 172 640 213 674 b 242 675 243 692 242 683 b 242 672 242 674 242 674 z m 243 656 b 250 638 244 650 247 644 b 160 582 217 615 181 593 b 174 593 164 585 168 589 b 243 656 213 626 233 644 z m 254 629 b 260 622 256 626 258 624 b 219 600 250 618 235 610 z m 411 689 b 407 706 410 694 408 700 b 460 735 414 708 429 717 b 411 689 432 713 418 699 z m 490 718 b 410 651 447 683 422 664 b 413 672 411 658 413 665 b 490 718 436 686 465 704 z m 401 717 b 390 732 397 722 394 728 b 442 765 400 738 415 747 b 474 788 453 772 464 781 b 401 717 429 746 410 728 z m 399 675 b 326 603 399 635 367 603 b 256 675 288 603 256 635 b 271 719 256 692 261 707 b 314 744 285 728 300 736 b 326 746 318 746 322 746 b 399 675 367 746 399 714 z m 367 750 l 440 793 l 379 742 b 367 750 375 744 371 749 z m 244 604 b 161 539 204 572 178 551 b 156 546 158 542 157 544 b 244 604 188 568 222 592 z m 269 611 b 279 603 272 608 276 606 b 208 560 268 597 247 585 b 186 546 201 556 194 550 b 269 611 211 565 243 590 z m 292 596 b 306 592 296 594 301 593 b 206 535 288 582 253 564 z m 538 721 b 443 667 531 718 511 707 b 532 740 469 689 503 717 b 538 721 533 733 536 728 z m 528 750 b 426 692 518 746 494 733 b 519 771 446 711 483 742 b 528 750 522 764 525 757 z m 514 779 b 418 722 485 761 443 736 b 503 799 439 742 475 775 b 514 779 507 793 511 786 z m 494 810 b 438 774 485 806 468 794 b 415 760 431 769 422 764 l 486 819 b 494 810 489 815 492 813 z m 479 826 l 392 775 b 465 839 414 794 443 819 b 479 826 471 835 475 831 z m 354 756 b 338 760 349 757 343 758 b 442 833 382 788 422 815 b 447 836 444 833 446 835 b 354 756 388 785 363 765 z m 444 856 l 215 722 b 431 863 279 765 365 819 b 444 856 436 860 440 858 z m 410 874 b 418 869 413 872 415 871 b 393 856 413 867 404 863 b 410 874 403 863 408 868 z m 367 886 b 389 881 374 885 382 882 b 329 850 375 875 354 864 b 367 886 357 872 365 882 z m 326 890 b 326 890 326 890 326 890 b 349 889 335 890 340 889 b 296 854 339 883 324 872 b 138 757 253 825 171 769 b 157 768 143 760 150 764 b 326 890 286 849 322 876 z m 250 875 b 296 888 264 881 279 885 b 189 825 272 875 238 854 b 204 838 194 829 200 833 b 250 875 239 864 249 872 z m 192 842 b 193 842 192 842 193 842 l 200 846 b 199 844 200 846 199 844 b 169 822 188 835 178 828 b 192 842 176 829 183 835 z m 143 786 b 144 786 143 786 144 786 b 313 886 199 819 285 872 b 151 776 290 863 192 801 b 131 763 143 771 136 765 b 143 786 133 771 139 778 z m 124 744 b 300 846 143 742 213 786 b 344 875 317 856 332 867 b 197 771 319 853 263 813 b 115 718 163 747 132 728 b 124 744 118 726 121 736 z m 114 706 b 115 706 114 706 115 706 b 194 757 115 706 150 728 b 400 875 283 813 381 872 b 256 785 394 860 311 815 b 114 700 183 746 135 718 b 114 706 114 701 114 704 z m 260 776 b 349 826 296 796 325 813 b 308 799 338 818 324 810 b 113 683 240 753 126 675 b 260 776 111 696 201 744 z m 111 675 b 133 679 117 674 124 675 b 113 664 122 672 117 667 b 111 675 113 667 111 671 z m 113 653 l 367 799 b 304 757 342 783 319 768 b 254 721 283 751 265 739 b 185 679 246 719 226 707 b 185 679 185 679 185 679 b 114 639 161 665 138 651 b 113 653 114 643 114 647 z m 117 628 b 190 671 126 629 147 642 b 206 679 194 674 200 676 b 122 607 153 638 132 617 b 117 628 121 614 118 621 z m 128 596 l 228 654 b 168 601 213 639 185 615 b 138 575 150 586 142 579 b 128 596 133 582 131 589 z m 143 564 b 192 590 153 567 171 576 l 150 554 b 143 564 147 558 146 561 z m 139 510 b 211 550 144 508 157 515 l 117 482 b 139 510 124 492 131 501 z m 101 461 b 103 461 103 461 103 461 b 238 542 142 486 193 517 b 88 435 147 482 107 451 b 101 461 92 444 97 453 z m 79 414 b 81 414 81 414 81 414 b 536 679 244 511 488 654 b 467 629 528 668 501 651 b 321 543 428 608 378 578 b 288 524 310 536 299 531 b 74 392 175 460 99 415 b 79 414 75 399 76 407 z m 133 422 b 99 400 121 414 108 407 b 133 422 108 407 121 414 z m 68 371 b 157 426 72 372 86 381 b 326 535 199 454 263 496 b 476 624 388 571 439 600 b 531 647 501 638 519 646 l 65 346 b 68 371 67 354 67 363 z m 64 326 b 65 331 64 328 65 329 b 65 331 65 331 65 331 b 97 338 72 329 83 332 b 65 313 81 325 71 318 b 64 326 65 318 64 322 z m 65 300 b 189 369 79 303 135 335 b 68 288 160 347 114 317 b 65 300 67 292 67 296 z m 72 261 b 69 276 72 267 71 272 b 138 317 75 278 90 286 b 174 339 149 324 161 332 b 146 319 165 332 156 326 b 72 261 104 289 82 272 z m 78 246 b 140 285 86 247 103 258 b 146 288 143 285 144 286 b 82 232 106 256 89 240 b 78 246 81 236 79 242 z m 86 222 b 194 288 128 250 174 278 b 92 213 178 272 133 240 b 86 222 89 215 88 218 z m 96 203 b 171 250 121 221 149 238 b 103 190 126 215 108 199 b 96 203 100 194 97 199 z m 108 181 b 192 229 135 196 167 215 b 118 169 169 211 140 188 b 108 181 114 172 111 176 z m 132 151 b 125 160 129 154 126 157 b 164 182 131 163 142 168 b 132 151 144 165 136 156 z m 139 143 b 239 203 169 163 213 189 b 154 129 217 183 181 151 b 139 143 149 135 144 139 z m 164 121 b 224 153 175 124 194 135 b 174 114 193 129 179 119 b 164 121 171 117 168 118 z m 200 97 b 183 107 194 100 189 104 b 290 169 217 126 258 151 l 200 97 b 200 97 200 97 200 97 z m 235 81 b 210 92 226 85 218 88 b 329 158 222 97 251 113 b 235 81 267 117 240 94 z m 282 68 b 249 76 271 71 260 72 b 557 254 354 138 496 219 b 446 185 531 236 485 208 b 282 68 326 113 282 83 z m 390 121 b 329 64 357 97 332 76 b 326 64 328 64 328 64 b 296 67 317 64 306 65 z "},"9":{"ha":747,"x_min":0,"x_max":0,"o":"m 225 636 b 300 507 225 576 257 525 b 261 611 276 532 261 569 b 371 749 261 686 311 749 b 407 740 383 749 396 746 b 336 774 388 761 363 774 b 225 636 275 774 225 713 z m 693 611 b 526 917 693 743 625 857 b 657 636 606 853 657 751 b 657 625 657 632 657 628 l 657 614 b 253 24 657 140 438 32 l 250 24 b 242 25 247 24 244 25 b 286 -1 250 10 267 -1 l 289 -1 b 693 589 474 6 693 115 l 693 600 b 693 611 693 603 693 607 z m 369 289 b 336 288 358 288 347 288 b 181 331 279 288 226 303 b 342 264 226 293 282 269 b 369 289 351 271 361 279 z m 251 50 b 631 614 425 57 631 161 l 631 619 b 631 636 631 625 631 631 b 336 958 631 814 499 958 b 40 636 172 958 40 814 b 336 314 40 458 172 314 b 426 329 367 314 397 319 b 250 208 379 228 304 211 b 224 182 235 208 224 196 l 224 78 b 232 57 224 69 226 63 b 250 50 238 53 243 50 b 251 50 251 50 251 50 z m 396 100 b 440 125 411 108 428 118 b 396 100 426 115 411 107 z m 475 154 b 393 110 472 154 465 151 b 438 140 407 119 424 129 b 503 186 468 160 489 175 b 475 154 494 175 485 164 z m 432 147 b 344 79 365 101 347 88 b 274 67 321 72 297 68 b 525 217 386 143 506 217 b 525 217 525 217 525 217 b 432 147 518 206 468 172 z m 531 224 b 529 225 531 224 531 225 b 526 225 529 225 528 225 b 271 76 493 225 332 118 b 543 246 306 107 425 181 b 531 224 539 238 535 231 z m 453 206 b 525 246 482 222 507 238 b 453 206 507 236 481 222 z m 551 263 b 531 258 547 264 540 263 b 560 279 544 268 553 274 b 551 263 557 274 554 268 z m 567 297 b 565 297 567 297 567 297 b 528 285 560 299 546 294 b 574 315 546 297 563 308 b 567 297 571 310 569 303 z m 579 331 b 579 331 579 331 579 331 b 351 186 476 267 403 219 b 250 132 306 160 269 139 b 339 185 268 143 303 164 b 582 340 483 271 554 315 b 579 331 581 336 579 333 z m 597 401 b 596 401 597 401 597 401 b 500 346 574 389 536 367 b 601 424 560 389 588 413 b 597 401 600 417 599 410 z m 432 310 b 446 339 438 319 442 329 b 565 417 497 371 538 396 b 597 433 582 426 592 431 b 432 310 576 413 494 354 z m 604 443 b 599 443 603 443 601 443 b 606 449 601 446 604 447 b 604 443 606 447 604 446 z m 608 471 b 489 406 592 467 542 438 b 551 447 511 421 535 436 b 610 486 585 468 601 479 b 608 471 610 481 608 476 z m 611 500 b 461 413 600 497 565 476 b 343 340 419 386 371 357 b 574 500 390 378 519 464 b 614 526 596 514 607 521 b 611 500 613 517 613 508 z m 615 571 l 549 533 b 615 582 588 558 606 572 b 615 571 615 578 615 575 z m 617 601 b 614 601 615 601 615 601 b 436 504 592 601 528 564 b 453 526 443 511 449 518 b 474 539 457 528 463 531 b 617 622 506 558 596 617 b 615 618 615 621 615 619 l 615 614 l 617 607 b 617 601 617 606 617 604 z m 289 468 b 317 460 297 464 307 461 l 226 408 b 289 468 268 443 283 460 z m 188 419 b 256 485 232 457 250 475 b 275 472 263 481 269 476 b 188 419 244 453 211 433 z m 336 472 b 199 636 260 472 199 546 b 249 763 199 688 218 732 b 263 771 253 765 258 768 b 296 792 274 778 285 785 b 336 800 308 797 322 800 b 472 636 411 800 472 726 b 336 472 472 546 411 472 z m 376 465 b 357 451 369 461 364 457 b 224 367 303 417 247 381 b 272 406 235 378 256 393 b 335 458 314 436 331 450 b 336 458 335 458 336 458 b 376 465 350 458 364 461 z m 201 718 b 197 707 200 714 199 711 b 157 686 192 706 182 700 b 201 718 178 700 192 710 z m 121 679 b 208 736 146 696 176 715 b 121 679 179 715 147 696 z m 185 635 b 146 615 176 632 163 625 b 186 647 165 631 178 640 b 185 636 185 643 185 640 b 185 635 185 636 185 635 z m 186 621 b 188 601 186 614 186 607 l 93 546 b 186 621 114 565 150 593 z m 133 639 b 192 686 164 663 181 676 b 188 668 190 681 189 675 b 133 639 179 665 164 657 z m 190 590 b 194 576 192 585 193 581 b 113 525 165 557 135 539 z m 197 565 b 201 556 199 563 200 558 l 135 517 b 197 565 156 532 178 550 z m 207 543 b 214 532 210 540 211 536 b 165 503 206 528 192 519 b 115 471 150 492 129 478 b 168 513 128 482 151 500 b 207 543 189 529 200 538 z m 208 513 b 221 522 214 517 218 519 b 226 513 222 519 225 515 b 188 488 221 510 210 503 b 132 453 171 476 147 461 b 208 513 151 469 190 500 z m 189 467 b 236 504 217 488 229 497 b 243 496 238 501 240 499 b 186 464 231 490 208 478 b 189 467 188 464 188 465 z m 329 814 b 346 825 335 818 340 821 b 431 874 374 840 406 860 l 356 813 b 336 814 349 813 343 814 b 329 814 333 814 332 814 z m 375 807 b 450 854 390 815 414 831 b 453 856 451 854 451 856 b 442 847 449 853 446 850 b 388 803 407 821 392 810 b 375 807 383 804 379 806 z m 403 796 b 435 815 410 799 421 806 b 407 793 419 804 411 797 b 403 796 406 793 404 794 z m 486 638 b 581 696 521 658 556 682 b 485 618 556 675 517 643 b 486 636 486 624 486 629 b 486 638 486 636 486 638 z m 486 649 b 485 661 486 653 485 657 l 563 706 b 486 649 540 689 510 667 z m 575 654 b 479 585 550 635 514 610 b 483 601 481 590 483 596 b 575 654 493 607 517 619 z m 483 674 b 479 692 482 679 481 686 b 546 732 490 694 510 708 b 579 754 557 740 569 749 b 483 674 563 738 522 704 z m 599 643 b 465 546 574 622 519 583 b 476 571 469 554 474 563 b 599 643 514 594 569 628 z m 475 704 b 469 717 474 710 471 713 b 557 772 501 738 533 758 z m 464 729 b 456 743 461 735 458 739 b 528 788 482 760 507 775 b 464 729 489 757 472 740 z m 421 783 b 486 819 436 790 461 804 b 432 772 468 804 449 788 b 421 783 428 776 425 781 z m 439 765 b 514 808 449 771 469 782 l 450 751 b 439 765 447 756 443 761 z m 617 636 b 617 632 617 635 617 633 b 575 613 610 631 597 625 b 617 647 599 631 610 640 b 617 636 617 644 617 640 z m 615 663 b 569 639 611 661 600 656 b 614 675 596 657 608 668 b 615 663 615 671 615 667 z m 613 688 b 515 631 583 671 544 647 b 608 707 575 678 599 697 b 613 688 610 701 611 694 z m 604 728 b 606 718 604 725 606 722 b 574 703 600 717 589 711 b 604 728 590 715 599 724 z m 600 739 l 531 699 b 594 757 572 732 588 749 b 600 739 596 751 599 744 z m 589 769 b 542 740 582 768 571 760 b 501 714 531 733 515 722 l 583 782 b 589 769 585 778 586 774 z m 578 792 b 485 739 560 788 519 761 b 569 807 504 757 538 783 b 578 792 572 803 575 797 z m 563 817 b 496 779 551 813 526 799 l 553 831 b 563 817 557 826 560 821 z m 536 851 b 547 839 540 847 543 843 b 472 794 526 826 496 808 b 536 851 511 829 529 844 z m 522 867 b 529 860 524 864 526 861 b 421 793 488 832 442 804 b 469 826 432 803 454 817 b 522 867 501 849 517 860 z m 503 883 b 511 876 506 881 508 879 b 456 840 503 872 486 863 b 407 808 440 831 421 817 b 447 840 418 818 435 831 b 503 883 483 867 497 878 z m 493 892 b 446 863 486 889 474 881 b 383 822 428 850 403 833 l 479 901 b 493 892 483 897 488 894 z m 469 907 b 469 907 469 907 469 907 b 465 904 468 907 467 906 b 469 907 467 906 468 907 z m 447 919 b 457 914 450 917 454 915 b 338 849 438 906 392 881 l 446 918 b 447 919 447 918 447 919 z m 436 924 l 167 768 l 410 933 b 436 924 418 931 428 928 z m 361 943 b 390 939 371 942 381 940 b 274 874 368 929 329 907 b 361 943 340 921 357 936 z m 221 917 b 292 940 243 928 267 936 l 165 867 b 221 917 211 906 221 914 z m 181 893 b 181 893 181 893 181 893 b 181 893 181 893 181 893 b 151 868 172 885 161 876 b 181 893 160 876 169 885 z m 118 831 b 121 831 119 831 119 829 l 133 838 b 113 824 125 832 119 828 b 118 831 115 825 117 828 z m 235 890 b 314 943 299 928 313 938 b 336 944 321 943 328 944 b 342 944 338 944 339 944 b 107 807 301 925 201 865 b 235 890 136 831 197 868 z m 90 786 b 90 786 90 786 90 786 b 338 932 169 835 290 907 b 75 753 294 897 165 811 b 90 786 81 764 85 775 z m 71 739 b 147 785 75 739 88 747 b 372 919 207 821 315 889 l 63 708 b 71 739 65 719 68 729 z m 60 696 b 61 696 60 696 60 696 l 265 814 l 58 681 b 60 696 58 686 60 690 z m 57 669 b 57 669 57 669 57 669 b 419 885 175 742 339 840 b 340 832 399 871 371 853 b 300 808 328 825 314 817 b 226 758 271 800 246 783 b 56 649 168 721 108 682 b 57 669 56 656 56 663 z m 54 635 b 94 653 63 636 76 643 b 56 625 81 643 68 633 b 54 635 56 628 54 632 z m 56 614 b 108 644 61 615 72 622 b 176 686 129 657 157 674 b 58 593 149 663 96 621 b 56 614 57 600 56 607 z m 60 582 b 93 603 63 583 71 589 b 179 654 115 617 156 642 b 100 593 160 638 122 610 b 63 564 81 578 69 569 b 60 582 61 569 60 576 z m 65 553 b 157 611 99 575 133 597 b 71 536 100 567 78 547 b 65 553 68 542 67 547 z m 74 525 l 147 567 l 79 511 b 74 525 78 515 76 519 z m 83 500 b 131 525 93 503 110 513 b 89 490 107 506 94 496 b 83 500 86 493 85 497 z m 100 468 b 93 481 97 472 96 476 l 167 524 b 163 521 165 522 164 521 b 100 468 124 492 107 476 z m 114 449 b 108 457 111 451 110 454 b 157 485 115 460 129 467 b 114 449 131 464 118 454 z m 128 429 b 122 438 126 432 124 435 b 182 474 131 440 149 450 b 128 429 149 447 135 436 z m 136 421 b 247 488 181 449 228 479 b 153 403 235 472 193 435 b 136 421 147 408 142 414 z m 161 394 b 263 453 176 401 210 419 b 179 381 243 435 210 407 b 161 394 172 385 167 390 z m 206 363 b 188 375 200 367 194 371 l 306 443 b 265 413 293 433 278 422 b 206 363 226 383 211 371 z m 232 350 b 219 356 228 351 224 354 b 361 444 239 364 281 390 b 613 593 447 500 588 593 b 614 593 614 593 614 593 b 233 350 594 568 372 433 b 232 350 232 350 232 350 z m 243 346 l 528 510 b 268 338 454 461 349 390 b 243 346 260 340 251 343 z m 447 444 b 615 558 558 518 600 547 b 614 539 615 553 615 546 b 449 442 597 542 540 503 b 289 340 392 403 319 354 b 447 444 318 358 383 401 z m 318 329 b 293 332 308 329 300 331 b 453 433 322 344 376 381 b 589 521 499 464 556 503 b 569 507 582 517 576 513 b 318 329 367 374 324 342 z m 368 332 b 340 329 360 331 350 329 b 465 404 360 339 396 361 b 510 432 481 413 496 422 b 368 332 403 361 375 340 z m 393 336 b 604 460 469 383 575 447 b 558 424 597 453 581 439 b 453 356 536 411 503 389 l 438 349 b 393 336 422 343 408 339 z m 421 290 b 422 290 421 290 421 290 b 422 290 422 290 422 290 b 421 290 421 290 421 290 b 421 290 421 290 421 290 z m 403 265 b 594 390 446 296 521 344 b 590 374 593 383 592 379 l 401 264 b 403 265 403 265 403 265 z m 375 238 l 440 275 b 371 233 415 261 393 247 b 375 238 372 235 374 236 z m 257 194 b 339 215 288 197 315 204 b 243 163 294 189 258 169 b 257 194 251 181 256 190 z m 238 182 b 240 186 238 183 239 185 l 244 189 b 238 175 243 185 240 179 z m 238 151 b 575 346 274 163 469 281 b 333 193 535 311 407 236 b 238 136 276 160 250 144 z m 238 121 b 265 129 243 121 253 124 b 238 108 251 119 243 113 z m 238 96 b 557 289 374 188 524 281 b 410 190 539 275 479 235 b 332 140 385 175 360 158 b 238 81 300 119 268 99 z m 242 69 b 275 92 246 72 256 78 b 253 65 263 81 254 72 b 251 64 251 65 253 65 b 251 64 251 64 251 64 b 242 68 247 64 244 65 b 242 69 242 68 242 69 z "},"\u0000":{"ha":0,"x_min":0,"x_max":0,"o":""},"\n":{"ha":0,"x_min":0,"x_max":0,"o":""}," ":{"ha":336,"x_min":0,"x_max":0,"o":""},"!":{"ha":349,"x_min":0,"x_max":0,"o":"m 229 224 b 238 197 233 215 238 207 l 238 93 b 183 39 238 63 214 39 l 100 39 b 90 40 96 39 93 40 b 136 14 100 25 115 14 l 219 14 b 274 67 249 14 274 38 l 274 172 b 229 224 274 197 254 218 z m 240 954 b 247 928 244 946 247 938 l 247 378 b 194 324 247 349 224 324 l 90 324 b 79 326 86 324 83 325 b 125 299 89 310 106 299 l 229 299 b 283 353 260 299 283 324 l 283 901 b 240 954 283 928 264 949 z m 183 65 b 211 93 199 65 211 78 l 211 197 b 183 224 211 213 199 224 l 100 224 b 72 197 85 224 72 213 l 72 93 b 100 65 72 78 85 65 z m 174 79 l 133 79 b 192 115 156 94 179 108 b 174 79 181 96 175 86 z m 196 93 b 196 92 196 92 196 92 b 188 86 194 90 192 89 b 186 85 188 86 186 85 b 196 104 189 90 193 97 z m 196 128 b 147 100 190 125 176 118 l 163 115 b 196 151 179 133 190 143 z m 196 165 b 107 111 164 144 131 124 b 143 139 118 119 132 129 b 196 182 172 163 188 175 z m 189 207 b 196 199 193 206 196 203 b 147 171 188 196 174 188 b 189 207 174 190 185 201 z m 149 210 l 172 210 b 113 175 153 199 131 185 b 149 210 135 194 144 204 z m 94 192 b 104 210 100 201 101 206 l 124 210 b 94 192 117 206 107 200 b 94 192 94 192 94 192 z m 88 176 b 126 200 101 185 115 193 b 88 164 114 188 96 171 z m 88 150 b 153 188 94 153 111 163 b 88 136 133 171 108 151 z m 88 122 b 139 153 94 125 107 133 b 172 174 149 160 161 167 b 138 147 161 165 149 156 b 88 106 111 125 96 114 z m 88 90 b 169 138 103 96 136 115 b 114 79 153 119 131 96 l 100 79 b 88 90 93 79 89 85 z m 194 351 b 221 378 208 351 221 363 l 221 928 b 194 954 221 942 208 954 l 90 954 b 63 928 75 954 63 942 l 63 378 b 90 351 63 363 75 351 z m 131 365 b 200 407 158 382 185 399 b 175 365 186 383 178 371 z m 194 365 b 204 371 199 368 201 369 b 194 365 201 368 199 365 z m 207 383 b 192 375 204 382 199 379 b 207 399 196 382 201 390 z m 207 421 b 157 393 200 418 186 411 b 207 440 183 417 199 431 z m 207 458 b 164 432 201 454 190 447 b 104 394 147 421 124 406 l 207 476 z m 207 489 b 108 432 197 485 174 471 b 183 490 132 451 164 475 b 207 508 194 499 201 504 z m 207 521 b 101 458 175 501 131 475 b 207 538 129 481 172 513 z m 207 550 b 121 496 176 531 146 511 b 207 563 168 531 194 550 z m 207 582 b 144 544 200 579 183 569 b 117 528 136 539 126 533 b 151 553 129 536 142 544 b 207 592 182 572 197 583 z m 207 606 b 115 551 179 589 143 568 l 207 626 z m 207 640 b 158 610 200 638 188 629 b 86 564 136 594 104 572 b 207 654 108 582 165 625 z m 207 669 b 163 647 199 668 185 661 b 207 682 185 663 199 674 z m 207 700 b 104 642 197 696 172 682 b 207 714 129 661 168 689 z m 207 728 b 100 665 196 724 169 708 b 88 658 96 663 92 660 b 207 747 110 678 158 714 z m 207 760 b 150 729 200 757 185 750 b 207 779 181 754 197 769 z m 207 799 b 93 733 197 794 169 781 b 207 818 117 754 163 788 z m 207 831 l 113 775 b 133 792 119 781 126 786 b 207 847 172 819 194 836 z m 207 868 b 140 829 199 865 182 856 b 90 797 125 818 104 806 b 160 846 108 811 139 832 b 207 879 185 863 199 872 z m 207 893 b 81 817 157 860 101 825 b 190 897 100 835 164 879 b 207 908 197 903 203 906 z m 203 935 b 207 928 206 933 207 931 l 207 922 b 140 882 199 918 183 908 b 131 876 136 881 133 879 b 203 935 176 913 196 928 z m 192 940 b 93 879 154 915 115 892 b 149 940 131 915 144 932 z m 94 940 l 128 940 b 81 911 110 928 92 917 b 94 940 89 926 93 935 z m 76 928 b 79 933 76 929 78 932 b 82 935 81 933 81 933 b 76 925 81 932 79 928 z m 76 899 b 128 928 86 903 103 913 b 76 878 115 915 96 896 z m 76 863 b 140 896 89 865 113 879 b 93 861 122 882 106 869 b 76 847 86 856 81 851 z m 76 835 b 121 860 83 838 94 843 b 76 825 99 843 85 833 z m 76 806 b 93 813 81 807 86 808 b 76 799 86 807 81 803 z m 76 779 b 146 821 85 783 101 793 b 200 854 164 832 186 846 b 128 799 185 840 151 815 b 76 761 101 779 86 768 z m 76 744 l 128 774 b 76 731 100 753 86 740 z m 76 713 b 200 785 117 736 174 771 b 76 686 181 765 129 724 z m 76 674 b 140 713 96 685 118 699 b 76 660 110 690 89 672 z m 76 640 b 106 657 82 643 89 647 b 128 671 111 661 119 667 b 76 631 100 651 86 639 z m 76 614 b 194 683 114 636 165 667 b 128 633 176 669 149 649 b 76 596 101 615 86 604 z m 76 581 b 110 601 82 583 90 589 b 176 644 126 613 154 631 b 76 568 118 601 90 579 z m 76 550 b 153 594 88 553 111 565 l 76 532 z m 76 519 b 132 550 83 522 99 531 b 76 510 103 529 86 518 z m 76 494 b 150 538 85 497 103 508 b 199 567 167 547 186 560 b 103 496 178 549 129 514 b 76 478 90 488 82 482 z m 76 463 b 118 485 85 465 100 474 b 76 450 97 468 85 457 z m 76 435 b 143 471 85 438 101 447 b 76 419 106 443 88 428 z m 76 403 b 164 453 104 418 136 438 l 76 383 z m 81 371 b 169 424 93 375 118 390 b 189 436 176 428 183 432 b 113 365 171 418 140 390 l 90 365 b 81 371 86 365 82 367 z "},"\"":{"ha":1963,"x_min":0,"x_max":0,"o":"m 982 1351 b 69 440 479 1351 69 943 b 982 -472 69 -62 479 -472 b 1893 440 1485 -472 1893 -62 b 982 1351 1893 943 1485 1351 z m 982 -435 b 106 440 499 -435 106 -43 b 982 1315 106 922 499 1315 b 1857 440 1464 1315 1857 922 b 982 -435 1857 -43 1464 -435 z m 733 729 l 747 729 l 742 829 b 732 842 742 829 744 846 b 694 797 718 838 736 797 l 633 797 b 615 815 624 797 615 806 l 615 911 l 732 911 b 775 864 758 911 775 864 b 783 874 775 864 783 864 b 768 935 783 879 774 917 l 517 935 b 504 924 517 935 500 936 b 556 890 508 911 556 931 l 556 615 b 533 592 556 603 546 592 b 515 586 525 590 517 590 b 528 575 511 572 528 575 l 660 575 l 660 589 b 638 586 660 589 650 586 b 615 611 625 588 615 599 l 615 754 b 635 775 615 765 625 775 l 694 775 b 733 729 731 775 733 729 z m 778 757 b 779 743 775 744 779 743 b 815 743 779 743 815 771 b 815 618 815 743 815 618 b 781 581 815 578 785 593 b 793 569 776 567 793 569 l 931 575 l 935 601 b 875 617 935 601 875 574 l 875 732 b 917 765 885 749 899 765 b 949 731 947 764 949 731 b 996 779 949 731 999 743 b 925 811 993 824 942 815 b 875 756 918 810 894 782 l 875 764 b 875 804 875 778 875 799 b 846 806 875 813 856 814 b 778 757 836 797 782 768 z m 1140 575 b 1176 578 1154 575 1174 578 l 1244 619 b 1213 633 1244 619 1236 644 b 1168 597 1192 624 1196 599 b 1071 690 1121 594 1076 615 b 1221 736 1113 703 1215 735 b 1239 753 1231 738 1240 747 l 1238 768 l 1224 764 b 1121 824 1215 800 1171 828 b 1014 685 1047 817 1008 751 b 1140 575 1019 618 1067 575 z m 1114 797 b 1160 740 1151 806 1178 768 l 1069 708 b 1114 797 1068 753 1081 789 z m 1392 575 b 1428 578 1406 575 1426 578 l 1497 619 b 1465 633 1497 619 1488 644 b 1421 597 1444 624 1449 599 b 1324 690 1374 594 1329 615 b 1474 736 1364 703 1468 735 b 1492 753 1483 738 1493 747 l 1489 768 l 1476 764 b 1374 824 1467 800 1422 828 b 1265 685 1300 817 1260 751 b 1392 575 1271 618 1318 575 z m 1365 797 b 1413 740 1404 806 1431 768 l 1322 708 b 1365 797 1321 753 1333 789 z m 525 471 l 433 467 l 426 449 b 471 436 426 449 481 465 b 396 265 471 436 396 265 l 329 444 b 369 446 318 465 369 446 l 363 464 l 242 475 b 232 467 242 475 228 478 b 279 444 235 458 271 467 l 372 190 b 382 192 374 188 379 183 l 494 449 b 535 463 503 464 532 454 b 525 471 538 474 525 471 z m 663 233 b 628 206 646 226 650 207 b 551 279 590 203 556 219 b 669 314 583 289 665 314 b 683 328 676 317 685 324 l 682 340 l 671 336 b 590 383 664 365 629 388 b 506 275 532 378 501 328 b 606 188 510 222 547 188 b 633 190 617 188 632 190 l 688 222 b 663 233 688 222 681 243 z m 585 363 b 621 318 614 369 635 340 l 550 293 b 585 363 549 328 558 357 z m 817 374 b 778 331 811 372 793 350 l 778 338 b 778 369 778 347 778 364 b 754 369 778 375 763 376 b 701 331 747 364 704 340 b 703 321 699 321 703 321 b 731 321 703 321 731 343 b 731 222 731 321 731 222 b 703 192 731 190 707 203 b 713 183 700 182 713 183 l 821 188 l 825 208 b 778 221 825 208 778 186 l 778 311 b 811 338 785 325 796 338 b 836 311 835 338 836 311 b 872 350 836 311 875 321 b 817 374 871 383 831 378 z m 928 324 b 975 358 928 350 947 360 b 1022 310 997 358 1013 343 l 1035 314 b 1039 374 1035 314 1039 369 b 1032 379 1039 378 1032 379 b 1021 368 1032 379 1028 368 b 974 376 1015 368 1001 376 b 893 314 924 376 894 354 b 1022 228 893 246 1014 253 b 967 196 1028 207 1006 194 b 906 254 933 197 915 221 l 890 249 b 889 188 890 249 889 192 b 896 183 889 183 896 183 b 903 190 896 183 900 190 b 967 178 908 190 932 178 b 1061 235 1006 178 1067 190 b 928 324 1051 311 928 279 z m 1104 439 b 1131 413 1104 424 1117 413 b 1158 439 1146 413 1158 424 b 1131 467 1158 454 1146 467 b 1104 439 1117 467 1104 454 z m 1149 213 b 1149 376 1149 213 1149 372 b 1126 376 1149 383 1135 382 b 1072 338 1117 371 1075 347 b 1074 328 1069 328 1074 328 b 1101 328 1074 328 1101 350 l 1101 222 b 1075 192 1101 190 1078 203 b 1085 183 1071 182 1085 183 l 1183 188 l 1190 210 b 1149 213 1190 210 1149 186 z m 1278 385 b 1190 276 1215 379 1186 329 b 1300 188 1196 224 1238 182 b 1393 293 1363 193 1397 242 b 1278 385 1389 346 1342 390 z m 1303 204 b 1238 276 1264 199 1244 236 b 1276 367 1232 314 1238 360 b 1346 294 1315 374 1339 339 b 1303 204 1353 254 1340 210 z m 1624 221 l 1624 310 b 1594 369 1624 321 1626 353 b 1543 372 1574 382 1543 372 l 1485 331 b 1485 374 1485 331 1485 369 b 1471 374 1485 381 1479 379 b 1410 331 1463 368 1413 340 b 1411 321 1407 321 1411 321 b 1439 321 1411 321 1439 343 b 1439 222 1439 321 1439 222 b 1411 192 1439 190 1414 203 b 1421 183 1408 182 1421 183 l 1521 188 l 1524 203 b 1485 221 1524 203 1486 186 l 1485 310 b 1550 349 1485 310 1536 349 b 1576 303 1572 349 1576 336 l 1576 222 b 1558 192 1576 190 1561 203 b 1568 183 1556 182 1568 183 l 1660 188 l 1663 204 b 1624 221 1663 203 1624 186 z "},"":{"ha":1963,"x_min":0,"x_max":0,"o":"m 982 1351 b 69 440 479 1351 69 943 b 982 -472 69 -62 479 -472 b 1893 440 1485 -472 1893 -62 b 982 1351 1893 943 1485 1351 z m 982 -435 b 106 440 499 -435 106 -43 b 982 1315 106 922 499 1315 b 1857 440 1464 1315 1857 922 b 982 -435 1857 -43 1464 -435 z m 733 729 l 747 729 l 742 829 b 732 842 742 829 744 846 b 694 797 718 838 736 797 l 633 797 b 615 815 624 797 615 806 l 615 911 l 732 911 b 775 864 758 911 775 864 b 783 874 775 864 783 864 b 768 935 783 879 774 917 l 517 935 b 504 924 517 935 500 936 b 556 890 508 911 556 931 l 556 615 b 533 592 556 603 546 592 b 515 586 525 590 517 590 b 528 575 511 572 528 575 l 660 575 l 660 589 b 638 586 660 589 650 586 b 615 611 625 588 615 599 l 615 754 b 635 775 615 765 625 775 l 694 775 b 733 729 731 775 733 729 z m 778 757 b 779 743 775 744 779 743 b 815 743 779 743 815 771 b 815 618 815 743 815 618 b 781 581 815 578 785 593 b 793 569 776 567 793 569 l 931 575 l 935 601 b 875 617 935 601 875 574 l 875 732 b 917 765 885 749 899 765 b 949 731 947 764 949 731 b 996 779 949 731 999 743 b 925 811 993 824 942 815 b 875 756 918 810 894 782 l 875 764 b 875 804 875 778 875 799 b 846 806 875 813 856 814 b 778 757 836 797 782 768 z m 1140 575 b 1176 578 1154 575 1174 578 l 1244 619 b 1213 633 1244 619 1236 644 b 1168 597 1192 624 1196 599 b 1071 690 1121 594 1076 615 b 1221 736 1113 703 1215 735 b 1239 753 1231 738 1240 747 l 1238 768 l 1224 764 b 1121 824 1215 800 1171 828 b 1014 685 1047 817 1008 751 b 1140 575 1019 618 1067 575 z m 1114 797 b 1160 740 1151 806 1178 768 l 1069 708 b 1114 797 1068 753 1081 789 z m 1392 575 b 1428 578 1406 575 1426 578 l 1497 619 b 1465 633 1497 619 1488 644 b 1421 597 1444 624 1449 599 b 1324 690 1374 594 1329 615 b 1474 736 1364 703 1468 735 b 1492 753 1483 738 1493 747 l 1489 768 l 1476 764 b 1374 824 1467 800 1422 828 b 1265 685 1300 817 1260 751 b 1392 575 1271 618 1318 575 z m 1365 797 b 1413 740 1404 806 1431 768 l 1322 708 b 1365 797 1321 753 1333 789 z m 525 471 l 433 467 l 426 449 b 471 436 426 449 481 465 b 396 265 471 436 396 265 l 329 444 b 369 446 318 465 369 446 l 363 464 l 242 475 b 232 467 242 475 228 478 b 279 444 235 458 271 467 l 372 190 b 382 192 374 188 379 183 l 494 449 b 535 463 503 464 532 454 b 525 471 538 474 525 471 z m 663 233 b 628 206 646 226 650 207 b 551 279 590 203 556 219 b 669 314 583 289 665 314 b 683 328 676 317 685 324 l 682 340 l 671 336 b 590 383 664 365 629 388 b 506 275 532 378 501 328 b 606 188 510 222 547 188 b 633 190 617 188 632 190 l 688 222 b 663 233 688 222 681 243 z m 585 363 b 621 318 614 369 635 340 l 550 293 b 585 363 549 328 558 357 z m 817 374 b 778 331 811 372 793 350 l 778 338 b 778 369 778 347 778 364 b 754 369 778 375 763 376 b 701 331 747 364 704 340 b 703 321 699 321 703 321 b 731 321 703 321 731 343 b 731 222 731 321 731 222 b 703 192 731 190 707 203 b 713 183 700 182 713 183 l 821 188 l 825 208 b 778 221 825 208 778 186 l 778 311 b 811 338 785 325 796 338 b 836 311 835 338 836 311 b 872 350 836 311 875 321 b 817 374 871 383 831 378 z m 928 324 b 975 358 928 350 947 360 b 1022 310 997 358 1013 343 l 1035 314 b 1039 374 1035 314 1039 369 b 1032 379 1039 378 1032 379 b 1021 368 1032 379 1028 368 b 974 376 1015 368 1001 376 b 893 314 924 376 894 354 b 1022 228 893 246 1014 253 b 967 196 1028 207 1006 194 b 906 254 933 197 915 221 l 890 249 b 889 188 890 249 889 192 b 896 183 889 183 896 183 b 903 190 896 183 900 190 b 967 178 908 190 932 178 b 1061 235 1006 178 1067 190 b 928 324 1051 311 928 279 z m 1104 439 b 1131 413 1104 424 1117 413 b 1158 439 1146 413 1158 424 b 1131 467 1158 454 1146 467 b 1104 439 1117 467 1104 454 z m 1149 213 b 1149 376 1149 213 1149 372 b 1126 376 1149 383 1135 382 b 1072 338 1117 371 1075 347 b 1074 328 1069 328 1074 328 b 1101 328 1074 328 1101 350 l 1101 222 b 1075 192 1101 190 1078 203 b 1085 183 1071 182 1085 183 l 1183 188 l 1190 210 b 1149 213 1190 210 1149 186 z m 1278 385 b 1190 276 1215 379 1186 329 b 1300 188 1196 224 1238 182 b 1393 293 1363 193 1397 242 b 1278 385 1389 346 1342 390 z m 1303 204 b 1238 276 1264 199 1244 236 b 1276 367 1232 314 1238 360 b 1346 294 1315 374 1339 339 b 1303 204 1353 254 1340 210 z m 1624 221 l 1624 310 b 1594 369 1624 321 1626 353 b 1543 372 1574 382 1543 372 l 1485 331 b 1485 374 1485 331 1485 369 b 1471 374 1485 381 1479 379 b 1410 331 1463 368 1413 340 b 1411 321 1407 321 1411 321 b 1439 321 1411 321 1439 343 b 1439 222 1439 321 1439 222 b 1411 192 1439 190 1414 203 b 1421 183 1408 182 1421 183 l 1521 188 l 1524 203 b 1485 221 1524 203 1486 186 l 1485 310 b 1550 349 1485 310 1536 349 b 1576 303 1572 349 1576 336 l 1576 222 b 1558 192 1576 190 1561 203 b 1568 183 1556 182 1568 183 l 1660 188 l 1663 204 b 1624 221 1663 203 1624 186 z "},"#":{"ha":1963,"x_min":0,"x_max":0,"o":"m 982 1351 b 69 440 479 1351 69 943 b 982 -472 69 -62 479 -472 b 1893 440 1485 -472 1893 -62 b 982 1351 1893 943 1485 1351 z m 982 -435 b 106 440 499 -435 106 -43 b 982 1315 106 922 499 1315 b 1857 440 1464 1315 1857 922 b 982 -435 1857 -43 1464 -435 z m 733 729 l 747 729 l 742 829 b 732 842 742 829 744 846 b 694 797 718 838 736 797 l 633 797 b 615 815 624 797 615 806 l 615 911 l 732 911 b 775 864 758 911 775 864 b 783 874 775 864 783 864 b 768 935 783 879 774 917 l 517 935 b 504 924 517 935 500 936 b 556 890 508 911 556 931 l 556 615 b 533 592 556 603 546 592 b 515 586 525 590 517 590 b 528 575 511 572 528 575 l 660 575 l 660 589 b 638 586 660 589 650 586 b 615 611 625 588 615 599 l 615 754 b 635 775 615 765 625 775 l 694 775 b 733 729 731 775 733 729 z m 778 757 b 779 743 775 744 779 743 b 815 743 779 743 815 771 b 815 618 815 743 815 618 b 781 581 815 578 785 593 b 793 569 776 567 793 569 l 931 575 l 935 601 b 875 617 935 601 875 574 l 875 732 b 917 765 885 749 899 765 b 949 731 947 764 949 731 b 996 779 949 731 999 743 b 925 811 993 824 942 815 b 875 756 918 810 894 782 l 875 764 b 875 804 875 778 875 799 b 846 806 875 813 856 814 b 778 757 836 797 782 768 z m 1140 575 b 1176 578 1154 575 1174 578 l 1244 619 b 1213 633 1244 619 1236 644 b 1168 597 1192 624 1196 599 b 1071 690 1121 594 1076 615 b 1221 736 1113 703 1215 735 b 1239 753 1231 738 1240 747 l 1238 768 l 1224 764 b 1121 824 1215 800 1171 828 b 1014 685 1047 817 1008 751 b 1140 575 1019 618 1067 575 z m 1114 797 b 1160 740 1151 806 1178 768 l 1069 708 b 1114 797 1068 753 1081 789 z m 1392 575 b 1428 578 1406 575 1426 578 l 1497 619 b 1465 633 1497 619 1488 644 b 1421 597 1444 624 1449 599 b 1324 690 1374 594 1329 615 b 1474 736 1364 703 1468 735 b 1492 753 1483 738 1493 747 l 1489 768 l 1476 764 b 1374 824 1467 800 1422 828 b 1265 685 1300 817 1260 751 b 1392 575 1271 618 1318 575 z m 1365 797 b 1413 740 1404 806 1431 768 l 1322 708 b 1365 797 1321 753 1333 789 z m 525 471 l 433 467 l 426 449 b 471 436 426 449 481 465 b 396 265 471 436 396 265 l 329 444 b 369 446 318 465 369 446 l 363 464 l 242 475 b 232 467 242 475 228 478 b 279 444 235 458 271 467 l 372 190 b 382 192 374 188 379 183 l 494 449 b 535 463 503 464 532 454 b 525 471 538 474 525 471 z m 663 233 b 628 206 646 226 650 207 b 551 279 590 203 556 219 b 669 314 583 289 665 314 b 683 328 676 317 685 324 l 682 340 l 671 336 b 590 383 664 365 629 388 b 506 275 532 378 501 328 b 606 188 510 222 547 188 b 633 190 617 188 632 190 l 688 222 b 663 233 688 222 681 243 z m 585 363 b 621 318 614 369 635 340 l 550 293 b 585 363 549 328 558 357 z m 817 374 b 778 331 811 372 793 350 l 778 338 b 778 369 778 347 778 364 b 754 369 778 375 763 376 b 701 331 747 364 704 340 b 703 321 699 321 703 321 b 731 321 703 321 731 343 b 731 222 731 321 731 222 b 703 192 731 190 707 203 b 713 183 700 182 713 183 l 821 188 l 825 208 b 778 221 825 208 778 186 l 778 311 b 811 338 785 325 796 338 b 836 311 835 338 836 311 b 872 350 836 311 875 321 b 817 374 871 383 831 378 z m 928 324 b 975 358 928 350 947 360 b 1022 310 997 358 1013 343 l 1035 314 b 1039 374 1035 314 1039 369 b 1032 379 1039 378 1032 379 b 1021 368 1032 379 1028 368 b 974 376 1015 368 1001 376 b 893 314 924 376 894 354 b 1022 228 893 246 1014 253 b 967 196 1028 207 1006 194 b 906 254 933 197 915 221 l 890 249 b 889 188 890 249 889 192 b 896 183 889 183 896 183 b 903 190 896 183 900 190 b 967 178 908 190 932 178 b 1061 235 1006 178 1067 190 b 928 324 1051 311 928 279 z m 1104 439 b 1131 413 1104 424 1117 413 b 1158 439 1146 413 1158 424 b 1131 467 1158 454 1146 467 b 1104 439 1117 467 1104 454 z m 1149 213 b 1149 376 1149 213 1149 372 b 1126 376 1149 383 1135 382 b 1072 338 1117 371 1075 347 b 1074 328 1069 328 1074 328 b 1101 328 1074 328 1101 350 l 1101 222 b 1075 192 1101 190 1078 203 b 1085 183 1071 182 1085 183 l 1183 188 l 1190 210 b 1149 213 1190 210 1149 186 z m 1278 385 b 1190 276 1215 379 1186 329 b 1300 188 1196 224 1238 182 b 1393 293 1363 193 1397 242 b 1278 385 1389 346 1342 390 z m 1303 204 b 1238 276 1264 199 1244 236 b 1276 367 1232 314 1238 360 b 1346 294 1315 374 1339 339 b 1303 204 1353 254 1340 210 z m 1624 221 l 1624 310 b 1594 369 1624 321 1626 353 b 1543 372 1574 382 1543 372 l 1485 331 b 1485 374 1485 331 1485 369 b 1471 374 1485 381 1479 379 b 1410 331 1463 368 1413 340 b 1411 321 1407 321 1411 321 b 1439 321 1411 321 1439 343 b 1439 222 1439 321 1439 222 b 1411 192 1439 190 1414 203 b 1421 183 1408 182 1421 183 l 1521 188 l 1524 203 b 1485 221 1524 203 1486 186 l 1485 310 b 1550 349 1485 310 1536 349 b 1576 303 1572 349 1576 336 l 1576 222 b 1558 192 1576 190 1561 203 b 1568 183 1556 182 1568 183 l 1660 188 l 1663 204 b 1624 221 1663 203 1624 186 z "},"$":{"ha":1963,"x_min":0,"x_max":0,"o":"m 982 1351 b 69 440 479 1351 69 943 b 982 -472 69 -62 479 -472 b 1893 440 1485 -472 1893 -62 b 982 1351 1893 943 1485 1351 z m 982 -435 b 106 440 499 -435 106 -43 b 982 1315 106 922 499 1315 b 1857 440 1464 1315 1857 922 b 982 -435 1857 -43 1464 -435 z m 733 729 l 747 729 l 742 829 b 732 842 742 829 744 846 b 694 797 718 838 736 797 l 633 797 b 615 815 624 797 615 806 l 615 911 l 732 911 b 775 864 758 911 775 864 b 783 874 775 864 783 864 b 768 935 783 879 774 917 l 517 935 b 504 924 517 935 500 936 b 556 890 508 911 556 931 l 556 615 b 533 592 556 603 546 592 b 515 586 525 590 517 590 b 528 575 511 572 528 575 l 660 575 l 660 589 b 638 586 660 589 650 586 b 615 611 625 588 615 599 l 615 754 b 635 775 615 765 625 775 l 694 775 b 733 729 731 775 733 729 z m 778 757 b 779 743 775 744 779 743 b 815 743 779 743 815 771 b 815 618 815 743 815 618 b 781 581 815 578 785 593 b 793 569 776 567 793 569 l 931 575 l 935 601 b 875 617 935 601 875 574 l 875 732 b 917 765 885 749 899 765 b 949 731 947 764 949 731 b 996 779 949 731 999 743 b 925 811 993 824 942 815 b 875 756 918 810 894 782 l 875 764 b 875 804 875 778 875 799 b 846 806 875 813 856 814 b 778 757 836 797 782 768 z m 1140 575 b 1176 578 1154 575 1174 578 l 1244 619 b 1213 633 1244 619 1236 644 b 1168 597 1192 624 1196 599 b 1071 690 1121 594 1076 615 b 1221 736 1113 703 1215 735 b 1239 753 1231 738 1240 747 l 1238 768 l 1224 764 b 1121 824 1215 800 1171 828 b 1014 685 1047 817 1008 751 b 1140 575 1019 618 1067 575 z m 1114 797 b 1160 740 1151 806 1178 768 l 1069 708 b 1114 797 1068 753 1081 789 z m 1392 575 b 1428 578 1406 575 1426 578 l 1497 619 b 1465 633 1497 619 1488 644 b 1421 597 1444 624 1449 599 b 1324 690 1374 594 1329 615 b 1474 736 1364 703 1468 735 b 1492 753 1483 738 1493 747 l 1489 768 l 1476 764 b 1374 824 1467 800 1422 828 b 1265 685 1300 817 1260 751 b 1392 575 1271 618 1318 575 z m 1365 797 b 1413 740 1404 806 1431 768 l 1322 708 b 1365 797 1321 753 1333 789 z m 525 471 l 433 467 l 426 449 b 471 436 426 449 481 465 b 396 265 471 436 396 265 l 329 444 b 369 446 318 465 369 446 l 363 464 l 242 475 b 232 467 242 475 228 478 b 279 444 235 458 271 467 l 372 190 b 382 192 374 188 379 183 l 494 449 b 535 463 503 464 532 454 b 525 471 538 474 525 471 z m 663 233 b 628 206 646 226 650 207 b 551 279 590 203 556 219 b 669 314 583 289 665 314 b 683 328 676 317 685 324 l 682 340 l 671 336 b 590 383 664 365 629 388 b 506 275 532 378 501 328 b 606 188 510 222 547 188 b 633 190 617 188 632 190 l 688 222 b 663 233 688 222 681 243 z m 585 363 b 621 318 614 369 635 340 l 550 293 b 585 363 549 328 558 357 z m 817 374 b 778 331 811 372 793 350 l 778 338 b 778 369 778 347 778 364 b 754 369 778 375 763 376 b 701 331 747 364 704 340 b 703 321 699 321 703 321 b 731 321 703 321 731 343 b 731 222 731 321 731 222 b 703 192 731 190 707 203 b 713 183 700 182 713 183 l 821 188 l 825 208 b 778 221 825 208 778 186 l 778 311 b 811 338 785 325 796 338 b 836 311 835 338 836 311 b 872 350 836 311 875 321 b 817 374 871 383 831 378 z m 928 324 b 975 358 928 350 947 360 b 1022 310 997 358 1013 343 l 1035 314 b 1039 374 1035 314 1039 369 b 1032 379 1039 378 1032 379 b 1021 368 1032 379 1028 368 b 974 376 1015 368 1001 376 b 893 314 924 376 894 354 b 1022 228 893 246 1014 253 b 967 196 1028 207 1006 194 b 906 254 933 197 915 221 l 890 249 b 889 188 890 249 889 192 b 896 183 889 183 896 183 b 903 190 896 183 900 190 b 967 178 908 190 932 178 b 1061 235 1006 178 1067 190 b 928 324 1051 311 928 279 z m 1104 439 b 1131 413 1104 424 1117 413 b 1158 439 1146 413 1158 424 b 1131 467 1158 454 1146 467 b 1104 439 1117 467 1104 454 z m 1149 213 b 1149 376 1149 213 1149 372 b 1126 376 1149 383 1135 382 b 1072 338 1117 371 1075 347 b 1074 328 1069 328 1074 328 b 1101 328 1074 328 1101 350 l 1101 222 b 1075 192 1101 190 1078 203 b 1085 183 1071 182 1085 183 l 1183 188 l 1190 210 b 1149 213 1190 210 1149 186 z m 1278 385 b 1190 276 1215 379 1186 329 b 1300 188 1196 224 1238 182 b 1393 293 1363 193 1397 242 b 1278 385 1389 346 1342 390 z m 1303 204 b 1238 276 1264 199 1244 236 b 1276 367 1232 314 1238 360 b 1346 294 1315 374 1339 339 b 1303 204 1353 254 1340 210 z m 1624 221 l 1624 310 b 1594 369 1624 321 1626 353 b 1543 372 1574 382 1543 372 l 1485 331 b 1485 374 1485 331 1485 369 b 1471 374 1485 381 1479 379 b 1410 331 1463 368 1413 340 b 1411 321 1407 321 1411 321 b 1439 321 1411 321 1439 343 b 1439 222 1439 321 1439 222 b 1411 192 1439 190 1414 203 b 1421 183 1408 182 1421 183 l 1521 188 l 1524 203 b 1485 221 1524 203 1486 186 l 1485 310 b 1550 349 1485 310 1536 349 b 1576 303 1572 349 1576 336 l 1576 222 b 1558 192 1576 190 1561 203 b 1568 183 1556 182 1568 183 l 1660 188 l 1663 204 b 1624 221 1663 203 1624 186 z "},"%":{"ha":1963,"x_min":0,"x_max":0,"o":"m 982 1351 b 69 440 479 1351 69 943 b 982 -472 69 -62 479 -472 b 1893 440 1485 -472 1893 -62 b 982 1351 1893 943 1485 1351 z m 982 -435 b 106 440 499 -435 106 -43 b 982 1315 106 922 499 1315 b 1857 440 1464 1315 1857 922 b 982 -435 1857 -43 1464 -435 z m 733 729 l 747 729 l 742 829 b 732 842 742 829 744 846 b 694 797 718 838 736 797 l 633 797 b 615 815 624 797 615 806 l 615 911 l 732 911 b 775 864 758 911 775 864 b 783 874 775 864 783 864 b 768 935 783 879 774 917 l 517 935 b 504 924 517 935 500 936 b 556 890 508 911 556 931 l 556 615 b 533 592 556 603 546 592 b 515 586 525 590 517 590 b 528 575 511 572 528 575 l 660 575 l 660 589 b 638 586 660 589 650 586 b 615 611 625 588 615 599 l 615 754 b 635 775 615 765 625 775 l 694 775 b 733 729 731 775 733 729 z m 778 757 b 779 743 775 744 779 743 b 815 743 779 743 815 771 b 815 618 815 743 815 618 b 781 581 815 578 785 593 b 793 569 776 567 793 569 l 931 575 l 935 601 b 875 617 935 601 875 574 l 875 732 b 917 765 885 749 899 765 b 949 731 947 764 949 731 b 996 779 949 731 999 743 b 925 811 993 824 942 815 b 875 756 918 810 894 782 l 875 764 b 875 804 875 778 875 799 b 846 806 875 813 856 814 b 778 757 836 797 782 768 z m 1140 575 b 1176 578 1154 575 1174 578 l 1244 619 b 1213 633 1244 619 1236 644 b 1168 597 1192 624 1196 599 b 1071 690 1121 594 1076 615 b 1221 736 1113 703 1215 735 b 1239 753 1231 738 1240 747 l 1238 768 l 1224 764 b 1121 824 1215 800 1171 828 b 1014 685 1047 817 1008 751 b 1140 575 1019 618 1067 575 z m 1114 797 b 1160 740 1151 806 1178 768 l 1069 708 b 1114 797 1068 753 1081 789 z m 1392 575 b 1428 578 1406 575 1426 578 l 1497 619 b 1465 633 1497 619 1488 644 b 1421 597 1444 624 1449 599 b 1324 690 1374 594 1329 615 b 1474 736 1364 703 1468 735 b 1492 753 1483 738 1493 747 l 1489 768 l 1476 764 b 1374 824 1467 800 1422 828 b 1265 685 1300 817 1260 751 b 1392 575 1271 618 1318 575 z m 1365 797 b 1413 740 1404 806 1431 768 l 1322 708 b 1365 797 1321 753 1333 789 z m 525 471 l 433 467 l 426 449 b 471 436 426 449 481 465 b 396 265 471 436 396 265 l 329 444 b 369 446 318 465 369 446 l 363 464 l 242 475 b 232 467 242 475 228 478 b 279 444 235 458 271 467 l 372 190 b 382 192 374 188 379 183 l 494 449 b 535 463 503 464 532 454 b 525 471 538 474 525 471 z m 663 233 b 628 206 646 226 650 207 b 551 279 590 203 556 219 b 669 314 583 289 665 314 b 683 328 676 317 685 324 l 682 340 l 671 336 b 590 383 664 365 629 388 b 506 275 532 378 501 328 b 606 188 510 222 547 188 b 633 190 617 188 632 190 l 688 222 b 663 233 688 222 681 243 z m 585 363 b 621 318 614 369 635 340 l 550 293 b 585 363 549 328 558 357 z m 817 374 b 778 331 811 372 793 350 l 778 338 b 778 369 778 347 778 364 b 754 369 778 375 763 376 b 701 331 747 364 704 340 b 703 321 699 321 703 321 b 731 321 703 321 731 343 b 731 222 731 321 731 222 b 703 192 731 190 707 203 b 713 183 700 182 713 183 l 821 188 l 825 208 b 778 221 825 208 778 186 l 778 311 b 811 338 785 325 796 338 b 836 311 835 338 836 311 b 872 350 836 311 875 321 b 817 374 871 383 831 378 z m 928 324 b 975 358 928 350 947 360 b 1022 310 997 358 1013 343 l 1035 314 b 1039 374 1035 314 1039 369 b 1032 379 1039 378 1032 379 b 1021 368 1032 379 1028 368 b 974 376 1015 368 1001 376 b 893 314 924 376 894 354 b 1022 228 893 246 1014 253 b 967 196 1028 207 1006 194 b 906 254 933 197 915 221 l 890 249 b 889 188 890 249 889 192 b 896 183 889 183 896 183 b 903 190 896 183 900 190 b 967 178 908 190 932 178 b 1061 235 1006 178 1067 190 b 928 324 1051 311 928 279 z m 1104 439 b 1131 413 1104 424 1117 413 b 1158 439 1146 413 1158 424 b 1131 467 1158 454 1146 467 b 1104 439 1117 467 1104 454 z m 1149 213 b 1149 376 1149 213 1149 372 b 1126 376 1149 383 1135 382 b 1072 338 1117 371 1075 347 b 1074 328 1069 328 1074 328 b 1101 328 1074 328 1101 350 l 1101 222 b 1075 192 1101 190 1078 203 b 1085 183 1071 182 1085 183 l 1183 188 l 1190 210 b 1149 213 1190 210 1149 186 z m 1278 385 b 1190 276 1215 379 1186 329 b 1300 188 1196 224 1238 182 b 1393 293 1363 193 1397 242 b 1278 385 1389 346 1342 390 z m 1303 204 b 1238 276 1264 199 1244 236 b 1276 367 1232 314 1238 360 b 1346 294 1315 374 1339 339 b 1303 204 1353 254 1340 210 z m 1624 221 l 1624 310 b 1594 369 1624 321 1626 353 b 1543 372 1574 382 1543 372 l 1485 331 b 1485 374 1485 331 1485 369 b 1471 374 1485 381 1479 379 b 1410 331 1463 368 1413 340 b 1411 321 1407 321 1411 321 b 1439 321 1411 321 1439 343 b 1439 222 1439 321 1439 222 b 1411 192 1439 190 1414 203 b 1421 183 1408 182 1421 183 l 1521 188 l 1524 203 b 1485 221 1524 203 1486 186 l 1485 310 b 1550 349 1485 310 1536 349 b 1576 303 1572 349 1576 336 l 1576 222 b 1558 192 1576 190 1561 203 b 1568 183 1556 182 1568 183 l 1660 188 l 1663 204 b 1624 221 1663 203 1624 186 z "},"&":{"ha":1963,"x_min":0,"x_max":0,"o":"m 982 1351 b 69 440 479 1351 69 943 b 982 -472 69 -62 479 -472 b 1893 440 1485 -472 1893 -62 b 982 1351 1893 943 1485 1351 z m 982 -435 b 106 440 499 -435 106 -43 b 982 1315 106 922 499 1315 b 1857 440 1464 1315 1857 922 b 982 -435 1857 -43 1464 -435 z m 733 729 l 747 729 l 742 829 b 732 842 742 829 744 846 b 694 797 718 838 736 797 l 633 797 b 615 815 624 797 615 806 l 615 911 l 732 911 b 775 864 758 911 775 864 b 783 874 775 864 783 864 b 768 935 783 879 774 917 l 517 935 b 504 924 517 935 500 936 b 556 890 508 911 556 931 l 556 615 b 533 592 556 603 546 592 b 515 586 525 590 517 590 b 528 575 511 572 528 575 l 660 575 l 660 589 b 638 586 660 589 650 586 b 615 611 625 588 615 599 l 615 754 b 635 775 615 765 625 775 l 694 775 b 733 729 731 775 733 729 z m 778 757 b 779 743 775 744 779 743 b 815 743 779 743 815 771 b 815 618 815 743 815 618 b 781 581 815 578 785 593 b 793 569 776 567 793 569 l 931 575 l 935 601 b 875 617 935 601 875 574 l 875 732 b 917 765 885 749 899 765 b 949 731 947 764 949 731 b 996 779 949 731 999 743 b 925 811 993 824 942 815 b 875 756 918 810 894 782 l 875 764 b 875 804 875 778 875 799 b 846 806 875 813 856 814 b 778 757 836 797 782 768 z m 1140 575 b 1176 578 1154 575 1174 578 l 1244 619 b 1213 633 1244 619 1236 644 b 1168 597 1192 624 1196 599 b 1071 690 1121 594 1076 615 b 1221 736 1113 703 1215 735 b 1239 753 1231 738 1240 747 l 1238 768 l 1224 764 b 1121 824 1215 800 1171 828 b 1014 685 1047 817 1008 751 b 1140 575 1019 618 1067 575 z m 1114 797 b 1160 740 1151 806 1178 768 l 1069 708 b 1114 797 1068 753 1081 789 z m 1392 575 b 1428 578 1406 575 1426 578 l 1497 619 b 1465 633 1497 619 1488 644 b 1421 597 1444 624 1449 599 b 1324 690 1374 594 1329 615 b 1474 736 1364 703 1468 735 b 1492 753 1483 738 1493 747 l 1489 768 l 1476 764 b 1374 824 1467 800 1422 828 b 1265 685 1300 817 1260 751 b 1392 575 1271 618 1318 575 z m 1365 797 b 1413 740 1404 806 1431 768 l 1322 708 b 1365 797 1321 753 1333 789 z m 525 471 l 433 467 l 426 449 b 471 436 426 449 481 465 b 396 265 471 436 396 265 l 329 444 b 369 446 318 465 369 446 l 363 464 l 242 475 b 232 467 242 475 228 478 b 279 444 235 458 271 467 l 372 190 b 382 192 374 188 379 183 l 494 449 b 535 463 503 464 532 454 b 525 471 538 474 525 471 z m 663 233 b 628 206 646 226 650 207 b 551 279 590 203 556 219 b 669 314 583 289 665 314 b 683 328 676 317 685 324 l 682 340 l 671 336 b 590 383 664 365 629 388 b 506 275 532 378 501 328 b 606 188 510 222 547 188 b 633 190 617 188 632 190 l 688 222 b 663 233 688 222 681 243 z m 585 363 b 621 318 614 369 635 340 l 550 293 b 585 363 549 328 558 357 z m 817 374 b 778 331 811 372 793 350 l 778 338 b 778 369 778 347 778 364 b 754 369 778 375 763 376 b 701 331 747 364 704 340 b 703 321 699 321 703 321 b 731 321 703 321 731 343 b 731 222 731 321 731 222 b 703 192 731 190 707 203 b 713 183 700 182 713 183 l 821 188 l 825 208 b 778 221 825 208 778 186 l 778 311 b 811 338 785 325 796 338 b 836 311 835 338 836 311 b 872 350 836 311 875 321 b 817 374 871 383 831 378 z m 928 324 b 975 358 928 350 947 360 b 1022 310 997 358 1013 343 l 1035 314 b 1039 374 1035 314 1039 369 b 1032 379 1039 378 1032 379 b 1021 368 1032 379 1028 368 b 974 376 1015 368 1001 376 b 893 314 924 376 894 354 b 1022 228 893 246 1014 253 b 967 196 1028 207 1006 194 b 906 254 933 197 915 221 l 890 249 b 889 188 890 249 889 192 b 896 183 889 183 896 183 b 903 190 896 183 900 190 b 967 178 908 190 932 178 b 1061 235 1006 178 1067 190 b 928 324 1051 311 928 279 z m 1104 439 b 1131 413 1104 424 1117 413 b 1158 439 1146 413 1158 424 b 1131 467 1158 454 1146 467 b 1104 439 1117 467 1104 454 z m 1149 213 b 1149 376 1149 213 1149 372 b 1126 376 1149 383 1135 382 b 1072 338 1117 371 1075 347 b 1074 328 1069 328 1074 328 b 1101 328 1074 328 1101 350 l 1101 222 b 1075 192 1101 190 1078 203 b 1085 183 1071 182 1085 183 l 1183 188 l 1190 210 b 1149 213 1190 210 1149 186 z m 1278 385 b 1190 276 1215 379 1186 329 b 1300 188 1196 224 1238 182 b 1393 293 1363 193 1397 242 b 1278 385 1389 346 1342 390 z m 1303 204 b 1238 276 1264 199 1244 236 b 1276 367 1232 314 1238 360 b 1346 294 1315 374 1339 339 b 1303 204 1353 254 1340 210 z m 1624 221 l 1624 310 b 1594 369 1624 321 1626 353 b 1543 372 1574 382 1543 372 l 1485 331 b 1485 374 1485 331 1485 369 b 1471 374 1485 381 1479 379 b 1410 331 1463 368 1413 340 b 1411 321 1407 321 1411 321 b 1439 321 1411 321 1439 343 b 1439 222 1439 321 1439 222 b 1411 192 1439 190 1414 203 b 1421 183 1408 182 1421 183 l 1521 188 l 1524 203 b 1485 221 1524 203 1486 186 l 1485 310 b 1550 349 1485 310 1536 349 b 1576 303 1572 349 1576 336 l 1576 222 b 1558 192 1576 190 1561 203 b 1568 183 1556 182 1568 183 l 1660 188 l 1663 204 b 1624 221 1663 203 1624 186 z "},"'":{"ha":1963,"x_min":0,"x_max":0,"o":"m 982 1351 b 69 440 479 1351 69 943 b 982 -472 69 -62 479 -472 b 1893 440 1485 -472 1893 -62 b 982 1351 1893 943 1485 1351 z m 982 -435 b 106 440 499 -435 106 -43 b 982 1315 106 922 499 1315 b 1857 440 1464 1315 1857 922 b 982 -435 1857 -43 1464 -435 z m 733 729 l 747 729 l 742 829 b 732 842 742 829 744 846 b 694 797 718 838 736 797 l 633 797 b 615 815 624 797 615 806 l 615 911 l 732 911 b 775 864 758 911 775 864 b 783 874 775 864 783 864 b 768 935 783 879 774 917 l 517 935 b 504 924 517 935 500 936 b 556 890 508 911 556 931 l 556 615 b 533 592 556 603 546 592 b 515 586 525 590 517 590 b 528 575 511 572 528 575 l 660 575 l 660 589 b 638 586 660 589 650 586 b 615 611 625 588 615 599 l 615 754 b 635 775 615 765 625 775 l 694 775 b 733 729 731 775 733 729 z m 778 757 b 779 743 775 744 779 743 b 815 743 779 743 815 771 b 815 618 815 743 815 618 b 781 581 815 578 785 593 b 793 569 776 567 793 569 l 931 575 l 935 601 b 875 617 935 601 875 574 l 875 732 b 917 765 885 749 899 765 b 949 731 947 764 949 731 b 996 779 949 731 999 743 b 925 811 993 824 942 815 b 875 756 918 810 894 782 l 875 764 b 875 804 875 778 875 799 b 846 806 875 813 856 814 b 778 757 836 797 782 768 z m 1140 575 b 1176 578 1154 575 1174 578 l 1244 619 b 1213 633 1244 619 1236 644 b 1168 597 1192 624 1196 599 b 1071 690 1121 594 1076 615 b 1221 736 1113 703 1215 735 b 1239 753 1231 738 1240 747 l 1238 768 l 1224 764 b 1121 824 1215 800 1171 828 b 1014 685 1047 817 1008 751 b 1140 575 1019 618 1067 575 z m 1114 797 b 1160 740 1151 806 1178 768 l 1069 708 b 1114 797 1068 753 1081 789 z m 1392 575 b 1428 578 1406 575 1426 578 l 1497 619 b 1465 633 1497 619 1488 644 b 1421 597 1444 624 1449 599 b 1324 690 1374 594 1329 615 b 1474 736 1364 703 1468 735 b 1492 753 1483 738 1493 747 l 1489 768 l 1476 764 b 1374 824 1467 800 1422 828 b 1265 685 1300 817 1260 751 b 1392 575 1271 618 1318 575 z m 1365 797 b 1413 740 1404 806 1431 768 l 1322 708 b 1365 797 1321 753 1333 789 z m 525 471 l 433 467 l 426 449 b 471 436 426 449 481 465 b 396 265 471 436 396 265 l 329 444 b 369 446 318 465 369 446 l 363 464 l 242 475 b 232 467 242 475 228 478 b 279 444 235 458 271 467 l 372 190 b 382 192 374 188 379 183 l 494 449 b 535 463 503 464 532 454 b 525 471 538 474 525 471 z m 663 233 b 628 206 646 226 650 207 b 551 279 590 203 556 219 b 669 314 583 289 665 314 b 683 328 676 317 685 324 l 682 340 l 671 336 b 590 383 664 365 629 388 b 506 275 532 378 501 328 b 606 188 510 222 547 188 b 633 190 617 188 632 190 l 688 222 b 663 233 688 222 681 243 z m 585 363 b 621 318 614 369 635 340 l 550 293 b 585 363 549 328 558 357 z m 817 374 b 778 331 811 372 793 350 l 778 338 b 778 369 778 347 778 364 b 754 369 778 375 763 376 b 701 331 747 364 704 340 b 703 321 699 321 703 321 b 731 321 703 321 731 343 b 731 222 731 321 731 222 b 703 192 731 190 707 203 b 713 183 700 182 713 183 l 821 188 l 825 208 b 778 221 825 208 778 186 l 778 311 b 811 338 785 325 796 338 b 836 311 835 338 836 311 b 872 350 836 311 875 321 b 817 374 871 383 831 378 z m 928 324 b 975 358 928 350 947 360 b 1022 310 997 358 1013 343 l 1035 314 b 1039 374 1035 314 1039 369 b 1032 379 1039 378 1032 379 b 1021 368 1032 379 1028 368 b 974 376 1015 368 1001 376 b 893 314 924 376 894 354 b 1022 228 893 246 1014 253 b 967 196 1028 207 1006 194 b 906 254 933 197 915 221 l 890 249 b 889 188 890 249 889 192 b 896 183 889 183 896 183 b 903 190 896 183 900 190 b 967 178 908 190 932 178 b 1061 235 1006 178 1067 190 b 928 324 1051 311 928 279 z m 1104 439 b 1131 413 1104 424 1117 413 b 1158 439 1146 413 1158 424 b 1131 467 1158 454 1146 467 b 1104 439 1117 467 1104 454 z m 1149 213 b 1149 376 1149 213 1149 372 b 1126 376 1149 383 1135 382 b 1072 338 1117 371 1075 347 b 1074 328 1069 328 1074 328 b 1101 328 1074 328 1101 350 l 1101 222 b 1075 192 1101 190 1078 203 b 1085 183 1071 182 1085 183 l 1183 188 l 1190 210 b 1149 213 1190 210 1149 186 z m 1278 385 b 1190 276 1215 379 1186 329 b 1300 188 1196 224 1238 182 b 1393 293 1363 193 1397 242 b 1278 385 1389 346 1342 390 z m 1303 204 b 1238 276 1264 199 1244 236 b 1276 367 1232 314 1238 360 b 1346 294 1315 374 1339 339 b 1303 204 1353 254 1340 210 z m 1624 221 l 1624 310 b 1594 369 1624 321 1626 353 b 1543 372 1574 382 1543 372 l 1485 331 b 1485 374 1485 331 1485 369 b 1471 374 1485 381 1479 379 b 1410 331 1463 368 1413 340 b 1411 321 1407 321 1411 321 b 1439 321 1411 321 1439 343 b 1439 222 1439 321 1439 222 b 1411 192 1439 190 1414 203 b 1421 183 1408 182 1421 183 l 1521 188 l 1524 203 b 1485 221 1524 203 1486 186 l 1485 310 b 1550 349 1485 310 1536 349 b 1576 303 1572 349 1576 336 l 1576 222 b 1558 192 1576 190 1561 203 b 1568 183 1556 182 1568 183 l 1660 188 l 1663 204 b 1624 221 1663 203 1624 186 z "},"":{"ha":1963,"x_min":0,"x_max":0,"o":"m 982 1351 b 69 440 479 1351 69 943 b 982 -472 69 -62 479 -472 b 1893 440 1485 -472 1893 -62 b 982 1351 1893 943 1485 1351 z m 982 -435 b 106 440 499 -435 106 -43 b 982 1315 106 922 499 1315 b 1857 440 1464 1315 1857 922 b 982 -435 1857 -43 1464 -435 z m 733 729 l 747 729 l 742 829 b 732 842 742 829 744 846 b 694 797 718 838 736 797 l 633 797 b 615 815 624 797 615 806 l 615 911 l 732 911 b 775 864 758 911 775 864 b 783 874 775 864 783 864 b 768 935 783 879 774 917 l 517 935 b 504 924 517 935 500 936 b 556 890 508 911 556 931 l 556 615 b 533 592 556 603 546 592 b 515 586 525 590 517 590 b 528 575 511 572 528 575 l 660 575 l 660 589 b 638 586 660 589 650 586 b 615 611 625 588 615 599 l 615 754 b 635 775 615 765 625 775 l 694 775 b 733 729 731 775 733 729 z m 778 757 b 779 743 775 744 779 743 b 815 743 779 743 815 771 b 815 618 815 743 815 618 b 781 581 815 578 785 593 b 793 569 776 567 793 569 l 931 575 l 935 601 b 875 617 935 601 875 574 l 875 732 b 917 765 885 749 899 765 b 949 731 947 764 949 731 b 996 779 949 731 999 743 b 925 811 993 824 942 815 b 875 756 918 810 894 782 l 875 764 b 875 804 875 778 875 799 b 846 806 875 813 856 814 b 778 757 836 797 782 768 z m 1140 575 b 1176 578 1154 575 1174 578 l 1244 619 b 1213 633 1244 619 1236 644 b 1168 597 1192 624 1196 599 b 1071 690 1121 594 1076 615 b 1221 736 1113 703 1215 735 b 1239 753 1231 738 1240 747 l 1238 768 l 1224 764 b 1121 824 1215 800 1171 828 b 1014 685 1047 817 1008 751 b 1140 575 1019 618 1067 575 z m 1114 797 b 1160 740 1151 806 1178 768 l 1069 708 b 1114 797 1068 753 1081 789 z m 1392 575 b 1428 578 1406 575 1426 578 l 1497 619 b 1465 633 1497 619 1488 644 b 1421 597 1444 624 1449 599 b 1324 690 1374 594 1329 615 b 1474 736 1364 703 1468 735 b 1492 753 1483 738 1493 747 l 1489 768 l 1476 764 b 1374 824 1467 800 1422 828 b 1265 685 1300 817 1260 751 b 1392 575 1271 618 1318 575 z m 1365 797 b 1413 740 1404 806 1431 768 l 1322 708 b 1365 797 1321 753 1333 789 z m 525 471 l 433 467 l 426 449 b 471 436 426 449 481 465 b 396 265 471 436 396 265 l 329 444 b 369 446 318 465 369 446 l 363 464 l 242 475 b 232 467 242 475 228 478 b 279 444 235 458 271 467 l 372 190 b 382 192 374 188 379 183 l 494 449 b 535 463 503 464 532 454 b 525 471 538 474 525 471 z m 663 233 b 628 206 646 226 650 207 b 551 279 590 203 556 219 b 669 314 583 289 665 314 b 683 328 676 317 685 324 l 682 340 l 671 336 b 590 383 664 365 629 388 b 506 275 532 378 501 328 b 606 188 510 222 547 188 b 633 190 617 188 632 190 l 688 222 b 663 233 688 222 681 243 z m 585 363 b 621 318 614 369 635 340 l 550 293 b 585 363 549 328 558 357 z m 817 374 b 778 331 811 372 793 350 l 778 338 b 778 369 778 347 778 364 b 754 369 778 375 763 376 b 701 331 747 364 704 340 b 703 321 699 321 703 321 b 731 321 703 321 731 343 b 731 222 731 321 731 222 b 703 192 731 190 707 203 b 713 183 700 182 713 183 l 821 188 l 825 208 b 778 221 825 208 778 186 l 778 311 b 811 338 785 325 796 338 b 836 311 835 338 836 311 b 872 350 836 311 875 321 b 817 374 871 383 831 378 z m 928 324 b 975 358 928 350 947 360 b 1022 310 997 358 1013 343 l 1035 314 b 1039 374 1035 314 1039 369 b 1032 379 1039 378 1032 379 b 1021 368 1032 379 1028 368 b 974 376 1015 368 1001 376 b 893 314 924 376 894 354 b 1022 228 893 246 1014 253 b 967 196 1028 207 1006 194 b 906 254 933 197 915 221 l 890 249 b 889 188 890 249 889 192 b 896 183 889 183 896 183 b 903 190 896 183 900 190 b 967 178 908 190 932 178 b 1061 235 1006 178 1067 190 b 928 324 1051 311 928 279 z m 1104 439 b 1131 413 1104 424 1117 413 b 1158 439 1146 413 1158 424 b 1131 467 1158 454 1146 467 b 1104 439 1117 467 1104 454 z m 1149 213 b 1149 376 1149 213 1149 372 b 1126 376 1149 383 1135 382 b 1072 338 1117 371 1075 347 b 1074 328 1069 328 1074 328 b 1101 328 1074 328 1101 350 l 1101 222 b 1075 192 1101 190 1078 203 b 1085 183 1071 182 1085 183 l 1183 188 l 1190 210 b 1149 213 1190 210 1149 186 z m 1278 385 b 1190 276 1215 379 1186 329 b 1300 188 1196 224 1238 182 b 1393 293 1363 193 1397 242 b 1278 385 1389 346 1342 390 z m 1303 204 b 1238 276 1264 199 1244 236 b 1276 367 1232 314 1238 360 b 1346 294 1315 374 1339 339 b 1303 204 1353 254 1340 210 z m 1624 221 l 1624 310 b 1594 369 1624 321 1626 353 b 1543 372 1574 382 1543 372 l 1485 331 b 1485 374 1485 331 1485 369 b 1471 374 1485 381 1479 379 b 1410 331 1463 368 1413 340 b 1411 321 1407 321 1411 321 b 1439 321 1411 321 1439 343 b 1439 222 1439 321 1439 222 b 1411 192 1439 190 1414 203 b 1421 183 1408 182 1421 183 l 1521 188 l 1524 203 b 1485 221 1524 203 1486 186 l 1485 310 b 1550 349 1485 310 1536 349 b 1576 303 1572 349 1576 336 l 1576 222 b 1558 192 1576 190 1561 203 b 1568 183 1556 182 1568 183 l 1660 188 l 1663 204 b 1624 221 1663 203 1624 186 z "},"(":{"ha":1963,"x_min":0,"x_max":0,"o":"m 982 1351 b 69 440 479 1351 69 943 b 982 -472 69 -62 479 -472 b 1893 440 1485 -472 1893 -62 b 982 1351 1893 943 1485 1351 z m 982 -435 b 106 440 499 -435 106 -43 b 982 1315 106 922 499 1315 b 1857 440 1464 1315 1857 922 b 982 -435 1857 -43 1464 -435 z m 733 729 l 747 729 l 742 829 b 732 842 742 829 744 846 b 694 797 718 838 736 797 l 633 797 b 615 815 624 797 615 806 l 615 911 l 732 911 b 775 864 758 911 775 864 b 783 874 775 864 783 864 b 768 935 783 879 774 917 l 517 935 b 504 924 517 935 500 936 b 556 890 508 911 556 931 l 556 615 b 533 592 556 603 546 592 b 515 586 525 590 517 590 b 528 575 511 572 528 575 l 660 575 l 660 589 b 638 586 660 589 650 586 b 615 611 625 588 615 599 l 615 754 b 635 775 615 765 625 775 l 694 775 b 733 729 731 775 733 729 z m 778 757 b 779 743 775 744 779 743 b 815 743 779 743 815 771 b 815 618 815 743 815 618 b 781 581 815 578 785 593 b 793 569 776 567 793 569 l 931 575 l 935 601 b 875 617 935 601 875 574 l 875 732 b 917 765 885 749 899 765 b 949 731 947 764 949 731 b 996 779 949 731 999 743 b 925 811 993 824 942 815 b 875 756 918 810 894 782 l 875 764 b 875 804 875 778 875 799 b 846 806 875 813 856 814 b 778 757 836 797 782 768 z m 1140 575 b 1176 578 1154 575 1174 578 l 1244 619 b 1213 633 1244 619 1236 644 b 1168 597 1192 624 1196 599 b 1071 690 1121 594 1076 615 b 1221 736 1113 703 1215 735 b 1239 753 1231 738 1240 747 l 1238 768 l 1224 764 b 1121 824 1215 800 1171 828 b 1014 685 1047 817 1008 751 b 1140 575 1019 618 1067 575 z m 1114 797 b 1160 740 1151 806 1178 768 l 1069 708 b 1114 797 1068 753 1081 789 z m 1392 575 b 1428 578 1406 575 1426 578 l 1497 619 b 1465 633 1497 619 1488 644 b 1421 597 1444 624 1449 599 b 1324 690 1374 594 1329 615 b 1474 736 1364 703 1468 735 b 1492 753 1483 738 1493 747 l 1489 768 l 1476 764 b 1374 824 1467 800 1422 828 b 1265 685 1300 817 1260 751 b 1392 575 1271 618 1318 575 z m 1365 797 b 1413 740 1404 806 1431 768 l 1322 708 b 1365 797 1321 753 1333 789 z m 525 471 l 433 467 l 426 449 b 471 436 426 449 481 465 b 396 265 471 436 396 265 l 329 444 b 369 446 318 465 369 446 l 363 464 l 242 475 b 232 467 242 475 228 478 b 279 444 235 458 271 467 l 372 190 b 382 192 374 188 379 183 l 494 449 b 535 463 503 464 532 454 b 525 471 538 474 525 471 z m 663 233 b 628 206 646 226 650 207 b 551 279 590 203 556 219 b 669 314 583 289 665 314 b 683 328 676 317 685 324 l 682 340 l 671 336 b 590 383 664 365 629 388 b 506 275 532 378 501 328 b 606 188 510 222 547 188 b 633 190 617 188 632 190 l 688 222 b 663 233 688 222 681 243 z m 585 363 b 621 318 614 369 635 340 l 550 293 b 585 363 549 328 558 357 z m 817 374 b 778 331 811 372 793 350 l 778 338 b 778 369 778 347 778 364 b 754 369 778 375 763 376 b 701 331 747 364 704 340 b 703 321 699 321 703 321 b 731 321 703 321 731 343 b 731 222 731 321 731 222 b 703 192 731 190 707 203 b 713 183 700 182 713 183 l 821 188 l 825 208 b 778 221 825 208 778 186 l 778 311 b 811 338 785 325 796 338 b 836 311 835 338 836 311 b 872 350 836 311 875 321 b 817 374 871 383 831 378 z m 928 324 b 975 358 928 350 947 360 b 1022 310 997 358 1013 343 l 1035 314 b 1039 374 1035 314 1039 369 b 1032 379 1039 378 1032 379 b 1021 368 1032 379 1028 368 b 974 376 1015 368 1001 376 b 893 314 924 376 894 354 b 1022 228 893 246 1014 253 b 967 196 1028 207 1006 194 b 906 254 933 197 915 221 l 890 249 b 889 188 890 249 889 192 b 896 183 889 183 896 183 b 903 190 896 183 900 190 b 967 178 908 190 932 178 b 1061 235 1006 178 1067 190 b 928 324 1051 311 928 279 z m 1104 439 b 1131 413 1104 424 1117 413 b 1158 439 1146 413 1158 424 b 1131 467 1158 454 1146 467 b 1104 439 1117 467 1104 454 z m 1149 213 b 1149 376 1149 213 1149 372 b 1126 376 1149 383 1135 382 b 1072 338 1117 371 1075 347 b 1074 328 1069 328 1074 328 b 1101 328 1074 328 1101 350 l 1101 222 b 1075 192 1101 190 1078 203 b 1085 183 1071 182 1085 183 l 1183 188 l 1190 210 b 1149 213 1190 210 1149 186 z m 1278 385 b 1190 276 1215 379 1186 329 b 1300 188 1196 224 1238 182 b 1393 293 1363 193 1397 242 b 1278 385 1389 346 1342 390 z m 1303 204 b 1238 276 1264 199 1244 236 b 1276 367 1232 314 1238 360 b 1346 294 1315 374 1339 339 b 1303 204 1353 254 1340 210 z m 1624 221 l 1624 310 b 1594 369 1624 321 1626 353 b 1543 372 1574 382 1543 372 l 1485 331 b 1485 374 1485 331 1485 369 b 1471 374 1485 381 1479 379 b 1410 331 1463 368 1413 340 b 1411 321 1407 321 1411 321 b 1439 321 1411 321 1439 343 b 1439 222 1439 321 1439 222 b 1411 192 1439 190 1414 203 b 1421 183 1408 182 1421 183 l 1521 188 l 1524 203 b 1485 221 1524 203 1486 186 l 1485 310 b 1550 349 1485 310 1536 349 b 1576 303 1572 349 1576 336 l 1576 222 b 1558 192 1576 190 1561 203 b 1568 183 1556 182 1568 183 l 1660 188 l 1663 204 b 1624 221 1663 203 1624 186 z "},")":{"ha":1963,"x_min":0,"x_max":0,"o":"m 982 1351 b 69 440 479 1351 69 943 b 982 -472 69 -62 479 -472 b 1893 440 1485 -472 1893 -62 b 982 1351 1893 943 1485 1351 z m 982 -435 b 106 440 499 -435 106 -43 b 982 1315 106 922 499 1315 b 1857 440 1464 1315 1857 922 b 982 -435 1857 -43 1464 -435 z m 733 729 l 747 729 l 742 829 b 732 842 742 829 744 846 b 694 797 718 838 736 797 l 633 797 b 615 815 624 797 615 806 l 615 911 l 732 911 b 775 864 758 911 775 864 b 783 874 775 864 783 864 b 768 935 783 879 774 917 l 517 935 b 504 924 517 935 500 936 b 556 890 508 911 556 931 l 556 615 b 533 592 556 603 546 592 b 515 586 525 590 517 590 b 528 575 511 572 528 575 l 660 575 l 660 589 b 638 586 660 589 650 586 b 615 611 625 588 615 599 l 615 754 b 635 775 615 765 625 775 l 694 775 b 733 729 731 775 733 729 z m 778 757 b 779 743 775 744 779 743 b 815 743 779 743 815 771 b 815 618 815 743 815 618 b 781 581 815 578 785 593 b 793 569 776 567 793 569 l 931 575 l 935 601 b 875 617 935 601 875 574 l 875 732 b 917 765 885 749 899 765 b 949 731 947 764 949 731 b 996 779 949 731 999 743 b 925 811 993 824 942 815 b 875 756 918 810 894 782 l 875 764 b 875 804 875 778 875 799 b 846 806 875 813 856 814 b 778 757 836 797 782 768 z m 1140 575 b 1176 578 1154 575 1174 578 l 1244 619 b 1213 633 1244 619 1236 644 b 1168 597 1192 624 1196 599 b 1071 690 1121 594 1076 615 b 1221 736 1113 703 1215 735 b 1239 753 1231 738 1240 747 l 1238 768 l 1224 764 b 1121 824 1215 800 1171 828 b 1014 685 1047 817 1008 751 b 1140 575 1019 618 1067 575 z m 1114 797 b 1160 740 1151 806 1178 768 l 1069 708 b 1114 797 1068 753 1081 789 z m 1392 575 b 1428 578 1406 575 1426 578 l 1497 619 b 1465 633 1497 619 1488 644 b 1421 597 1444 624 1449 599 b 1324 690 1374 594 1329 615 b 1474 736 1364 703 1468 735 b 1492 753 1483 738 1493 747 l 1489 768 l 1476 764 b 1374 824 1467 800 1422 828 b 1265 685 1300 817 1260 751 b 1392 575 1271 618 1318 575 z m 1365 797 b 1413 740 1404 806 1431 768 l 1322 708 b 1365 797 1321 753 1333 789 z m 525 471 l 433 467 l 426 449 b 471 436 426 449 481 465 b 396 265 471 436 396 265 l 329 444 b 369 446 318 465 369 446 l 363 464 l 242 475 b 232 467 242 475 228 478 b 279 444 235 458 271 467 l 372 190 b 382 192 374 188 379 183 l 494 449 b 535 463 503 464 532 454 b 525 471 538 474 525 471 z m 663 233 b 628 206 646 226 650 207 b 551 279 590 203 556 219 b 669 314 583 289 665 314 b 683 328 676 317 685 324 l 682 340 l 671 336 b 590 383 664 365 629 388 b 506 275 532 378 501 328 b 606 188 510 222 547 188 b 633 190 617 188 632 190 l 688 222 b 663 233 688 222 681 243 z m 585 363 b 621 318 614 369 635 340 l 550 293 b 585 363 549 328 558 357 z m 817 374 b 778 331 811 372 793 350 l 778 338 b 778 369 778 347 778 364 b 754 369 778 375 763 376 b 701 331 747 364 704 340 b 703 321 699 321 703 321 b 731 321 703 321 731 343 b 731 222 731 321 731 222 b 703 192 731 190 707 203 b 713 183 700 182 713 183 l 821 188 l 825 208 b 778 221 825 208 778 186 l 778 311 b 811 338 785 325 796 338 b 836 311 835 338 836 311 b 872 350 836 311 875 321 b 817 374 871 383 831 378 z m 928 324 b 975 358 928 350 947 360 b 1022 310 997 358 1013 343 l 1035 314 b 1039 374 1035 314 1039 369 b 1032 379 1039 378 1032 379 b 1021 368 1032 379 1028 368 b 974 376 1015 368 1001 376 b 893 314 924 376 894 354 b 1022 228 893 246 1014 253 b 967 196 1028 207 1006 194 b 906 254 933 197 915 221 l 890 249 b 889 188 890 249 889 192 b 896 183 889 183 896 183 b 903 190 896 183 900 190 b 967 178 908 190 932 178 b 1061 235 1006 178 1067 190 b 928 324 1051 311 928 279 z m 1104 439 b 1131 413 1104 424 1117 413 b 1158 439 1146 413 1158 424 b 1131 467 1158 454 1146 467 b 1104 439 1117 467 1104 454 z m 1149 213 b 1149 376 1149 213 1149 372 b 1126 376 1149 383 1135 382 b 1072 338 1117 371 1075 347 b 1074 328 1069 328 1074 328 b 1101 328 1074 328 1101 350 l 1101 222 b 1075 192 1101 190 1078 203 b 1085 183 1071 182 1085 183 l 1183 188 l 1190 210 b 1149 213 1190 210 1149 186 z m 1278 385 b 1190 276 1215 379 1186 329 b 1300 188 1196 224 1238 182 b 1393 293 1363 193 1397 242 b 1278 385 1389 346 1342 390 z m 1303 204 b 1238 276 1264 199 1244 236 b 1276 367 1232 314 1238 360 b 1346 294 1315 374 1339 339 b 1303 204 1353 254 1340 210 z m 1624 221 l 1624 310 b 1594 369 1624 321 1626 353 b 1543 372 1574 382 1543 372 l 1485 331 b 1485 374 1485 331 1485 369 b 1471 374 1485 381 1479 379 b 1410 331 1463 368 1413 340 b 1411 321 1407 321 1411 321 b 1439 321 1411 321 1439 343 b 1439 222 1439 321 1439 222 b 1411 192 1439 190 1414 203 b 1421 183 1408 182 1421 183 l 1521 188 l 1524 203 b 1485 221 1524 203 1486 186 l 1485 310 b 1550 349 1485 310 1536 349 b 1576 303 1572 349 1576 336 l 1576 222 b 1558 192 1576 190 1561 203 b 1568 183 1556 182 1568 183 l 1660 188 l 1663 204 b 1624 221 1663 203 1624 186 z "},"*":{"ha":1963,"x_min":0,"x_max":0,"o":"m 982 1351 b 69 440 479 1351 69 943 b 982 -472 69 -62 479 -472 b 1893 440 1485 -472 1893 -62 b 982 1351 1893 943 1485 1351 z m 982 -435 b 106 440 499 -435 106 -43 b 982 1315 106 922 499 1315 b 1857 440 1464 1315 1857 922 b 982 -435 1857 -43 1464 -435 z m 733 729 l 747 729 l 742 829 b 732 842 742 829 744 846 b 694 797 718 838 736 797 l 633 797 b 615 815 624 797 615 806 l 615 911 l 732 911 b 775 864 758 911 775 864 b 783 874 775 864 783 864 b 768 935 783 879 774 917 l 517 935 b 504 924 517 935 500 936 b 556 890 508 911 556 931 l 556 615 b 533 592 556 603 546 592 b 515 586 525 590 517 590 b 528 575 511 572 528 575 l 660 575 l 660 589 b 638 586 660 589 650 586 b 615 611 625 588 615 599 l 615 754 b 635 775 615 765 625 775 l 694 775 b 733 729 731 775 733 729 z m 778 757 b 779 743 775 744 779 743 b 815 743 779 743 815 771 b 815 618 815 743 815 618 b 781 581 815 578 785 593 b 793 569 776 567 793 569 l 931 575 l 935 601 b 875 617 935 601 875 574 l 875 732 b 917 765 885 749 899 765 b 949 731 947 764 949 731 b 996 779 949 731 999 743 b 925 811 993 824 942 815 b 875 756 918 810 894 782 l 875 764 b 875 804 875 778 875 799 b 846 806 875 813 856 814 b 778 757 836 797 782 768 z m 1140 575 b 1176 578 1154 575 1174 578 l 1244 619 b 1213 633 1244 619 1236 644 b 1168 597 1192 624 1196 599 b 1071 690 1121 594 1076 615 b 1221 736 1113 703 1215 735 b 1239 753 1231 738 1240 747 l 1238 768 l 1224 764 b 1121 824 1215 800 1171 828 b 1014 685 1047 817 1008 751 b 1140 575 1019 618 1067 575 z m 1114 797 b 1160 740 1151 806 1178 768 l 1069 708 b 1114 797 1068 753 1081 789 z m 1392 575 b 1428 578 1406 575 1426 578 l 1497 619 b 1465 633 1497 619 1488 644 b 1421 597 1444 624 1449 599 b 1324 690 1374 594 1329 615 b 1474 736 1364 703 1468 735 b 1492 753 1483 738 1493 747 l 1489 768 l 1476 764 b 1374 824 1467 800 1422 828 b 1265 685 1300 817 1260 751 b 1392 575 1271 618 1318 575 z m 1365 797 b 1413 740 1404 806 1431 768 l 1322 708 b 1365 797 1321 753 1333 789 z m 525 471 l 433 467 l 426 449 b 471 436 426 449 481 465 b 396 265 471 436 396 265 l 329 444 b 369 446 318 465 369 446 l 363 464 l 242 475 b 232 467 242 475 228 478 b 279 444 235 458 271 467 l 372 190 b 382 192 374 188 379 183 l 494 449 b 535 463 503 464 532 454 b 525 471 538 474 525 471 z m 663 233 b 628 206 646 226 650 207 b 551 279 590 203 556 219 b 669 314 583 289 665 314 b 683 328 676 317 685 324 l 682 340 l 671 336 b 590 383 664 365 629 388 b 506 275 532 378 501 328 b 606 188 510 222 547 188 b 633 190 617 188 632 190 l 688 222 b 663 233 688 222 681 243 z m 585 363 b 621 318 614 369 635 340 l 550 293 b 585 363 549 328 558 357 z m 817 374 b 778 331 811 372 793 350 l 778 338 b 778 369 778 347 778 364 b 754 369 778 375 763 376 b 701 331 747 364 704 340 b 703 321 699 321 703 321 b 731 321 703 321 731 343 b 731 222 731 321 731 222 b 703 192 731 190 707 203 b 713 183 700 182 713 183 l 821 188 l 825 208 b 778 221 825 208 778 186 l 778 311 b 811 338 785 325 796 338 b 836 311 835 338 836 311 b 872 350 836 311 875 321 b 817 374 871 383 831 378 z m 928 324 b 975 358 928 350 947 360 b 1022 310 997 358 1013 343 l 1035 314 b 1039 374 1035 314 1039 369 b 1032 379 1039 378 1032 379 b 1021 368 1032 379 1028 368 b 974 376 1015 368 1001 376 b 893 314 924 376 894 354 b 1022 228 893 246 1014 253 b 967 196 1028 207 1006 194 b 906 254 933 197 915 221 l 890 249 b 889 188 890 249 889 192 b 896 183 889 183 896 183 b 903 190 896 183 900 190 b 967 178 908 190 932 178 b 1061 235 1006 178 1067 190 b 928 324 1051 311 928 279 z m 1104 439 b 1131 413 1104 424 1117 413 b 1158 439 1146 413 1158 424 b 1131 467 1158 454 1146 467 b 1104 439 1117 467 1104 454 z m 1149 213 b 1149 376 1149 213 1149 372 b 1126 376 1149 383 1135 382 b 1072 338 1117 371 1075 347 b 1074 328 1069 328 1074 328 b 1101 328 1074 328 1101 350 l 1101 222 b 1075 192 1101 190 1078 203 b 1085 183 1071 182 1085 183 l 1183 188 l 1190 210 b 1149 213 1190 210 1149 186 z m 1278 385 b 1190 276 1215 379 1186 329 b 1300 188 1196 224 1238 182 b 1393 293 1363 193 1397 242 b 1278 385 1389 346 1342 390 z m 1303 204 b 1238 276 1264 199 1244 236 b 1276 367 1232 314 1238 360 b 1346 294 1315 374 1339 339 b 1303 204 1353 254 1340 210 z m 1624 221 l 1624 310 b 1594 369 1624 321 1626 353 b 1543 372 1574 382 1543 372 l 1485 331 b 1485 374 1485 331 1485 369 b 1471 374 1485 381 1479 379 b 1410 331 1463 368 1413 340 b 1411 321 1407 321 1411 321 b 1439 321 1411 321 1439 343 b 1439 222 1439 321 1439 222 b 1411 192 1439 190 1414 203 b 1421 183 1408 182 1421 183 l 1521 188 l 1524 203 b 1485 221 1524 203 1486 186 l 1485 310 b 1550 349 1485 310 1536 349 b 1576 303 1572 349 1576 336 l 1576 222 b 1558 192 1576 190 1561 203 b 1568 183 1556 182 1568 183 l 1660 188 l 1663 204 b 1624 221 1663 203 1624 186 z "},"+":{"ha":1963,"x_min":0,"x_max":0,"o":"m 982 1351 b 69 440 479 1351 69 943 b 982 -472 69 -62 479 -472 b 1893 440 1485 -472 1893 -62 b 982 1351 1893 943 1485 1351 z m 982 -435 b 106 440 499 -435 106 -43 b 982 1315 106 922 499 1315 b 1857 440 1464 1315 1857 922 b 982 -435 1857 -43 1464 -435 z m 733 729 l 747 729 l 742 829 b 732 842 742 829 744 846 b 694 797 718 838 736 797 l 633 797 b 615 815 624 797 615 806 l 615 911 l 732 911 b 775 864 758 911 775 864 b 783 874 775 864 783 864 b 768 935 783 879 774 917 l 517 935 b 504 924 517 935 500 936 b 556 890 508 911 556 931 l 556 615 b 533 592 556 603 546 592 b 515 586 525 590 517 590 b 528 575 511 572 528 575 l 660 575 l 660 589 b 638 586 660 589 650 586 b 615 611 625 588 615 599 l 615 754 b 635 775 615 765 625 775 l 694 775 b 733 729 731 775 733 729 z m 778 757 b 779 743 775 744 779 743 b 815 743 779 743 815 771 b 815 618 815 743 815 618 b 781 581 815 578 785 593 b 793 569 776 567 793 569 l 931 575 l 935 601 b 875 617 935 601 875 574 l 875 732 b 917 765 885 749 899 765 b 949 731 947 764 949 731 b 996 779 949 731 999 743 b 925 811 993 824 942 815 b 875 756 918 810 894 782 l 875 764 b 875 804 875 778 875 799 b 846 806 875 813 856 814 b 778 757 836 797 782 768 z m 1140 575 b 1176 578 1154 575 1174 578 l 1244 619 b 1213 633 1244 619 1236 644 b 1168 597 1192 624 1196 599 b 1071 690 1121 594 1076 615 b 1221 736 1113 703 1215 735 b 1239 753 1231 738 1240 747 l 1238 768 l 1224 764 b 1121 824 1215 800 1171 828 b 1014 685 1047 817 1008 751 b 1140 575 1019 618 1067 575 z m 1114 797 b 1160 740 1151 806 1178 768 l 1069 708 b 1114 797 1068 753 1081 789 z m 1392 575 b 1428 578 1406 575 1426 578 l 1497 619 b 1465 633 1497 619 1488 644 b 1421 597 1444 624 1449 599 b 1324 690 1374 594 1329 615 b 1474 736 1364 703 1468 735 b 1492 753 1483 738 1493 747 l 1489 768 l 1476 764 b 1374 824 1467 800 1422 828 b 1265 685 1300 817 1260 751 b 1392 575 1271 618 1318 575 z m 1365 797 b 1413 740 1404 806 1431 768 l 1322 708 b 1365 797 1321 753 1333 789 z m 525 471 l 433 467 l 426 449 b 471 436 426 449 481 465 b 396 265 471 436 396 265 l 329 444 b 369 446 318 465 369 446 l 363 464 l 242 475 b 232 467 242 475 228 478 b 279 444 235 458 271 467 l 372 190 b 382 192 374 188 379 183 l 494 449 b 535 463 503 464 532 454 b 525 471 538 474 525 471 z m 663 233 b 628 206 646 226 650 207 b 551 279 590 203 556 219 b 669 314 583 289 665 314 b 683 328 676 317 685 324 l 682 340 l 671 336 b 590 383 664 365 629 388 b 506 275 532 378 501 328 b 606 188 510 222 547 188 b 633 190 617 188 632 190 l 688 222 b 663 233 688 222 681 243 z m 585 363 b 621 318 614 369 635 340 l 550 293 b 585 363 549 328 558 357 z m 817 374 b 778 331 811 372 793 350 l 778 338 b 778 369 778 347 778 364 b 754 369 778 375 763 376 b 701 331 747 364 704 340 b 703 321 699 321 703 321 b 731 321 703 321 731 343 b 731 222 731 321 731 222 b 703 192 731 190 707 203 b 713 183 700 182 713 183 l 821 188 l 825 208 b 778 221 825 208 778 186 l 778 311 b 811 338 785 325 796 338 b 836 311 835 338 836 311 b 872 350 836 311 875 321 b 817 374 871 383 831 378 z m 928 324 b 975 358 928 350 947 360 b 1022 310 997 358 1013 343 l 1035 314 b 1039 374 1035 314 1039 369 b 1032 379 1039 378 1032 379 b 1021 368 1032 379 1028 368 b 974 376 1015 368 1001 376 b 893 314 924 376 894 354 b 1022 228 893 246 1014 253 b 967 196 1028 207 1006 194 b 906 254 933 197 915 221 l 890 249 b 889 188 890 249 889 192 b 896 183 889 183 896 183 b 903 190 896 183 900 190 b 967 178 908 190 932 178 b 1061 235 1006 178 1067 190 b 928 324 1051 311 928 279 z m 1104 439 b 1131 413 1104 424 1117 413 b 1158 439 1146 413 1158 424 b 1131 467 1158 454 1146 467 b 1104 439 1117 467 1104 454 z m 1149 213 b 1149 376 1149 213 1149 372 b 1126 376 1149 383 1135 382 b 1072 338 1117 371 1075 347 b 1074 328 1069 328 1074 328 b 1101 328 1074 328 1101 350 l 1101 222 b 1075 192 1101 190 1078 203 b 1085 183 1071 182 1085 183 l 1183 188 l 1190 210 b 1149 213 1190 210 1149 186 z m 1278 385 b 1190 276 1215 379 1186 329 b 1300 188 1196 224 1238 182 b 1393 293 1363 193 1397 242 b 1278 385 1389 346 1342 390 z m 1303 204 b 1238 276 1264 199 1244 236 b 1276 367 1232 314 1238 360 b 1346 294 1315 374 1339 339 b 1303 204 1353 254 1340 210 z m 1624 221 l 1624 310 b 1594 369 1624 321 1626 353 b 1543 372 1574 382 1543 372 l 1485 331 b 1485 374 1485 331 1485 369 b 1471 374 1485 381 1479 379 b 1410 331 1463 368 1413 340 b 1411 321 1407 321 1411 321 b 1439 321 1411 321 1439 343 b 1439 222 1439 321 1439 222 b 1411 192 1439 190 1414 203 b 1421 183 1408 182 1421 183 l 1521 188 l 1524 203 b 1485 221 1524 203 1486 186 l 1485 310 b 1550 349 1485 310 1536 349 b 1576 303 1572 349 1576 336 l 1576 222 b 1558 192 1576 190 1561 203 b 1568 183 1556 182 1568 183 l 1660 188 l 1663 204 b 1624 221 1663 203 1624 186 z "},",":{"ha":343,"x_min":0,"x_max":0,"o":"m 54 86 l 54 111 l 49 111 l 49 86 z m 257 296 b 265 269 263 288 265 279 l 265 -40 b 211 -94 265 -71 242 -94 l 107 -94 b 97 -93 104 -94 101 -93 b 143 -119 107 -108 124 -119 l 247 -119 b 301 -67 276 -119 301 -96 l 301 243 b 257 296 301 269 282 290 z m 211 -68 b 239 -40 226 -68 239 -56 l 239 269 b 211 296 239 283 226 296 l 67 296 b 39 269 51 296 39 283 l 39 138 l 81 138 l 81 -40 b 107 -68 81 -56 93 -68 z m 138 -54 l 118 -54 b 169 -21 129 -47 146 -37 b 192 -7 176 -17 183 -12 b 138 -54 157 -36 143 -47 z m 196 -54 l 158 -54 l 219 -19 b 196 -54 214 -28 204 -42 z m 225 -37 b 214 -43 222 -39 219 -40 b 225 -28 218 -37 222 -32 z m 225 -4 l 174 -33 b 203 -10 183 -25 194 -17 b 225 8 213 -3 219 4 z m 225 24 b 165 -12 217 21 201 11 b 115 -44 149 -24 129 -36 b 197 18 135 -28 174 1 b 225 39 210 28 218 35 z m 225 51 l 106 -17 b 225 71 119 -3 153 22 z m 169 64 b 94 8 146 46 118 26 l 94 21 z m 94 32 l 94 43 b 183 94 104 49 126 60 b 106 40 156 74 122 51 b 94 32 101 38 97 35 z m 136 22 b 156 35 142 25 149 29 b 94 -14 122 10 104 -4 l 94 -4 b 136 22 100 -1 111 6 z m 225 85 b 196 71 218 83 210 79 b 225 93 210 81 218 88 z m 225 106 l 183 82 b 225 114 204 97 217 107 z m 225 131 b 103 58 186 107 129 74 b 215 143 128 81 190 126 b 225 150 219 147 222 149 z m 94 64 l 94 78 b 168 122 117 90 143 107 b 94 64 128 92 106 75 z m 225 164 b 150 122 217 161 197 150 l 225 182 z m 94 90 l 94 107 b 168 149 104 111 124 121 z m 225 194 b 196 176 219 192 211 186 b 110 125 174 163 135 139 b 188 188 131 143 164 169 b 225 217 207 203 218 211 z m 94 125 l 94 144 l 181 194 b 94 125 132 156 107 136 z m 225 231 l 128 175 b 194 221 149 190 176 208 b 225 242 208 231 218 238 z m 225 257 b 133 203 213 254 189 238 b 110 188 126 197 118 192 b 138 206 119 193 129 200 b 225 265 190 240 214 256 z m 186 282 l 211 282 b 221 278 215 282 218 279 b 76 190 176 250 113 211 b 101 210 83 197 93 204 b 186 282 158 253 181 271 z m 121 282 l 163 282 b 143 268 157 278 151 274 b 56 215 119 253 72 222 b 88 247 63 222 76 236 b 121 282 108 267 118 276 z m 71 282 l 101 282 b 57 254 89 274 69 261 b 71 282 65 269 68 276 z m 53 269 b 56 275 53 271 54 274 l 58 276 b 53 268 57 274 54 271 z m 53 243 b 93 265 60 244 71 251 b 81 254 89 261 85 257 b 53 226 68 242 60 233 z m 53 204 b 149 261 67 207 96 226 b 163 271 153 264 158 268 b 96 218 146 256 115 233 b 53 185 74 201 61 192 z m 53 168 b 118 204 61 172 78 181 b 53 160 82 181 64 168 z m 85 151 l 71 151 b 139 194 85 160 106 174 b 143 197 140 196 142 196 b 85 151 106 171 90 158 z m 97 -49 b 94 -40 96 -47 94 -44 l 94 -35 l 167 8 b 97 -49 124 -25 104 -40 z "},"-":{"ha":1963,"x_min":0,"x_max":0,"o":"m 982 1351 b 69 440 479 1351 69 943 b 982 -472 69 -62 479 -472 b 1893 440 1485 -472 1893 -62 b 982 1351 1893 943 1485 1351 z m 982 -435 b 106 440 499 -435 106 -43 b 982 1315 106 922 499 1315 b 1857 440 1464 1315 1857 922 b 982 -435 1857 -43 1464 -435 z m 733 729 l 747 729 l 742 829 b 732 842 742 829 744 846 b 694 797 718 838 736 797 l 633 797 b 615 815 624 797 615 806 l 615 911 l 732 911 b 775 864 758 911 775 864 b 783 874 775 864 783 864 b 768 935 783 879 774 917 l 517 935 b 504 924 517 935 500 936 b 556 890 508 911 556 931 l 556 615 b 533 592 556 603 546 592 b 515 586 525 590 517 590 b 528 575 511 572 528 575 l 660 575 l 660 589 b 638 586 660 589 650 586 b 615 611 625 588 615 599 l 615 754 b 635 775 615 765 625 775 l 694 775 b 733 729 731 775 733 729 z m 778 757 b 779 743 775 744 779 743 b 815 743 779 743 815 771 b 815 618 815 743 815 618 b 781 581 815 578 785 593 b 793 569 776 567 793 569 l 931 575 l 935 601 b 875 617 935 601 875 574 l 875 732 b 917 765 885 749 899 765 b 949 731 947 764 949 731 b 996 779 949 731 999 743 b 925 811 993 824 942 815 b 875 756 918 810 894 782 l 875 764 b 875 804 875 778 875 799 b 846 806 875 813 856 814 b 778 757 836 797 782 768 z m 1140 575 b 1176 578 1154 575 1174 578 l 1244 619 b 1213 633 1244 619 1236 644 b 1168 597 1192 624 1196 599 b 1071 690 1121 594 1076 615 b 1221 736 1113 703 1215 735 b 1239 753 1231 738 1240 747 l 1238 768 l 1224 764 b 1121 824 1215 800 1171 828 b 1014 685 1047 817 1008 751 b 1140 575 1019 618 1067 575 z m 1114 797 b 1160 740 1151 806 1178 768 l 1069 708 b 1114 797 1068 753 1081 789 z m 1392 575 b 1428 578 1406 575 1426 578 l 1497 619 b 1465 633 1497 619 1488 644 b 1421 597 1444 624 1449 599 b 1324 690 1374 594 1329 615 b 1474 736 1364 703 1468 735 b 1492 753 1483 738 1493 747 l 1489 768 l 1476 764 b 1374 824 1467 800 1422 828 b 1265 685 1300 817 1260 751 b 1392 575 1271 618 1318 575 z m 1365 797 b 1413 740 1404 806 1431 768 l 1322 708 b 1365 797 1321 753 1333 789 z m 525 471 l 433 467 l 426 449 b 471 436 426 449 481 465 b 396 265 471 436 396 265 l 329 444 b 369 446 318 465 369 446 l 363 464 l 242 475 b 232 467 242 475 228 478 b 279 444 235 458 271 467 l 372 190 b 382 192 374 188 379 183 l 494 449 b 535 463 503 464 532 454 b 525 471 538 474 525 471 z m 663 233 b 628 206 646 226 650 207 b 551 279 590 203 556 219 b 669 314 583 289 665 314 b 683 328 676 317 685 324 l 682 340 l 671 336 b 590 383 664 365 629 388 b 506 275 532 378 501 328 b 606 188 510 222 547 188 b 633 190 617 188 632 190 l 688 222 b 663 233 688 222 681 243 z m 585 363 b 621 318 614 369 635 340 l 550 293 b 585 363 549 328 558 357 z m 817 374 b 778 331 811 372 793 350 l 778 338 b 778 369 778 347 778 364 b 754 369 778 375 763 376 b 701 331 747 364 704 340 b 703 321 699 321 703 321 b 731 321 703 321 731 343 b 731 222 731 321 731 222 b 703 192 731 190 707 203 b 713 183 700 182 713 183 l 821 188 l 825 208 b 778 221 825 208 778 186 l 778 311 b 811 338 785 325 796 338 b 836 311 835 338 836 311 b 872 350 836 311 875 321 b 817 374 871 383 831 378 z m 928 324 b 975 358 928 350 947 360 b 1022 310 997 358 1013 343 l 1035 314 b 1039 374 1035 314 1039 369 b 1032 379 1039 378 1032 379 b 1021 368 1032 379 1028 368 b 974 376 1015 368 1001 376 b 893 314 924 376 894 354 b 1022 228 893 246 1014 253 b 967 196 1028 207 1006 194 b 906 254 933 197 915 221 l 890 249 b 889 188 890 249 889 192 b 896 183 889 183 896 183 b 903 190 896 183 900 190 b 967 178 908 190 932 178 b 1061 235 1006 178 1067 190 b 928 324 1051 311 928 279 z m 1104 439 b 1131 413 1104 424 1117 413 b 1158 439 1146 413 1158 424 b 1131 467 1158 454 1146 467 b 1104 439 1117 467 1104 454 z m 1149 213 b 1149 376 1149 213 1149 372 b 1126 376 1149 383 1135 382 b 1072 338 1117 371 1075 347 b 1074 328 1069 328 1074 328 b 1101 328 1074 328 1101 350 l 1101 222 b 1075 192 1101 190 1078 203 b 1085 183 1071 182 1085 183 l 1183 188 l 1190 210 b 1149 213 1190 210 1149 186 z m 1278 385 b 1190 276 1215 379 1186 329 b 1300 188 1196 224 1238 182 b 1393 293 1363 193 1397 242 b 1278 385 1389 346 1342 390 z m 1303 204 b 1238 276 1264 199 1244 236 b 1276 367 1232 314 1238 360 b 1346 294 1315 374 1339 339 b 1303 204 1353 254 1340 210 z m 1624 221 l 1624 310 b 1594 369 1624 321 1626 353 b 1543 372 1574 382 1543 372 l 1485 331 b 1485 374 1485 331 1485 369 b 1471 374 1485 381 1479 379 b 1410 331 1463 368 1413 340 b 1411 321 1407 321 1411 321 b 1439 321 1411 321 1439 343 b 1439 222 1439 321 1439 222 b 1411 192 1439 190 1414 203 b 1421 183 1408 182 1421 183 l 1521 188 l 1524 203 b 1485 221 1524 203 1486 186 l 1485 310 b 1550 349 1485 310 1536 349 b 1576 303 1572 349 1576 336 l 1576 222 b 1558 192 1576 190 1561 203 b 1568 183 1556 182 1568 183 l 1660 188 l 1663 204 b 1624 221 1663 203 1624 186 z "},".":{"ha":269,"x_min":0,"x_max":0,"o":"m 190 224 b 199 197 194 215 199 207 l 199 93 b 144 39 199 63 174 39 l 61 39 b 50 40 57 39 54 40 b 96 14 60 25 76 14 l 181 14 b 233 67 210 14 233 38 l 233 172 b 190 224 233 197 215 218 z m 144 65 b 171 93 160 65 171 78 l 171 197 b 144 224 171 213 160 224 l 61 224 b 33 197 46 224 33 213 l 33 93 b 61 65 33 78 46 65 z m 97 79 l 74 79 l 131 113 b 97 79 111 94 101 85 z m 142 79 l 118 79 b 153 100 131 88 144 94 b 142 79 150 94 146 88 z m 157 114 b 128 97 153 111 144 106 b 157 125 138 106 147 115 z m 157 139 l 81 94 b 157 160 94 107 118 128 z m 157 172 l 104 142 b 157 185 132 164 149 176 z m 144 210 b 157 199 151 210 156 204 b 86 158 149 194 131 183 b 76 151 83 156 79 154 b 132 210 114 188 128 203 z m 65 210 l 107 210 b 81 193 100 206 92 200 b 50 174 69 186 57 178 b 60 197 53 181 57 190 b 65 210 63 203 64 207 z m 47 197 b 50 203 47 200 49 201 b 53 204 51 204 51 204 b 50 201 51 203 51 201 b 47 194 50 199 49 196 z m 47 161 b 85 185 53 164 64 171 b 115 204 94 190 107 199 b 47 139 106 193 86 174 z m 47 124 b 92 150 54 128 65 135 b 119 165 100 154 110 161 b 47 111 97 149 69 128 z m 47 93 l 47 99 l 115 138 b 56 82 75 104 61 90 b 47 93 51 85 47 88 z "},"/":{"ha":1963,"x_min":0,"x_max":0,"o":"m 982 1351 b 69 440 479 1351 69 943 b 982 -472 69 -62 479 -472 b 1893 440 1485 -472 1893 -62 b 982 1351 1893 943 1485 1351 z m 982 -435 b 106 440 499 -435 106 -43 b 982 1315 106 922 499 1315 b 1857 440 1464 1315 1857 922 b 982 -435 1857 -43 1464 -435 z m 733 729 l 747 729 l 742 829 b 732 842 742 829 744 846 b 694 797 718 838 736 797 l 633 797 b 615 815 624 797 615 806 l 615 911 l 732 911 b 775 864 758 911 775 864 b 783 874 775 864 783 864 b 768 935 783 879 774 917 l 517 935 b 504 924 517 935 500 936 b 556 890 508 911 556 931 l 556 615 b 533 592 556 603 546 592 b 515 586 525 590 517 590 b 528 575 511 572 528 575 l 660 575 l 660 589 b 638 586 660 589 650 586 b 615 611 625 588 615 599 l 615 754 b 635 775 615 765 625 775 l 694 775 b 733 729 731 775 733 729 z m 778 757 b 779 743 775 744 779 743 b 815 743 779 743 815 771 b 815 618 815 743 815 618 b 781 581 815 578 785 593 b 793 569 776 567 793 569 l 931 575 l 935 601 b 875 617 935 601 875 574 l 875 732 b 917 765 885 749 899 765 b 949 731 947 764 949 731 b 996 779 949 731 999 743 b 925 811 993 824 942 815 b 875 756 918 810 894 782 l 875 764 b 875 804 875 778 875 799 b 846 806 875 813 856 814 b 778 757 836 797 782 768 z m 1140 575 b 1176 578 1154 575 1174 578 l 1244 619 b 1213 633 1244 619 1236 644 b 1168 597 1192 624 1196 599 b 1071 690 1121 594 1076 615 b 1221 736 1113 703 1215 735 b 1239 753 1231 738 1240 747 l 1238 768 l 1224 764 b 1121 824 1215 800 1171 828 b 1014 685 1047 817 1008 751 b 1140 575 1019 618 1067 575 z m 1114 797 b 1160 740 1151 806 1178 768 l 1069 708 b 1114 797 1068 753 1081 789 z m 1392 575 b 1428 578 1406 575 1426 578 l 1497 619 b 1465 633 1497 619 1488 644 b 1421 597 1444 624 1449 599 b 1324 690 1374 594 1329 615 b 1474 736 1364 703 1468 735 b 1492 753 1483 738 1493 747 l 1489 768 l 1476 764 b 1374 824 1467 800 1422 828 b 1265 685 1300 817 1260 751 b 1392 575 1271 618 1318 575 z m 1365 797 b 1413 740 1404 806 1431 768 l 1322 708 b 1365 797 1321 753 1333 789 z m 525 471 l 433 467 l 426 449 b 471 436 426 449 481 465 b 396 265 471 436 396 265 l 329 444 b 369 446 318 465 369 446 l 363 464 l 242 475 b 232 467 242 475 228 478 b 279 444 235 458 271 467 l 372 190 b 382 192 374 188 379 183 l 494 449 b 535 463 503 464 532 454 b 525 471 538 474 525 471 z m 663 233 b 628 206 646 226 650 207 b 551 279 590 203 556 219 b 669 314 583 289 665 314 b 683 328 676 317 685 324 l 682 340 l 671 336 b 590 383 664 365 629 388 b 506 275 532 378 501 328 b 606 188 510 222 547 188 b 633 190 617 188 632 190 l 688 222 b 663 233 688 222 681 243 z m 585 363 b 621 318 614 369 635 340 l 550 293 b 585 363 549 328 558 357 z m 817 374 b 778 331 811 372 793 350 l 778 338 b 778 369 778 347 778 364 b 754 369 778 375 763 376 b 701 331 747 364 704 340 b 703 321 699 321 703 321 b 731 321 703 321 731 343 b 731 222 731 321 731 222 b 703 192 731 190 707 203 b 713 183 700 182 713 183 l 821 188 l 825 208 b 778 221 825 208 778 186 l 778 311 b 811 338 785 325 796 338 b 836 311 835 338 836 311 b 872 350 836 311 875 321 b 817 374 871 383 831 378 z m 928 324 b 975 358 928 350 947 360 b 1022 310 997 358 1013 343 l 1035 314 b 1039 374 1035 314 1039 369 b 1032 379 1039 378 1032 379 b 1021 368 1032 379 1028 368 b 974 376 1015 368 1001 376 b 893 314 924 376 894 354 b 1022 228 893 246 1014 253 b 967 196 1028 207 1006 194 b 906 254 933 197 915 221 l 890 249 b 889 188 890 249 889 192 b 896 183 889 183 896 183 b 903 190 896 183 900 190 b 967 178 908 190 932 178 b 1061 235 1006 178 1067 190 b 928 324 1051 311 928 279 z m 1104 439 b 1131 413 1104 424 1117 413 b 1158 439 1146 413 1158 424 b 1131 467 1158 454 1146 467 b 1104 439 1117 467 1104 454 z m 1149 213 b 1149 376 1149 213 1149 372 b 1126 376 1149 383 1135 382 b 1072 338 1117 371 1075 347 b 1074 328 1069 328 1074 328 b 1101 328 1074 328 1101 350 l 1101 222 b 1075 192 1101 190 1078 203 b 1085 183 1071 182 1085 183 l 1183 188 l 1190 210 b 1149 213 1190 210 1149 186 z m 1278 385 b 1190 276 1215 379 1186 329 b 1300 188 1196 224 1238 182 b 1393 293 1363 193 1397 242 b 1278 385 1389 346 1342 390 z m 1303 204 b 1238 276 1264 199 1244 236 b 1276 367 1232 314 1238 360 b 1346 294 1315 374 1339 339 b 1303 204 1353 254 1340 210 z m 1624 221 l 1624 310 b 1594 369 1624 321 1626 353 b 1543 372 1574 382 1543 372 l 1485 331 b 1485 374 1485 331 1485 369 b 1471 374 1485 381 1479 379 b 1410 331 1463 368 1413 340 b 1411 321 1407 321 1411 321 b 1439 321 1411 321 1439 343 b 1439 222 1439 321 1439 222 b 1411 192 1439 190 1414 203 b 1421 183 1408 182 1421 183 l 1521 188 l 1524 203 b 1485 221 1524 203 1486 186 l 1485 310 b 1550 349 1485 310 1536 349 b 1576 303 1572 349 1576 336 l 1576 222 b 1558 192 1576 190 1561 203 b 1568 183 1556 182 1568 183 l 1660 188 l 1663 204 b 1624 221 1663 203 1624 186 z "},":":{"ha":1963,"x_min":0,"x_max":0,"o":"m 982 1351 b 69 440 479 1351 69 943 b 982 -472 69 -62 479 -472 b 1893 440 1485 -472 1893 -62 b 982 1351 1893 943 1485 1351 z m 982 -435 b 106 440 499 -435 106 -43 b 982 1315 106 922 499 1315 b 1857 440 1464 1315 1857 922 b 982 -435 1857 -43 1464 -435 z m 733 729 l 747 729 l 742 829 b 732 842 742 829 744 846 b 694 797 718 838 736 797 l 633 797 b 615 815 624 797 615 806 l 615 911 l 732 911 b 775 864 758 911 775 864 b 783 874 775 864 783 864 b 768 935 783 879 774 917 l 517 935 b 504 924 517 935 500 936 b 556 890 508 911 556 931 l 556 615 b 533 592 556 603 546 592 b 515 586 525 590 517 590 b 528 575 511 572 528 575 l 660 575 l 660 589 b 638 586 660 589 650 586 b 615 611 625 588 615 599 l 615 754 b 635 775 615 765 625 775 l 694 775 b 733 729 731 775 733 729 z m 778 757 b 779 743 775 744 779 743 b 815 743 779 743 815 771 b 815 618 815 743 815 618 b 781 581 815 578 785 593 b 793 569 776 567 793 569 l 931 575 l 935 601 b 875 617 935 601 875 574 l 875 732 b 917 765 885 749 899 765 b 949 731 947 764 949 731 b 996 779 949 731 999 743 b 925 811 993 824 942 815 b 875 756 918 810 894 782 l 875 764 b 875 804 875 778 875 799 b 846 806 875 813 856 814 b 778 757 836 797 782 768 z m 1140 575 b 1176 578 1154 575 1174 578 l 1244 619 b 1213 633 1244 619 1236 644 b 1168 597 1192 624 1196 599 b 1071 690 1121 594 1076 615 b 1221 736 1113 703 1215 735 b 1239 753 1231 738 1240 747 l 1238 768 l 1224 764 b 1121 824 1215 800 1171 828 b 1014 685 1047 817 1008 751 b 1140 575 1019 618 1067 575 z m 1114 797 b 1160 740 1151 806 1178 768 l 1069 708 b 1114 797 1068 753 1081 789 z m 1392 575 b 1428 578 1406 575 1426 578 l 1497 619 b 1465 633 1497 619 1488 644 b 1421 597 1444 624 1449 599 b 1324 690 1374 594 1329 615 b 1474 736 1364 703 1468 735 b 1492 753 1483 738 1493 747 l 1489 768 l 1476 764 b 1374 824 1467 800 1422 828 b 1265 685 1300 817 1260 751 b 1392 575 1271 618 1318 575 z m 1365 797 b 1413 740 1404 806 1431 768 l 1322 708 b 1365 797 1321 753 1333 789 z m 525 471 l 433 467 l 426 449 b 471 436 426 449 481 465 b 396 265 471 436 396 265 l 329 444 b 369 446 318 465 369 446 l 363 464 l 242 475 b 232 467 242 475 228 478 b 279 444 235 458 271 467 l 372 190 b 382 192 374 188 379 183 l 494 449 b 535 463 503 464 532 454 b 525 471 538 474 525 471 z m 663 233 b 628 206 646 226 650 207 b 551 279 590 203 556 219 b 669 314 583 289 665 314 b 683 328 676 317 685 324 l 682 340 l 671 336 b 590 383 664 365 629 388 b 506 275 532 378 501 328 b 606 188 510 222 547 188 b 633 190 617 188 632 190 l 688 222 b 663 233 688 222 681 243 z m 585 363 b 621 318 614 369 635 340 l 550 293 b 585 363 549 328 558 357 z m 817 374 b 778 331 811 372 793 350 l 778 338 b 778 369 778 347 778 364 b 754 369 778 375 763 376 b 701 331 747 364 704 340 b 703 321 699 321 703 321 b 731 321 703 321 731 343 b 731 222 731 321 731 222 b 703 192 731 190 707 203 b 713 183 700 182 713 183 l 821 188 l 825 208 b 778 221 825 208 778 186 l 778 311 b 811 338 785 325 796 338 b 836 311 835 338 836 311 b 872 350 836 311 875 321 b 817 374 871 383 831 378 z m 928 324 b 975 358 928 350 947 360 b 1022 310 997 358 1013 343 l 1035 314 b 1039 374 1035 314 1039 369 b 1032 379 1039 378 1032 379 b 1021 368 1032 379 1028 368 b 974 376 1015 368 1001 376 b 893 314 924 376 894 354 b 1022 228 893 246 1014 253 b 967 196 1028 207 1006 194 b 906 254 933 197 915 221 l 890 249 b 889 188 890 249 889 192 b 896 183 889 183 896 183 b 903 190 896 183 900 190 b 967 178 908 190 932 178 b 1061 235 1006 178 1067 190 b 928 324 1051 311 928 279 z m 1104 439 b 1131 413 1104 424 1117 413 b 1158 439 1146 413 1158 424 b 1131 467 1158 454 1146 467 b 1104 439 1117 467 1104 454 z m 1149 213 b 1149 376 1149 213 1149 372 b 1126 376 1149 383 1135 382 b 1072 338 1117 371 1075 347 b 1074 328 1069 328 1074 328 b 1101 328 1074 328 1101 350 l 1101 222 b 1075 192 1101 190 1078 203 b 1085 183 1071 182 1085 183 l 1183 188 l 1190 210 b 1149 213 1190 210 1149 186 z m 1278 385 b 1190 276 1215 379 1186 329 b 1300 188 1196 224 1238 182 b 1393 293 1363 193 1397 242 b 1278 385 1389 346 1342 390 z m 1303 204 b 1238 276 1264 199 1244 236 b 1276 367 1232 314 1238 360 b 1346 294 1315 374 1339 339 b 1303 204 1353 254 1340 210 z m 1624 221 l 1624 310 b 1594 369 1624 321 1626 353 b 1543 372 1574 382 1543 372 l 1485 331 b 1485 374 1485 331 1485 369 b 1471 374 1485 381 1479 379 b 1410 331 1463 368 1413 340 b 1411 321 1407 321 1411 321 b 1439 321 1411 321 1439 343 b 1439 222 1439 321 1439 222 b 1411 192 1439 190 1414 203 b 1421 183 1408 182 1421 183 l 1521 188 l 1524 203 b 1485 221 1524 203 1486 186 l 1485 310 b 1550 349 1485 310 1536 349 b 1576 303 1572 349 1576 336 l 1576 222 b 1558 192 1576 190 1561 203 b 1568 183 1556 182 1568 183 l 1660 188 l 1663 204 b 1624 221 1663 203 1624 186 z "},";":{"ha":1963,"x_min":0,"x_max":0,"o":"m 982 1351 b 69 440 479 1351 69 943 b 982 -472 69 -62 479 -472 b 1893 440 1485 -472 1893 -62 b 982 1351 1893 943 1485 1351 z m 982 -435 b 106 440 499 -435 106 -43 b 982 1315 106 922 499 1315 b 1857 440 1464 1315 1857 922 b 982 -435 1857 -43 1464 -435 z m 733 729 l 747 729 l 742 829 b 732 842 742 829 744 846 b 694 797 718 838 736 797 l 633 797 b 615 815 624 797 615 806 l 615 911 l 732 911 b 775 864 758 911 775 864 b 783 874 775 864 783 864 b 768 935 783 879 774 917 l 517 935 b 504 924 517 935 500 936 b 556 890 508 911 556 931 l 556 615 b 533 592 556 603 546 592 b 515 586 525 590 517 590 b 528 575 511 572 528 575 l 660 575 l 660 589 b 638 586 660 589 650 586 b 615 611 625 588 615 599 l 615 754 b 635 775 615 765 625 775 l 694 775 b 733 729 731 775 733 729 z m 778 757 b 779 743 775 744 779 743 b 815 743 779 743 815 771 b 815 618 815 743 815 618 b 781 581 815 578 785 593 b 793 569 776 567 793 569 l 931 575 l 935 601 b 875 617 935 601 875 574 l 875 732 b 917 765 885 749 899 765 b 949 731 947 764 949 731 b 996 779 949 731 999 743 b 925 811 993 824 942 815 b 875 756 918 810 894 782 l 875 764 b 875 804 875 778 875 799 b 846 806 875 813 856 814 b 778 757 836 797 782 768 z m 1140 575 b 1176 578 1154 575 1174 578 l 1244 619 b 1213 633 1244 619 1236 644 b 1168 597 1192 624 1196 599 b 1071 690 1121 594 1076 615 b 1221 736 1113 703 1215 735 b 1239 753 1231 738 1240 747 l 1238 768 l 1224 764 b 1121 824 1215 800 1171 828 b 1014 685 1047 817 1008 751 b 1140 575 1019 618 1067 575 z m 1114 797 b 1160 740 1151 806 1178 768 l 1069 708 b 1114 797 1068 753 1081 789 z m 1392 575 b 1428 578 1406 575 1426 578 l 1497 619 b 1465 633 1497 619 1488 644 b 1421 597 1444 624 1449 599 b 1324 690 1374 594 1329 615 b 1474 736 1364 703 1468 735 b 1492 753 1483 738 1493 747 l 1489 768 l 1476 764 b 1374 824 1467 800 1422 828 b 1265 685 1300 817 1260 751 b 1392 575 1271 618 1318 575 z m 1365 797 b 1413 740 1404 806 1431 768 l 1322 708 b 1365 797 1321 753 1333 789 z m 525 471 l 433 467 l 426 449 b 471 436 426 449 481 465 b 396 265 471 436 396 265 l 329 444 b 369 446 318 465 369 446 l 363 464 l 242 475 b 232 467 242 475 228 478 b 279 444 235 458 271 467 l 372 190 b 382 192 374 188 379 183 l 494 449 b 535 463 503 464 532 454 b 525 471 538 474 525 471 z m 663 233 b 628 206 646 226 650 207 b 551 279 590 203 556 219 b 669 314 583 289 665 314 b 683 328 676 317 685 324 l 682 340 l 671 336 b 590 383 664 365 629 388 b 506 275 532 378 501 328 b 606 188 510 222 547 188 b 633 190 617 188 632 190 l 688 222 b 663 233 688 222 681 243 z m 585 363 b 621 318 614 369 635 340 l 550 293 b 585 363 549 328 558 357 z m 817 374 b 778 331 811 372 793 350 l 778 338 b 778 369 778 347 778 364 b 754 369 778 375 763 376 b 701 331 747 364 704 340 b 703 321 699 321 703 321 b 731 321 703 321 731 343 b 731 222 731 321 731 222 b 703 192 731 190 707 203 b 713 183 700 182 713 183 l 821 188 l 825 208 b 778 221 825 208 778 186 l 778 311 b 811 338 785 325 796 338 b 836 311 835 338 836 311 b 872 350 836 311 875 321 b 817 374 871 383 831 378 z m 928 324 b 975 358 928 350 947 360 b 1022 310 997 358 1013 343 l 1035 314 b 1039 374 1035 314 1039 369 b 1032 379 1039 378 1032 379 b 1021 368 1032 379 1028 368 b 974 376 1015 368 1001 376 b 893 314 924 376 894 354 b 1022 228 893 246 1014 253 b 967 196 1028 207 1006 194 b 906 254 933 197 915 221 l 890 249 b 889 188 890 249 889 192 b 896 183 889 183 896 183 b 903 190 896 183 900 190 b 967 178 908 190 932 178 b 1061 235 1006 178 1067 190 b 928 324 1051 311 928 279 z m 1104 439 b 1131 413 1104 424 1117 413 b 1158 439 1146 413 1158 424 b 1131 467 1158 454 1146 467 b 1104 439 1117 467 1104 454 z m 1149 213 b 1149 376 1149 213 1149 372 b 1126 376 1149 383 1135 382 b 1072 338 1117 371 1075 347 b 1074 328 1069 328 1074 328 b 1101 328 1074 328 1101 350 l 1101 222 b 1075 192 1101 190 1078 203 b 1085 183 1071 182 1085 183 l 1183 188 l 1190 210 b 1149 213 1190 210 1149 186 z m 1278 385 b 1190 276 1215 379 1186 329 b 1300 188 1196 224 1238 182 b 1393 293 1363 193 1397 242 b 1278 385 1389 346 1342 390 z m 1303 204 b 1238 276 1264 199 1244 236 b 1276 367 1232 314 1238 360 b 1346 294 1315 374 1339 339 b 1303 204 1353 254 1340 210 z m 1624 221 l 1624 310 b 1594 369 1624 321 1626 353 b 1543 372 1574 382 1543 372 l 1485 331 b 1485 374 1485 331 1485 369 b 1471 374 1485 381 1479 379 b 1410 331 1463 368 1413 340 b 1411 321 1407 321 1411 321 b 1439 321 1411 321 1439 343 b 1439 222 1439 321 1439 222 b 1411 192 1439 190 1414 203 b 1421 183 1408 182 1421 183 l 1521 188 l 1524 203 b 1485 221 1524 203 1486 186 l 1485 310 b 1550 349 1485 310 1536 349 b 1576 303 1572 349 1576 336 l 1576 222 b 1558 192 1576 190 1561 203 b 1568 183 1556 182 1568 183 l 1660 188 l 1663 204 b 1624 221 1663 203 1624 186 z "},"<":{"ha":1963,"x_min":0,"x_max":0,"o":"m 982 1351 b 69 440 479 1351 69 943 b 982 -472 69 -62 479 -472 b 1893 440 1485 -472 1893 -62 b 982 1351 1893 943 1485 1351 z m 982 -435 b 106 440 499 -435 106 -43 b 982 1315 106 922 499 1315 b 1857 440 1464 1315 1857 922 b 982 -435 1857 -43 1464 -435 z m 733 729 l 747 729 l 742 829 b 732 842 742 829 744 846 b 694 797 718 838 736 797 l 633 797 b 615 815 624 797 615 806 l 615 911 l 732 911 b 775 864 758 911 775 864 b 783 874 775 864 783 864 b 768 935 783 879 774 917 l 517 935 b 504 924 517 935 500 936 b 556 890 508 911 556 931 l 556 615 b 533 592 556 603 546 592 b 515 586 525 590 517 590 b 528 575 511 572 528 575 l 660 575 l 660 589 b 638 586 660 589 650 586 b 615 611 625 588 615 599 l 615 754 b 635 775 615 765 625 775 l 694 775 b 733 729 731 775 733 729 z m 778 757 b 779 743 775 744 779 743 b 815 743 779 743 815 771 b 815 618 815 743 815 618 b 781 581 815 578 785 593 b 793 569 776 567 793 569 l 931 575 l 935 601 b 875 617 935 601 875 574 l 875 732 b 917 765 885 749 899 765 b 949 731 947 764 949 731 b 996 779 949 731 999 743 b 925 811 993 824 942 815 b 875 756 918 810 894 782 l 875 764 b 875 804 875 778 875 799 b 846 806 875 813 856 814 b 778 757 836 797 782 768 z m 1140 575 b 1176 578 1154 575 1174 578 l 1244 619 b 1213 633 1244 619 1236 644 b 1168 597 1192 624 1196 599 b 1071 690 1121 594 1076 615 b 1221 736 1113 703 1215 735 b 1239 753 1231 738 1240 747 l 1238 768 l 1224 764 b 1121 824 1215 800 1171 828 b 1014 685 1047 817 1008 751 b 1140 575 1019 618 1067 575 z m 1114 797 b 1160 740 1151 806 1178 768 l 1069 708 b 1114 797 1068 753 1081 789 z m 1392 575 b 1428 578 1406 575 1426 578 l 1497 619 b 1465 633 1497 619 1488 644 b 1421 597 1444 624 1449 599 b 1324 690 1374 594 1329 615 b 1474 736 1364 703 1468 735 b 1492 753 1483 738 1493 747 l 1489 768 l 1476 764 b 1374 824 1467 800 1422 828 b 1265 685 1300 817 1260 751 b 1392 575 1271 618 1318 575 z m 1365 797 b 1413 740 1404 806 1431 768 l 1322 708 b 1365 797 1321 753 1333 789 z m 525 471 l 433 467 l 426 449 b 471 436 426 449 481 465 b 396 265 471 436 396 265 l 329 444 b 369 446 318 465 369 446 l 363 464 l 242 475 b 232 467 242 475 228 478 b 279 444 235 458 271 467 l 372 190 b 382 192 374 188 379 183 l 494 449 b 535 463 503 464 532 454 b 525 471 538 474 525 471 z m 663 233 b 628 206 646 226 650 207 b 551 279 590 203 556 219 b 669 314 583 289 665 314 b 683 328 676 317 685 324 l 682 340 l 671 336 b 590 383 664 365 629 388 b 506 275 532 378 501 328 b 606 188 510 222 547 188 b 633 190 617 188 632 190 l 688 222 b 663 233 688 222 681 243 z m 585 363 b 621 318 614 369 635 340 l 550 293 b 585 363 549 328 558 357 z m 817 374 b 778 331 811 372 793 350 l 778 338 b 778 369 778 347 778 364 b 754 369 778 375 763 376 b 701 331 747 364 704 340 b 703 321 699 321 703 321 b 731 321 703 321 731 343 b 731 222 731 321 731 222 b 703 192 731 190 707 203 b 713 183 700 182 713 183 l 821 188 l 825 208 b 778 221 825 208 778 186 l 778 311 b 811 338 785 325 796 338 b 836 311 835 338 836 311 b 872 350 836 311 875 321 b 817 374 871 383 831 378 z m 928 324 b 975 358 928 350 947 360 b 1022 310 997 358 1013 343 l 1035 314 b 1039 374 1035 314 1039 369 b 1032 379 1039 378 1032 379 b 1021 368 1032 379 1028 368 b 974 376 1015 368 1001 376 b 893 314 924 376 894 354 b 1022 228 893 246 1014 253 b 967 196 1028 207 1006 194 b 906 254 933 197 915 221 l 890 249 b 889 188 890 249 889 192 b 896 183 889 183 896 183 b 903 190 896 183 900 190 b 967 178 908 190 932 178 b 1061 235 1006 178 1067 190 b 928 324 1051 311 928 279 z m 1104 439 b 1131 413 1104 424 1117 413 b 1158 439 1146 413 1158 424 b 1131 467 1158 454 1146 467 b 1104 439 1117 467 1104 454 z m 1149 213 b 1149 376 1149 213 1149 372 b 1126 376 1149 383 1135 382 b 1072 338 1117 371 1075 347 b 1074 328 1069 328 1074 328 b 1101 328 1074 328 1101 350 l 1101 222 b 1075 192 1101 190 1078 203 b 1085 183 1071 182 1085 183 l 1183 188 l 1190 210 b 1149 213 1190 210 1149 186 z m 1278 385 b 1190 276 1215 379 1186 329 b 1300 188 1196 224 1238 182 b 1393 293 1363 193 1397 242 b 1278 385 1389 346 1342 390 z m 1303 204 b 1238 276 1264 199 1244 236 b 1276 367 1232 314 1238 360 b 1346 294 1315 374 1339 339 b 1303 204 1353 254 1340 210 z m 1624 221 l 1624 310 b 1594 369 1624 321 1626 353 b 1543 372 1574 382 1543 372 l 1485 331 b 1485 374 1485 331 1485 369 b 1471 374 1485 381 1479 379 b 1410 331 1463 368 1413 340 b 1411 321 1407 321 1411 321 b 1439 321 1411 321 1439 343 b 1439 222 1439 321 1439 222 b 1411 192 1439 190 1414 203 b 1421 183 1408 182 1421 183 l 1521 188 l 1524 203 b 1485 221 1524 203 1486 186 l 1485 310 b 1550 349 1485 310 1536 349 b 1576 303 1572 349 1576 336 l 1576 222 b 1558 192 1576 190 1561 203 b 1568 183 1556 182 1568 183 l 1660 188 l 1663 204 b 1624 221 1663 203 1624 186 z "},"=":{"ha":1963,"x_min":0,"x_max":0,"o":"m 982 1351 b 69 440 479 1351 69 943 b 982 -472 69 -62 479 -472 b 1893 440 1485 -472 1893 -62 b 982 1351 1893 943 1485 1351 z m 982 -435 b 106 440 499 -435 106 -43 b 982 1315 106 922 499 1315 b 1857 440 1464 1315 1857 922 b 982 -435 1857 -43 1464 -435 z m 733 729 l 747 729 l 742 829 b 732 842 742 829 744 846 b 694 797 718 838 736 797 l 633 797 b 615 815 624 797 615 806 l 615 911 l 732 911 b 775 864 758 911 775 864 b 783 874 775 864 783 864 b 768 935 783 879 774 917 l 517 935 b 504 924 517 935 500 936 b 556 890 508 911 556 931 l 556 615 b 533 592 556 603 546 592 b 515 586 525 590 517 590 b 528 575 511 572 528 575 l 660 575 l 660 589 b 638 586 660 589 650 586 b 615 611 625 588 615 599 l 615 754 b 635 775 615 765 625 775 l 694 775 b 733 729 731 775 733 729 z m 778 757 b 779 743 775 744 779 743 b 815 743 779 743 815 771 b 815 618 815 743 815 618 b 781 581 815 578 785 593 b 793 569 776 567 793 569 l 931 575 l 935 601 b 875 617 935 601 875 574 l 875 732 b 917 765 885 749 899 765 b 949 731 947 764 949 731 b 996 779 949 731 999 743 b 925 811 993 824 942 815 b 875 756 918 810 894 782 l 875 764 b 875 804 875 778 875 799 b 846 806 875 813 856 814 b 778 757 836 797 782 768 z m 1140 575 b 1176 578 1154 575 1174 578 l 1244 619 b 1213 633 1244 619 1236 644 b 1168 597 1192 624 1196 599 b 1071 690 1121 594 1076 615 b 1221 736 1113 703 1215 735 b 1239 753 1231 738 1240 747 l 1238 768 l 1224 764 b 1121 824 1215 800 1171 828 b 1014 685 1047 817 1008 751 b 1140 575 1019 618 1067 575 z m 1114 797 b 1160 740 1151 806 1178 768 l 1069 708 b 1114 797 1068 753 1081 789 z m 1392 575 b 1428 578 1406 575 1426 578 l 1497 619 b 1465 633 1497 619 1488 644 b 1421 597 1444 624 1449 599 b 1324 690 1374 594 1329 615 b 1474 736 1364 703 1468 735 b 1492 753 1483 738 1493 747 l 1489 768 l 1476 764 b 1374 824 1467 800 1422 828 b 1265 685 1300 817 1260 751 b 1392 575 1271 618 1318 575 z m 1365 797 b 1413 740 1404 806 1431 768 l 1322 708 b 1365 797 1321 753 1333 789 z m 525 471 l 433 467 l 426 449 b 471 436 426 449 481 465 b 396 265 471 436 396 265 l 329 444 b 369 446 318 465 369 446 l 363 464 l 242 475 b 232 467 242 475 228 478 b 279 444 235 458 271 467 l 372 190 b 382 192 374 188 379 183 l 494 449 b 535 463 503 464 532 454 b 525 471 538 474 525 471 z m 663 233 b 628 206 646 226 650 207 b 551 279 590 203 556 219 b 669 314 583 289 665 314 b 683 328 676 317 685 324 l 682 340 l 671 336 b 590 383 664 365 629 388 b 506 275 532 378 501 328 b 606 188 510 222 547 188 b 633 190 617 188 632 190 l 688 222 b 663 233 688 222 681 243 z m 585 363 b 621 318 614 369 635 340 l 550 293 b 585 363 549 328 558 357 z m 817 374 b 778 331 811 372 793 350 l 778 338 b 778 369 778 347 778 364 b 754 369 778 375 763 376 b 701 331 747 364 704 340 b 703 321 699 321 703 321 b 731 321 703 321 731 343 b 731 222 731 321 731 222 b 703 192 731 190 707 203 b 713 183 700 182 713 183 l 821 188 l 825 208 b 778 221 825 208 778 186 l 778 311 b 811 338 785 325 796 338 b 836 311 835 338 836 311 b 872 350 836 311 875 321 b 817 374 871 383 831 378 z m 928 324 b 975 358 928 350 947 360 b 1022 310 997 358 1013 343 l 1035 314 b 1039 374 1035 314 1039 369 b 1032 379 1039 378 1032 379 b 1021 368 1032 379 1028 368 b 974 376 1015 368 1001 376 b 893 314 924 376 894 354 b 1022 228 893 246 1014 253 b 967 196 1028 207 1006 194 b 906 254 933 197 915 221 l 890 249 b 889 188 890 249 889 192 b 896 183 889 183 896 183 b 903 190 896 183 900 190 b 967 178 908 190 932 178 b 1061 235 1006 178 1067 190 b 928 324 1051 311 928 279 z m 1104 439 b 1131 413 1104 424 1117 413 b 1158 439 1146 413 1158 424 b 1131 467 1158 454 1146 467 b 1104 439 1117 467 1104 454 z m 1149 213 b 1149 376 1149 213 1149 372 b 1126 376 1149 383 1135 382 b 1072 338 1117 371 1075 347 b 1074 328 1069 328 1074 328 b 1101 328 1074 328 1101 350 l 1101 222 b 1075 192 1101 190 1078 203 b 1085 183 1071 182 1085 183 l 1183 188 l 1190 210 b 1149 213 1190 210 1149 186 z m 1278 385 b 1190 276 1215 379 1186 329 b 1300 188 1196 224 1238 182 b 1393 293 1363 193 1397 242 b 1278 385 1389 346 1342 390 z m 1303 204 b 1238 276 1264 199 1244 236 b 1276 367 1232 314 1238 360 b 1346 294 1315 374 1339 339 b 1303 204 1353 254 1340 210 z m 1624 221 l 1624 310 b 1594 369 1624 321 1626 353 b 1543 372 1574 382 1543 372 l 1485 331 b 1485 374 1485 331 1485 369 b 1471 374 1485 381 1479 379 b 1410 331 1463 368 1413 340 b 1411 321 1407 321 1411 321 b 1439 321 1411 321 1439 343 b 1439 222 1439 321 1439 222 b 1411 192 1439 190 1414 203 b 1421 183 1408 182 1421 183 l 1521 188 l 1524 203 b 1485 221 1524 203 1486 186 l 1485 310 b 1550 349 1485 310 1536 349 b 1576 303 1572 349 1576 336 l 1576 222 b 1558 192 1576 190 1561 203 b 1568 183 1556 182 1568 183 l 1660 188 l 1663 204 b 1624 221 1663 203 1624 186 z "},">":{"ha":1963,"x_min":0,"x_max":0,"o":"m 982 1351 b 69 440 479 1351 69 943 b 982 -472 69 -62 479 -472 b 1893 440 1485 -472 1893 -62 b 982 1351 1893 943 1485 1351 z m 982 -435 b 106 440 499 -435 106 -43 b 982 1315 106 922 499 1315 b 1857 440 1464 1315 1857 922 b 982 -435 1857 -43 1464 -435 z m 733 729 l 747 729 l 742 829 b 732 842 742 829 744 846 b 694 797 718 838 736 797 l 633 797 b 615 815 624 797 615 806 l 615 911 l 732 911 b 775 864 758 911 775 864 b 783 874 775 864 783 864 b 768 935 783 879 774 917 l 517 935 b 504 924 517 935 500 936 b 556 890 508 911 556 931 l 556 615 b 533 592 556 603 546 592 b 515 586 525 590 517 590 b 528 575 511 572 528 575 l 660 575 l 660 589 b 638 586 660 589 650 586 b 615 611 625 588 615 599 l 615 754 b 635 775 615 765 625 775 l 694 775 b 733 729 731 775 733 729 z m 778 757 b 779 743 775 744 779 743 b 815 743 779 743 815 771 b 815 618 815 743 815 618 b 781 581 815 578 785 593 b 793 569 776 567 793 569 l 931 575 l 935 601 b 875 617 935 601 875 574 l 875 732 b 917 765 885 749 899 765 b 949 731 947 764 949 731 b 996 779 949 731 999 743 b 925 811 993 824 942 815 b 875 756 918 810 894 782 l 875 764 b 875 804 875 778 875 799 b 846 806 875 813 856 814 b 778 757 836 797 782 768 z m 1140 575 b 1176 578 1154 575 1174 578 l 1244 619 b 1213 633 1244 619 1236 644 b 1168 597 1192 624 1196 599 b 1071 690 1121 594 1076 615 b 1221 736 1113 703 1215 735 b 1239 753 1231 738 1240 747 l 1238 768 l 1224 764 b 1121 824 1215 800 1171 828 b 1014 685 1047 817 1008 751 b 1140 575 1019 618 1067 575 z m 1114 797 b 1160 740 1151 806 1178 768 l 1069 708 b 1114 797 1068 753 1081 789 z m 1392 575 b 1428 578 1406 575 1426 578 l 1497 619 b 1465 633 1497 619 1488 644 b 1421 597 1444 624 1449 599 b 1324 690 1374 594 1329 615 b 1474 736 1364 703 1468 735 b 1492 753 1483 738 1493 747 l 1489 768 l 1476 764 b 1374 824 1467 800 1422 828 b 1265 685 1300 817 1260 751 b 1392 575 1271 618 1318 575 z m 1365 797 b 1413 740 1404 806 1431 768 l 1322 708 b 1365 797 1321 753 1333 789 z m 525 471 l 433 467 l 426 449 b 471 436 426 449 481 465 b 396 265 471 436 396 265 l 329 444 b 369 446 318 465 369 446 l 363 464 l 242 475 b 232 467 242 475 228 478 b 279 444 235 458 271 467 l 372 190 b 382 192 374 188 379 183 l 494 449 b 535 463 503 464 532 454 b 525 471 538 474 525 471 z m 663 233 b 628 206 646 226 650 207 b 551 279 590 203 556 219 b 669 314 583 289 665 314 b 683 328 676 317 685 324 l 682 340 l 671 336 b 590 383 664 365 629 388 b 506 275 532 378 501 328 b 606 188 510 222 547 188 b 633 190 617 188 632 190 l 688 222 b 663 233 688 222 681 243 z m 585 363 b 621 318 614 369 635 340 l 550 293 b 585 363 549 328 558 357 z m 817 374 b 778 331 811 372 793 350 l 778 338 b 778 369 778 347 778 364 b 754 369 778 375 763 376 b 701 331 747 364 704 340 b 703 321 699 321 703 321 b 731 321 703 321 731 343 b 731 222 731 321 731 222 b 703 192 731 190 707 203 b 713 183 700 182 713 183 l 821 188 l 825 208 b 778 221 825 208 778 186 l 778 311 b 811 338 785 325 796 338 b 836 311 835 338 836 311 b 872 350 836 311 875 321 b 817 374 871 383 831 378 z m 928 324 b 975 358 928 350 947 360 b 1022 310 997 358 1013 343 l 1035 314 b 1039 374 1035 314 1039 369 b 1032 379 1039 378 1032 379 b 1021 368 1032 379 1028 368 b 974 376 1015 368 1001 376 b 893 314 924 376 894 354 b 1022 228 893 246 1014 253 b 967 196 1028 207 1006 194 b 906 254 933 197 915 221 l 890 249 b 889 188 890 249 889 192 b 896 183 889 183 896 183 b 903 190 896 183 900 190 b 967 178 908 190 932 178 b 1061 235 1006 178 1067 190 b 928 324 1051 311 928 279 z m 1104 439 b 1131 413 1104 424 1117 413 b 1158 439 1146 413 1158 424 b 1131 467 1158 454 1146 467 b 1104 439 1117 467 1104 454 z m 1149 213 b 1149 376 1149 213 1149 372 b 1126 376 1149 383 1135 382 b 1072 338 1117 371 1075 347 b 1074 328 1069 328 1074 328 b 1101 328 1074 328 1101 350 l 1101 222 b 1075 192 1101 190 1078 203 b 1085 183 1071 182 1085 183 l 1183 188 l 1190 210 b 1149 213 1190 210 1149 186 z m 1278 385 b 1190 276 1215 379 1186 329 b 1300 188 1196 224 1238 182 b 1393 293 1363 193 1397 242 b 1278 385 1389 346 1342 390 z m 1303 204 b 1238 276 1264 199 1244 236 b 1276 367 1232 314 1238 360 b 1346 294 1315 374 1339 339 b 1303 204 1353 254 1340 210 z m 1624 221 l 1624 310 b 1594 369 1624 321 1626 353 b 1543 372 1574 382 1543 372 l 1485 331 b 1485 374 1485 331 1485 369 b 1471 374 1485 381 1479 379 b 1410 331 1463 368 1413 340 b 1411 321 1407 321 1411 321 b 1439 321 1411 321 1439 343 b 1439 222 1439 321 1439 222 b 1411 192 1439 190 1414 203 b 1421 183 1408 182 1421 183 l 1521 188 l 1524 203 b 1485 221 1524 203 1486 186 l 1485 310 b 1550 349 1485 310 1536 349 b 1576 303 1572 349 1576 336 l 1576 222 b 1558 192 1576 190 1561 203 b 1568 183 1556 182 1568 183 l 1660 188 l 1663 204 b 1624 221 1663 203 1624 186 z "},"?":{"ha":583,"x_min":0,"x_max":0,"o":"m 540 726 b 417 908 528 804 481 869 b 504 753 463 869 494 815 l 508 718 l 508 714 l 508 679 l 507 679 b 421 468 497 572 453 513 b 368 335 390 428 371 401 b 315 283 367 307 343 283 l 210 283 b 200 286 207 283 204 285 b 207 275 203 282 204 278 b 246 258 218 264 232 258 l 350 258 b 404 310 379 258 403 281 b 456 442 407 376 426 403 b 543 654 489 488 533 547 l 544 654 l 544 688 z m 242 693 b 288 731 246 715 265 731 b 293 731 289 731 290 731 b 251 757 286 746 269 757 b 206 719 229 757 210 740 b 154 676 201 694 179 676 l 49 676 b 39 679 44 676 42 678 b 44 669 40 675 42 672 b 85 651 54 658 69 651 l 189 651 b 242 693 215 651 238 669 z m 350 224 b 357 197 354 215 357 207 l 357 93 b 304 39 357 63 333 39 l 219 39 b 210 40 217 39 214 40 b 256 14 219 25 236 14 l 340 14 b 393 67 369 14 393 38 l 393 172 b 350 224 393 197 374 218 z m 315 310 b 342 336 329 310 342 322 b 399 483 346 411 369 443 b 482 711 435 532 479 592 l 482 719 b 251 942 476 843 375 942 b 21 732 131 942 32 851 b 28 713 21 725 22 718 b 49 703 33 707 40 703 l 154 703 b 179 724 167 703 178 713 b 201 763 183 739 190 751 b 228 779 210 768 219 774 b 251 783 236 782 243 783 b 324 714 290 783 322 753 b 272 578 322 646 303 619 b 183 339 235 528 188 465 b 190 318 183 331 186 324 b 210 310 196 313 203 310 z m 222 325 b 303 371 236 332 260 344 l 250 325 z m 329 361 b 311 325 325 351 317 336 l 269 325 b 329 361 303 347 321 357 b 329 361 329 361 329 361 z m 331 372 b 299 356 326 371 317 365 l 333 386 b 331 372 332 382 332 376 z m 338 403 b 294 376 325 394 310 386 b 340 411 315 393 331 403 b 338 403 340 408 339 406 z m 353 439 b 225 367 332 436 269 396 b 336 440 257 390 307 422 b 364 458 347 447 356 453 b 353 439 360 451 356 446 z m 388 492 b 382 485 386 490 385 488 b 347 471 375 485 363 479 b 396 503 364 482 379 492 b 388 492 393 499 390 496 z m 411 525 b 276 446 369 500 318 469 b 431 558 365 508 410 542 b 411 525 425 546 418 535 z m 442 582 b 381 543 436 579 421 571 b 238 456 340 518 275 475 l 449 597 b 442 582 446 593 444 588 z m 453 613 l 251 497 b 390 589 288 522 349 561 b 458 633 428 613 447 625 b 453 613 457 626 454 619 z m 461 649 l 281 543 b 433 646 324 575 399 624 b 464 665 449 656 458 661 b 461 649 463 660 463 654 z m 467 718 l 358 656 b 464 736 389 679 431 711 b 467 718 465 731 467 725 z m 338 718 b 376 742 349 725 363 733 b 338 711 357 728 346 718 b 338 714 338 711 338 713 b 338 718 338 715 338 717 z m 379 715 b 335 681 357 699 343 688 b 336 690 336 683 336 686 z m 335 733 b 333 738 335 735 333 736 b 357 753 339 740 346 744 b 335 733 347 743 339 738 z m 381 685 b 326 642 354 665 338 651 b 331 658 328 647 329 653 b 381 685 339 661 356 669 z m 463 749 b 422 722 458 746 447 739 b 340 672 399 707 360 682 b 461 761 361 690 413 728 b 463 749 463 757 463 753 z m 458 771 l 350 708 b 449 781 365 722 394 743 b 453 785 450 782 451 783 b 458 771 454 781 457 776 z m 450 794 b 367 747 440 790 419 779 b 446 804 388 764 417 785 b 450 794 447 801 449 799 z m 439 815 b 376 776 429 811 413 800 b 358 764 371 772 364 768 b 429 832 403 804 422 822 b 439 815 433 826 436 821 z m 422 843 b 335 792 408 836 379 819 b 371 822 347 803 361 814 b 411 856 394 840 406 850 b 422 843 414 851 418 847 z m 404 864 b 340 828 394 860 378 849 l 306 808 b 390 875 328 826 360 851 b 404 864 394 872 400 868 z m 347 904 b 57 733 299 885 135 783 b 258 867 89 761 169 813 b 333 911 281 879 307 894 b 347 904 339 908 343 906 z m 293 924 b 322 914 303 921 313 918 b 260 878 308 907 288 894 b 68 767 189 836 113 793 b 293 922 121 806 222 875 b 293 924 293 922 293 922 z m 243 926 b 251 928 246 926 249 928 b 278 925 260 928 268 925 l 128 838 b 243 926 208 896 235 918 z m 132 882 b 161 907 151 897 158 904 b 206 922 175 914 190 919 b 114 864 185 910 156 892 b 94 853 107 860 101 856 b 132 882 107 863 121 874 z m 68 825 b 118 856 72 826 82 832 b 224 921 149 875 197 907 b 53 797 192 896 114 839 b 68 825 57 807 63 817 z m 46 781 l 176 856 b 40 756 93 799 57 771 b 46 781 42 764 44 772 z m 36 726 b 35 731 36 728 35 729 b 38 739 36 733 36 736 b 75 760 42 742 53 747 b 36 726 57 747 43 735 z m 88 718 l 49 718 b 243 838 107 754 181 800 b 88 718 171 792 97 742 z m 165 726 b 154 718 165 721 160 718 l 151 718 b 165 728 156 721 161 724 b 165 726 165 726 165 726 z m 169 740 b 164 738 168 739 167 739 b 169 742 165 739 168 740 b 169 740 169 740 169 740 z m 179 760 b 129 718 147 739 133 726 l 108 718 b 192 774 136 736 164 756 b 179 760 188 769 183 764 z m 103 726 b 360 897 133 757 249 832 b 374 889 365 894 369 892 b 103 726 322 874 157 763 z m 243 799 b 239 796 242 797 239 797 b 219 790 232 796 225 793 b 375 879 290 838 351 872 b 321 846 365 874 349 864 b 289 826 311 840 300 833 b 243 799 271 817 256 807 z m 276 793 b 258 797 271 794 264 796 b 294 819 268 803 279 810 b 310 828 300 822 304 825 b 328 839 317 832 322 835 b 276 793 297 814 283 800 z m 306 778 b 290 788 300 782 296 785 b 372 835 317 803 349 821 b 365 829 369 833 368 832 b 306 778 331 801 313 788 z m 315 768 b 413 828 351 792 390 815 b 328 750 393 808 356 775 b 315 768 325 757 319 763 z m 317 621 l 444 694 b 374 647 425 679 397 661 b 306 600 344 628 322 613 b 317 621 310 607 314 614 z m 288 576 b 379 639 310 593 350 619 b 467 700 426 669 453 688 b 465 679 467 692 465 685 b 301 585 454 675 422 657 b 288 576 297 582 292 578 b 288 576 288 576 288 576 z m 274 556 b 307 576 278 558 288 564 b 343 599 317 582 329 590 b 265 544 306 574 282 557 b 274 556 268 549 271 553 z m 244 513 l 336 565 b 236 497 285 531 254 511 b 244 513 239 501 242 507 z m 224 469 l 344 539 l 218 453 b 224 469 219 458 222 464 z m 213 436 b 381 532 229 436 283 469 b 206 407 331 496 261 446 b 213 436 207 418 210 426 z m 203 393 b 274 433 210 397 228 406 b 201 381 232 404 211 389 b 203 393 201 385 203 389 z m 200 367 b 358 465 258 407 322 447 b 332 449 350 460 340 454 b 199 357 257 401 217 374 b 200 367 199 361 200 364 z m 201 329 b 197 336 199 331 199 333 b 346 428 257 376 319 417 b 206 326 322 407 253 358 b 201 329 204 328 203 328 z m 304 65 b 331 93 319 65 331 78 l 331 197 b 304 224 331 213 319 224 l 219 224 b 193 197 206 224 193 213 l 193 93 b 219 65 193 78 206 65 z m 299 79 l 278 79 b 310 100 285 85 296 90 b 299 79 304 90 301 83 z m 317 93 b 314 86 317 90 315 88 b 313 85 314 86 314 86 b 313 85 313 85 313 85 b 317 93 314 88 315 90 z m 317 117 b 265 83 297 103 278 90 b 317 135 275 96 296 115 z m 317 150 b 264 124 306 149 286 138 b 317 161 281 135 299 149 z m 317 193 l 317 175 b 269 146 310 172 297 164 b 233 121 258 138 244 129 b 317 193 283 163 307 182 z m 304 210 b 310 207 306 210 307 208 b 247 172 296 201 272 188 l 289 210 z m 225 210 l 261 210 b 213 179 246 201 228 190 b 225 210 221 196 224 204 z m 207 197 b 210 203 207 199 208 201 b 214 204 211 203 211 204 b 207 190 211 200 210 196 z m 207 164 b 265 201 228 178 249 192 l 207 149 z m 207 135 b 307 196 246 160 286 185 b 224 126 288 178 244 143 b 207 113 217 121 211 117 z m 208 89 b 207 93 208 90 207 92 l 207 97 b 225 106 211 99 217 100 b 208 89 217 99 213 93 z m 304 136 b 250 79 268 103 254 88 l 219 79 b 218 81 219 79 218 81 b 304 136 250 103 283 125 z "},"@":{"ha":1963,"x_min":0,"x_max":0,"o":"m 982 1351 b 69 440 479 1351 69 943 b 982 -472 69 -62 479 -472 b 1893 440 1485 -472 1893 -62 b 982 1351 1893 943 1485 1351 z m 982 -435 b 106 440 499 -435 106 -43 b 982 1315 106 922 499 1315 b 1857 440 1464 1315 1857 922 b 982 -435 1857 -43 1464 -435 z m 733 729 l 747 729 l 742 829 b 732 842 742 829 744 846 b 694 797 718 838 736 797 l 633 797 b 615 815 624 797 615 806 l 615 911 l 732 911 b 775 864 758 911 775 864 b 783 874 775 864 783 864 b 768 935 783 879 774 917 l 517 935 b 504 924 517 935 500 936 b 556 890 508 911 556 931 l 556 615 b 533 592 556 603 546 592 b 515 586 525 590 517 590 b 528 575 511 572 528 575 l 660 575 l 660 589 b 638 586 660 589 650 586 b 615 611 625 588 615 599 l 615 754 b 635 775 615 765 625 775 l 694 775 b 733 729 731 775 733 729 z m 778 757 b 779 743 775 744 779 743 b 815 743 779 743 815 771 b 815 618 815 743 815 618 b 781 581 815 578 785 593 b 793 569 776 567 793 569 l 931 575 l 935 601 b 875 617 935 601 875 574 l 875 732 b 917 765 885 749 899 765 b 949 731 947 764 949 731 b 996 779 949 731 999 743 b 925 811 993 824 942 815 b 875 756 918 810 894 782 l 875 764 b 875 804 875 778 875 799 b 846 806 875 813 856 814 b 778 757 836 797 782 768 z m 1140 575 b 1176 578 1154 575 1174 578 l 1244 619 b 1213 633 1244 619 1236 644 b 1168 597 1192 624 1196 599 b 1071 690 1121 594 1076 615 b 1221 736 1113 703 1215 735 b 1239 753 1231 738 1240 747 l 1238 768 l 1224 764 b 1121 824 1215 800 1171 828 b 1014 685 1047 817 1008 751 b 1140 575 1019 618 1067 575 z m 1114 797 b 1160 740 1151 806 1178 768 l 1069 708 b 1114 797 1068 753 1081 789 z m 1392 575 b 1428 578 1406 575 1426 578 l 1497 619 b 1465 633 1497 619 1488 644 b 1421 597 1444 624 1449 599 b 1324 690 1374 594 1329 615 b 1474 736 1364 703 1468 735 b 1492 753 1483 738 1493 747 l 1489 768 l 1476 764 b 1374 824 1467 800 1422 828 b 1265 685 1300 817 1260 751 b 1392 575 1271 618 1318 575 z m 1365 797 b 1413 740 1404 806 1431 768 l 1322 708 b 1365 797 1321 753 1333 789 z m 525 471 l 433 467 l 426 449 b 471 436 426 449 481 465 b 396 265 471 436 396 265 l 329 444 b 369 446 318 465 369 446 l 363 464 l 242 475 b 232 467 242 475 228 478 b 279 444 235 458 271 467 l 372 190 b 382 192 374 188 379 183 l 494 449 b 535 463 503 464 532 454 b 525 471 538 474 525 471 z m 663 233 b 628 206 646 226 650 207 b 551 279 590 203 556 219 b 669 314 583 289 665 314 b 683 328 676 317 685 324 l 682 340 l 671 336 b 590 383 664 365 629 388 b 506 275 532 378 501 328 b 606 188 510 222 547 188 b 633 190 617 188 632 190 l 688 222 b 663 233 688 222 681 243 z m 585 363 b 621 318 614 369 635 340 l 550 293 b 585 363 549 328 558 357 z m 817 374 b 778 331 811 372 793 350 l 778 338 b 778 369 778 347 778 364 b 754 369 778 375 763 376 b 701 331 747 364 704 340 b 703 321 699 321 703 321 b 731 321 703 321 731 343 b 731 222 731 321 731 222 b 703 192 731 190 707 203 b 713 183 700 182 713 183 l 821 188 l 825 208 b 778 221 825 208 778 186 l 778 311 b 811 338 785 325 796 338 b 836 311 835 338 836 311 b 872 350 836 311 875 321 b 817 374 871 383 831 378 z m 928 324 b 975 358 928 350 947 360 b 1022 310 997 358 1013 343 l 1035 314 b 1039 374 1035 314 1039 369 b 1032 379 1039 378 1032 379 b 1021 368 1032 379 1028 368 b 974 376 1015 368 1001 376 b 893 314 924 376 894 354 b 1022 228 893 246 1014 253 b 967 196 1028 207 1006 194 b 906 254 933 197 915 221 l 890 249 b 889 188 890 249 889 192 b 896 183 889 183 896 183 b 903 190 896 183 900 190 b 967 178 908 190 932 178 b 1061 235 1006 178 1067 190 b 928 324 1051 311 928 279 z m 1104 439 b 1131 413 1104 424 1117 413 b 1158 439 1146 413 1158 424 b 1131 467 1158 454 1146 467 b 1104 439 1117 467 1104 454 z m 1149 213 b 1149 376 1149 213 1149 372 b 1126 376 1149 383 1135 382 b 1072 338 1117 371 1075 347 b 1074 328 1069 328 1074 328 b 1101 328 1074 328 1101 350 l 1101 222 b 1075 192 1101 190 1078 203 b 1085 183 1071 182 1085 183 l 1183 188 l 1190 210 b 1149 213 1190 210 1149 186 z m 1278 385 b 1190 276 1215 379 1186 329 b 1300 188 1196 224 1238 182 b 1393 293 1363 193 1397 242 b 1278 385 1389 346 1342 390 z m 1303 204 b 1238 276 1264 199 1244 236 b 1276 367 1232 314 1238 360 b 1346 294 1315 374 1339 339 b 1303 204 1353 254 1340 210 z m 1624 221 l 1624 310 b 1594 369 1624 321 1626 353 b 1543 372 1574 382 1543 372 l 1485 331 b 1485 374 1485 331 1485 369 b 1471 374 1485 381 1479 379 b 1410 331 1463 368 1413 340 b 1411 321 1407 321 1411 321 b 1439 321 1411 321 1439 343 b 1439 222 1439 321 1439 222 b 1411 192 1439 190 1414 203 b 1421 183 1408 182 1421 183 l 1521 188 l 1524 203 b 1485 221 1524 203 1486 186 l 1485 310 b 1550 349 1485 310 1536 349 b 1576 303 1572 349 1576 336 l 1576 222 b 1558 192 1576 190 1561 203 b 1568 183 1556 182 1568 183 l 1660 188 l 1663 204 b 1624 221 1663 203 1624 186 z "}}}
